<?xml version="1.0" standalone="no"?>
<!DOCTYPE svg PUBLIC "-//W3C//DTD SVG 1.1//EN" "http://www.w3.org/Graphics/SVG/1.1/DTD/svg11.dtd" >
<svg xmlns="http://www.w3.org/2000/svg" xmlns:xlink="http://www.w3.org/1999/xlink" version="1.1">
<metadata>
Created by FontForge 20170731 at Tue Sep  1 10:37:53 2020
 By Aleksey,,,
(c) 1997-2020 Typodermic Fonts Inc.
</metadata>
<defs>
<font id="Arnprior-Regular" horiz-adv-x="666" >
  <font-face 
    font-family="Arnprior"
    font-weight="400"
    font-stretch="normal"
    units-per-em="1000"
    panose-1="4 4 6 4 7 4 2 2 10 4"
    ascent="793"
    descent="-207"
    cap-height="756"
    bbox="-501 -212 983 993"
    underline-thickness="20"
    underline-position="-163"
    unicode-range="U+0020-2212"
  />
<missing-glyph horiz-adv-x="464" 
d="M38 813h380v-928h-380v928zM79 -74h298v846h-298v-846z" />
    <glyph glyph-name=".notdef" horiz-adv-x="464" 
d="M38 813h380v-928h-380v928zM79 -74h298v846h-298v-846z" />
    <glyph glyph-name=".null" horiz-adv-x="0" 
 />
    <glyph glyph-name="nonmarkingreturn" horiz-adv-x="313" 
 />
    <glyph glyph-name="space" unicode=" " horiz-adv-x="313" 
 />
    <glyph glyph-name="exclam" unicode="!" horiz-adv-x="275" 
d="M48 79q0 37 26 63t64 26q37 0 63 -26t26 -63t-26 -63t-63 -26q-38 0 -64 26t-26 63zM138 766q52 0 74 -17t22 -62q0 -11 -1.5 -26t-3.5 -33l-53 -391h-76l-54 391q-2 18 -3.5 33t-1.5 26q0 45 22.5 62t74.5 17z" />
    <glyph glyph-name="quotedbl" unicode="&#x22;" horiz-adv-x="306" 
d="M25 509zM42 509l-17 270h102l-17 -270h-68zM195 509l-17 270h102l-17 -270h-68z" />
    <glyph glyph-name="numbersign" unicode="#" horiz-adv-x="494" 
d="M117 433v152h-77v53h77v118h54v-118h152v118h53v-118h78v-53h-78v-152h78v-54h-78v-119h-53v119h-152v-119h-54v119h-77v54h77zM171 433h152v152h-152v-152z" />
    <glyph glyph-name="dollar" unicode="$" horiz-adv-x="633" 
d="M298 0v51q-67 1 -113 12t-74.5 30.5t-41 46.5t-12.5 59v52h172v-21q0 -38 5.5 -62t15 -38.5t22 -21t26.5 -7.5v264q-65 35 -121.5 48t-117.5 13v131q0 31 13 57.5t42 46t74 31t110 13.5v52h37v-52q64 -2 108 -13.5t71 -31t38.5 -46t11.5 -57.5v-52h-171v21
q0 34 -4.5 57.5t-12 38t-18.5 22t-23 9.5v-266q48 -30 109.5 -45t131.5 -15v-128q0 -62 -58 -102.5t-183 -45.5v-51h-37zM392 313q-14 7 -28.5 14.5t-28.5 15.5v-239q12 3 22 11t18 23t12.5 37.5t4.5 54.5v83zM242 440q14 -6 28 -14l28 -16v243q-24 -5 -40 -32.5t-16 -94.5
v-86z" />
    <glyph glyph-name="percent" unicode="%" horiz-adv-x="771" 
d="M31 0zM178 367q14 0 24.5 12t10.5 52v228q0 40 -10.5 52t-24.5 12t-24.5 -12t-10.5 -52v-228q0 -40 10.5 -52t24.5 -12zM178 329q-78 0 -112.5 24.5t-34.5 62.5v260q0 38 34.5 61.5t112.5 23.5q79 0 113 -23.5t34 -61.5v-260q0 -38 -34 -62.5t-113 -24.5zM644 756h64
l-588 -756h-64zM593 32q14 0 24.5 12t10.5 52v228q0 40 -10.5 52t-24.5 12t-24.5 -12t-10.5 -52v-228q0 -40 10.5 -52t24.5 -12zM593 -6q-78 0 -112.5 24.5t-34.5 62.5v260q0 38 34.5 61.5t112.5 23.5q79 0 113 -23.5t34 -61.5v-260q0 -38 -34 -62.5t-113 -24.5z" />
    <glyph glyph-name="ampersand" unicode="&#x26;" horiz-adv-x="648" 
d="M310 -10q-118 0 -180 41t-62 107v174q77 0 135.5 16.5t106.5 44.5q-48 28 -106.5 44.5t-135.5 16.5v184q0 33 14.5 60t46 46.5t81 30.5t119.5 11t117 -11t75.5 -30.5t41 -46.5t12.5 -60v-51h-170v21q0 41 -6 66t-16.5 39t-24.5 19t-29 5t-29 -5t-24 -19t-16 -39t-6 -66
v-146q25 -13 46 -24.5t41 -22.5l52 32t53 29t56 22t61 12v-57q-54 -3 -98 -19t-88 -41q44 -24 88 -40.5t98 -18.5h12v-314h-46v22q0 17 -24 17q-14 0 -26.5 -7.5t-32.5 -17t-52 -17t-84 -7.5zM254 168q0 -41 6 -66t16 -39t24 -19t29 -5t29 5t24.5 19t16.5 39t6 66v143
q-17 10 -32.5 20t-31.5 20q-20 -11 -41 -22.5t-46 -23.5v-137z" />
    <glyph glyph-name="quotesingle" unicode="'" horiz-adv-x="153" 
d="M42 509l-17 270h102l-17 -270h-68z" />
    <glyph glyph-name="parenleft" unicode="(" horiz-adv-x="337" 
d="M87 359q0 151 14 255.5t42.5 171t73 99t105.5 38.5v-54q-39 -9 -67.5 -34.5t-46.5 -82.5t-27 -152t-9 -241q0 -147 9 -241.5t27 -151.5t46.5 -83t67.5 -35v-53q-61 6 -105.5 38t-73 98.5t-42.5 171t-14 256.5z" />
    <glyph glyph-name="parenright" unicode=")" horiz-adv-x="337" 
d="M250 359q0 -152 -14 -256.5t-42.5 -171t-73 -98.5t-105.5 -38v53q39 9 67.5 35t46.5 83t27 151.5t9 241.5q0 146 -9 241t-27 152t-46.5 82.5t-67.5 34.5v54q61 -6 105.5 -38.5t73 -99t42.5 -171t14 -255.5z" />
    <glyph glyph-name="asterisk" unicode="*" horiz-adv-x="782" 
d="M755 254l-339 31l199 -221l-256 223l31 -297l-75 332l-150 -258l133 312l-271 -122l291 176l-292 61l339 -30l-200 222l257 -224l-32 297l75 -332l150 259l-132 -313l271 121l-292 -175z" />
    <glyph glyph-name="plus" unicode="+" horiz-adv-x="494" 
d="M273 589v-180h181v-54h-181v-180h-53v180h-180v54h180v180h53z" />
    <glyph glyph-name="comma" unicode="," horiz-adv-x="228" 
d="M51 -73q10 3 22.5 9.5t23 16.5t19 21.5t11.5 23.5q-8 -3 -20 -3q-40 0 -61 24.5t-21 58.5q0 19 7 35.5t19 28.5t28.5 19t35.5 7q35 0 61.5 -25t26.5 -70q0 -29 -11.5 -58t-32 -54t-48.5 -42.5t-60 -21.5v30z" />
    <glyph glyph-name="hyphen" unicode="-" horiz-adv-x="277" 
d="M14 409h248v-54h-248v54z" />
    <glyph glyph-name="period" unicode="." horiz-adv-x="228" 
d="M25 79q0 37 26 63t63 26t63 -26t26 -63t-26 -63t-63 -26t-63 26t-26 63z" />
    <glyph glyph-name="slash" unicode="/" horiz-adv-x="399" 
d="M335 851h64l-335 -985h-64z" />
    <glyph glyph-name="zero" unicode="0" horiz-adv-x="635" 
d="M57 0zM317 39q16 0 29.5 5t23.5 19t16 39t6 66v420q0 41 -6 66t-16 39t-23.5 19t-29.5 5q-15 0 -29 -5t-24 -19t-16 -39t-6 -66v-420q0 -41 6 -66t16 -39t24 -19t29 -5zM317 -10q-69 0 -118.5 11t-81 30.5t-46 46.5t-14.5 60v480q0 33 14.5 60t46 46.5t81 30.5t118.5 11
q70 0 119.5 -11t81 -30.5t46 -46.5t14.5 -60v-480q0 -33 -14.5 -60t-46 -46.5t-81 -30.5t-119.5 -11z" />
    <glyph glyph-name="one" unicode="1" horiz-adv-x="331" 
d="M15 0v38h20q19 0 27.5 7.5t8.5 30.5v609q0 19 -9 26t-28 7h-20v38h246v-680q0 -23 8.5 -30.5t27.5 -7.5h19v-38h-300z" />
    <glyph glyph-name="two" unicode="2" horiz-adv-x="646" 
d="M590 189v-41q0 -32 -13.5 -59.5t-43.5 -47t-78 -30.5t-118 -11h-323v38h20q19 0 27.5 7.5t8.5 30.5v251q61 0 115.5 11.5t99.5 34.5q29 14 58.5 33.5t60.5 33.5v148q0 41 -6 66t-16 39t-24 19t-29 5t-29 -5t-24.5 -19t-16.5 -39t-6 -66v-21h-171v51q0 33 12.5 60
t41.5 46.5t76 30.5t117 11t119 -11t80 -30.5t45.5 -46.5t14.5 -60v-192q-124 0 -213 -46q-28 -14 -59 -33.5t-62 -33.5v-221q0 -17 7.5 -30t27.5 -13h48q15 0 29.5 5t26 19t18 39.5t6.5 66.5v10h173z" />
    <glyph glyph-name="three" unicode="3" horiz-adv-x="607" 
d="M365 314q-25 12 -46.5 24t-41.5 23q-26 -17 -51.5 -33t-52.5 -29t-56 -22t-62 -11v58q54 2 98.5 18t87.5 40q-43 25 -87.5 41.5t-98.5 18.5v57q33 -3 62 -12t56 -22t52.5 -29t51.5 -32q20 11 41.5 23t46.5 24v137q0 41 -6 66t-16 39t-24 19t-29 5t-29 -5t-24.5 -19
t-16.5 -39t-6 -66v-21h-171v51q0 33 12.5 60t41.5 46.5t76 30.5t117 11t119.5 -11t81 -30.5t46 -46.5t14.5 -60v-175q-77 0 -135.5 -16.5t-107.5 -44.5q49 -28 107.5 -44t135.5 -16v-184q0 -33 -14.5 -60t-46 -46.5t-81 -30.5t-119.5 -11t-117 11t-76 30.5t-41.5 46.5
t-12.5 60v51h171v-21q0 -41 6 -66t16.5 -39t24.5 -19t29 -5t29 5t24 19t16 39t6 66v146z" />
    <glyph glyph-name="four" unicode="4" horiz-adv-x="672" 
d="M71 685q0 19 -9 26t-28 7h-20v38h246v-424q13 3 33.5 12t42 21t42 27t34.5 30v334h246v-38h-20q-19 0 -28 -7t-9 -26v-609q0 -23 8.5 -30.5t27.5 -7.5h20v-38h-300v38h19q19 0 27.5 7.5t8.5 30.5v300q-36 -29 -71 -51.5t-75 -38t-87.5 -26t-107.5 -15.5v440z" />
    <glyph glyph-name="five" unicode="5" horiz-adv-x="644" 
d="M337 756q70 0 118 -11t78 -30.5t43.5 -46.5t13.5 -60v-41h-173v10q0 41 -6.5 66.5t-18 39.5t-26 19t-29.5 5h-48q-20 0 -27.5 -13t-7.5 -30v-224q31 -14 62 -33.5t59 -33.5q89 -46 213 -46v-189q0 -33 -14.5 -60t-45.5 -46.5t-80 -30.5t-119 -11t-117 11t-76 30.5
t-41.5 46.5t-12.5 60v51h171v-21q0 -41 6 -66t16.5 -39t24.5 -19t29 -5t29 5t24 19t16 39t6 66v145q-31 14 -60.5 33.5t-58.5 33.5q-45 23 -99.5 34.5t-115.5 11.5v254q0 23 -8.5 30.5t-27.5 7.5h-20v38h323z" />
    <glyph glyph-name="six" unicode="6" horiz-adv-x="630" 
d="M317 -10q-69 0 -118.5 11t-81 30.5t-46 46.5t-14.5 60v480q0 33 14.5 60t46 46.5t81 30.5t118.5 11q70 0 117 -11t76 -30.5t41.5 -46.5t12.5 -60v-51h-171v21q0 41 -6 66t-16.5 39t-24 19t-29.5 5q-15 0 -29 -5t-24 -19t-16 -39t-6 -66v-105q33 -29 68 -53t75.5 -41
t88 -26.5t104.5 -9.5v-215q0 -33 -14.5 -60t-46 -46.5t-81 -30.5t-119.5 -11zM392 338q-22 10 -44 23.5t-42 28t-36.5 28t-27.5 24.5v-274q0 -41 6 -66t16 -39t24 -19t29 -5q16 0 29.5 5t23.5 19t16 39t6 66v170z" />
    <glyph glyph-name="seven" unicode="7" horiz-adv-x="533" 
d="M265 0h-180l228 629l6 16t3 13q0 12 -9 20t-24 8h-189q-17 0 -25 -9.5t-8 -24.5v-46h-46v150h492v-57z" />
    <glyph glyph-name="eight" unicode="8" horiz-adv-x="635" 
d="M318 -10q-69 0 -118.5 11t-81 30.5t-46 46.5t-14.5 60v184q73 0 129 16t103 44q-47 28 -103 44.5t-129 16.5v175q0 33 14.5 60t46 46.5t81 30.5t118.5 11q70 0 119.5 -11t81 -30.5t46 -46.5t14.5 -60v-175q-73 0 -129 -16.5t-103 -44.5q47 -28 103 -44t129 -16v-184
q0 -33 -14.5 -60t-46 -46.5t-81 -30.5t-119.5 -11zM318 717q-15 0 -29 -5t-24 -19t-16 -39t-6 -66v-137q21 -12 39.5 -24t35.5 -23q17 11 36 23t39 24v137q0 41 -6 66t-16 39t-23.5 19t-29.5 5zM318 361q-17 -11 -35.5 -23t-39.5 -24v-146q0 -41 6 -66t16 -39t24 -19t29 -5
q16 0 29.5 5t23.5 19t16 39t6 66v146q-20 12 -39 24t-36 23z" />
    <glyph glyph-name="nine" unicode="9" horiz-adv-x="630" 
d="M312 766q70 0 119.5 -11t81 -30.5t46 -46.5t14.5 -60v-480q0 -33 -14.5 -60t-46 -46.5t-81 -30.5t-119.5 -11t-117 11t-75.5 30.5t-41 46.5t-12.5 60v51h170v-21q0 -41 6 -66t16.5 -39t24.5 -19t29 -5t29 5t24 19t16 39t6 66v134q-32 29 -67 53t-75.5 41t-88.5 26.5
t-105 9.5v186q0 33 14.5 60t46 46.5t81 30.5t119.5 11zM237 447q22 -10 44.5 -23.5t42.5 -28t36 -28.5t27 -24v245q0 41 -6 66t-16 39t-24 19t-29 5t-29 -5t-24 -19t-16 -39t-6 -66v-141z" />
    <glyph glyph-name="colon" unicode=":" horiz-adv-x="228" 
d="M25 142zM25 519q0 37 26 63t63 26t63 -26t26 -63t-26 -63t-63 -26t-63 26t-26 63zM25 231q0 37 26 63t63 26t63 -26t26 -63t-26 -63t-63 -26t-63 26t-26 63z" />
    <glyph glyph-name="semicolon" unicode=";" horiz-adv-x="228" 
d="M25 49zM25 519q0 37 26 63t63 26t63 -26t26 -63t-26 -63t-63 -26t-63 26t-26 63zM51 79q10 3 22.5 9.5t23 16.5t19 21.5t11.5 23.5q-8 -3 -20 -3q-40 0 -61 24.5t-21 58.5q0 19 7 35.5t19 28.5t28.5 19t35.5 7q35 0 61.5 -25t26.5 -70q0 -29 -11.5 -58t-32 -54
t-48.5 -42.5t-60 -21.5v30z" />
    <glyph glyph-name="less" unicode="&#x3c;" horiz-adv-x="494" 
d="M454 563v-58l-330 -123l330 -123v-58l-414 159v45z" />
    <glyph glyph-name="equal" unicode="=" horiz-adv-x="494" 
d="M454 512v-54h-414v54h414zM454 306v-53h-414v53h414z" />
    <glyph glyph-name="greater" unicode="&#x3e;" horiz-adv-x="494" 
d="M40 201v58l330 123l-330 123v58l414 -158v-45z" />
    <glyph glyph-name="question" unicode="?" horiz-adv-x="575" 
d="M216 352q41 8 68 17t43.5 23t23.5 34.5t7 51.5v110q0 41 -6 66t-16 39t-24 19t-29 5q-16 0 -29.5 -5t-24 -19t-16.5 -39t-6 -66v-21h-171v51q0 33 12.5 60t41.5 46.5t76 30.5t117 11q69 0 117.5 -11t78.5 -30.5t43.5 -46.5t13.5 -60v-153q-18 -17 -42.5 -33t-52 -29.5
t-56.5 -23.5t-56 -15l-21 -127h-76zM189 79q0 37 26 63t63 26q38 0 64 -26t26 -63t-26 -63t-64 -26q-37 0 -63 26t-26 63z" />
    <glyph glyph-name="at" unicode="@" horiz-adv-x="744" 
d="M377 10q-65 0 -93 24t-28 65v250q0 42 28 66t93 24h150v-35h-9q-10 0 -14 -4.5t-4 -17.5v-315q0 -13 4 -17.5t14 -4.5q42 0 67 5.5t38 29.5t17 74t4 139q0 95 -6 150.5t-29 83.5t-69 35.5t-126 7.5q-61 0 -104.5 -3.5t-73 -14.5t-47 -31.5t-26.5 -54t-12 -82.5t-3 -117
q0 -114 7.5 -184.5t31 -110.5t68 -54t119.5 -14q79 0 145.5 10t102.5 19v-110q-121 -28 -234 -28q-115 0 -184.5 28t-107 84.5t-49.5 141t-12 197.5q0 105 12 177.5t53 117t119 64t211 19.5q97 0 153.5 -13t85 -51t36 -108t7.5 -184q0 -77 -4.5 -126.5t-22.5 -79t-55 -41
t-103 -11.5h-150zM343 127q0 -47 10 -61.5t24 -14.5h20q9 0 12.5 7.5t3.5 17.5v297q0 10 -3.5 17t-12.5 7h-20q-14 0 -24 -14t-10 -61v-195z" />
    <glyph glyph-name="A" unicode="A" horiz-adv-x="671" 
d="M500 756v-38h-18q-38 0 -38 -29q0 -12 6 -34l151 -579q5 -18 11.5 -28t25.5 -10h19v-38h-239q-12 50 -34.5 84.5t-52.5 57.5t-66 37.5t-73 25.5l-58 -205h-120v38h19q26 0 38 38l178 579q6 22 6 33q0 30 -38 30h-19v38h302zM203 247q56 -14 103.5 -38t74.5 -52l-72 309
q-6 26 -22 26t-22 -25z" />
    <glyph glyph-name="A" unicode="a" horiz-adv-x="671" 
d="M500 756v-38h-18q-38 0 -38 -29q0 -12 6 -34l151 -579q5 -18 11.5 -28t25.5 -10h19v-38h-239q-12 50 -34.5 84.5t-52.5 57.5t-66 37.5t-73 25.5l-58 -205h-120v38h19q26 0 38 38l178 579q6 22 6 33q0 30 -38 30h-19v38h302zM203 247q56 -14 103.5 -38t74.5 -52l-72 309
q-6 26 -22 26t-22 -25z" />
    <glyph glyph-name="B" unicode="B" horiz-adv-x="657" 
d="M70 680q0 23 -8.5 30.5t-27.5 7.5h-20v38h320q70 0 119.5 -11t81 -31.5t46 -49t14.5 -64.5v-157q-77 0 -135.5 -16.5t-107.5 -44.5q49 -28 107.5 -44t135.5 -16v-166q0 -71 -61 -113.5t-200 -42.5h-320v38h20q19 0 27.5 7.5t8.5 30.5v604zM259 92q0 -17 7.5 -30t27.5 -13
h40q15 0 29 5t24 19.5t16 41t6 68.5v125q-23 11 -46 24.5t-43 28.5q-17 -12 -32 -23.5t-29 -25.5v-220zM259 452q14 -13 29 -25t32 -23q20 14 43 28t46 24v117q0 42 -6 68.5t-16 41t-24 19.5t-29 5h-40q-20 0 -27.5 -13t-7.5 -30v-212zM259 353q6 7 14 14t19 15
q-11 8 -19 15.5t-14 13.5v-58z" />
    <glyph glyph-name="B" unicode="b" horiz-adv-x="657" 
d="M70 680q0 23 -8.5 30.5t-27.5 7.5h-20v38h320q70 0 119.5 -11t81 -31.5t46 -49t14.5 -64.5v-157q-77 0 -135.5 -16.5t-107.5 -44.5q49 -28 107.5 -44t135.5 -16v-166q0 -71 -61 -113.5t-200 -42.5h-320v38h20q19 0 27.5 7.5t8.5 30.5v604zM259 92q0 -17 7.5 -30t27.5 -13
h40q15 0 29 5t24 19.5t16 41t6 68.5v125q-23 11 -46 24.5t-43 28.5q-17 -12 -32 -23.5t-29 -25.5v-220zM259 452q14 -13 29 -25t32 -23q20 14 43 28t46 24v117q0 42 -6 68.5t-16 41t-24 19.5t-29 5h-40q-20 0 -27.5 -13t-7.5 -30v-212zM259 353q6 7 14 14t19 15
q-11 8 -19 15.5t-14 13.5v-58z" />
    <glyph glyph-name="C" unicode="C" horiz-adv-x="597" 
d="M317 -10q-69 0 -118.5 11t-81 30.5t-46 46.5t-14.5 60v480q0 33 14.5 60t46 46.5t81 30.5t118.5 11q70 0 117 -11t76 -30.5t41.5 -46.5t12.5 -60v-51h-171v21q0 41 -6 66t-16.5 39t-24 19t-29.5 5q-15 0 -29 -5t-24 -19t-16 -39t-6 -66v-420q0 -41 6 -66t16 -39t24 -19
t29 -5q16 0 29.5 5t24 19t16.5 39t6 66v21h171v-51q0 -33 -12.5 -60t-41.5 -46.5t-76 -30.5t-117 -11z" />
    <glyph glyph-name="C" unicode="c" horiz-adv-x="597" 
d="M317 -10q-69 0 -118.5 11t-81 30.5t-46 46.5t-14.5 60v480q0 33 14.5 60t46 46.5t81 30.5t118.5 11q70 0 117 -11t76 -30.5t41.5 -46.5t12.5 -60v-51h-171v21q0 41 -6 66t-16.5 39t-24 19t-29.5 5q-15 0 -29 -5t-24 -19t-16 -39t-6 -66v-420q0 -41 6 -66t16 -39t24 -19
t29 -5q16 0 29.5 5t24 19t16.5 39t6 66v21h171v-51q0 -33 -12.5 -60t-41.5 -46.5t-76 -30.5t-117 -11z" />
    <glyph glyph-name="D" unicode="D" horiz-adv-x="651" 
d="M70 680q0 23 -8.5 30.5t-27.5 7.5h-20v38h320q70 0 119.5 -11t81 -31.5t46 -49t14.5 -64.5v-444q0 -71 -61 -113.5t-200 -42.5h-320v38h20q19 0 27.5 7.5t8.5 30.5v604zM409 573q0 42 -6 68.5t-16 41t-24 19.5t-29 5h-40q-20 0 -27.5 -13t-7.5 -30v-572q0 -17 7.5 -30
t27.5 -13h40q15 0 29 5t24 19.5t16 41t6 68.5v390z" />
    <glyph glyph-name="D" unicode="d" horiz-adv-x="651" 
d="M70 680q0 23 -8.5 30.5t-27.5 7.5h-20v38h320q70 0 119.5 -11t81 -31.5t46 -49t14.5 -64.5v-444q0 -71 -61 -113.5t-200 -42.5h-320v38h20q19 0 27.5 7.5t8.5 30.5v604zM409 573q0 42 -6 68.5t-16 41t-24 19.5t-29 5h-40q-20 0 -27.5 -13t-7.5 -30v-572q0 -17 7.5 -30
t27.5 -13h40q15 0 29 5t24 19.5t16 41t6 68.5v390z" />
    <glyph glyph-name="E" unicode="E" horiz-adv-x="609" 
d="M259 76h226q12 0 22.5 11t10.5 26v43h46v-156h-549v38h20q19 0 27.5 7.5t8.5 30.5v609q0 19 -9 26t-28 7h-20v38h546v-150h-46v40q0 15 -8.5 24.5t-24.5 9.5h-222v-230q29 -26 61 -47q76 56 134.5 76t107.5 20v-57q-37 -2 -90 -12t-119 -48q66 -37 119 -47.5t90 -11.5
v-58q-24 0 -51 4.5t-56.5 15.5t-63 29.5t-71.5 46.5q-15 -11 -30.5 -22t-30.5 -25v-238zM259 355q8 8 16 14.5t17 12.5q-9 6 -17 13l-16 14v-54z" />
    <glyph glyph-name="E" unicode="e" horiz-adv-x="609" 
d="M259 76h226q12 0 22.5 11t10.5 26v43h46v-156h-549v38h20q19 0 27.5 7.5t8.5 30.5v609q0 19 -9 26t-28 7h-20v38h546v-150h-46v40q0 15 -8.5 24.5t-24.5 9.5h-222v-230q29 -26 61 -47q76 56 134.5 76t107.5 20v-57q-37 -2 -90 -12t-119 -48q66 -37 119 -47.5t90 -11.5
v-58q-24 0 -51 4.5t-56.5 15.5t-63 29.5t-71.5 46.5q-15 -11 -30.5 -22t-30.5 -25v-238zM259 355q8 8 16 14.5t17 12.5q-9 6 -17 13l-16 14v-54z" />
    <glyph glyph-name="F" unicode="F" horiz-adv-x="602" 
d="M259 355q8 8 16 14.5t17 12.5q-9 6 -17 13l-16 14v-54zM560 756v-150h-46v40q0 15 -8.5 24.5t-24.5 9.5h-222v-230q29 -26 61 -47q76 56 134.5 76t107.5 20v-57q-37 -2 -90 -12t-119 -48q66 -37 119 -47.5t90 -11.5v-58q-24 0 -51 4.5t-56.5 15.5t-63 29.5t-71.5 46.5
q-15 -11 -30.5 -22t-30.5 -25v-238q0 -23 8.5 -30.5t27.5 -7.5h25v-38h-305v38h20q19 0 27.5 7.5t8.5 30.5v609q0 19 -9 26t-28 7h-20v38h546z" />
    <glyph glyph-name="F" unicode="f" horiz-adv-x="602" 
d="M259 355q8 8 16 14.5t17 12.5q-9 6 -17 13l-16 14v-54zM560 756v-150h-46v40q0 15 -8.5 24.5t-24.5 9.5h-222v-230q29 -26 61 -47q76 56 134.5 76t107.5 20v-57q-37 -2 -90 -12t-119 -48q66 -37 119 -47.5t90 -11.5v-58q-24 0 -51 4.5t-56.5 15.5t-63 29.5t-71.5 46.5
q-15 -11 -30.5 -22t-30.5 -25v-238q0 -23 8.5 -30.5t27.5 -7.5h25v-38h-305v38h20q19 0 27.5 7.5t8.5 30.5v609q0 19 -9 26t-28 7h-20v38h546z" />
    <glyph glyph-name="G" unicode="G" horiz-adv-x="600" 
d="M299 -10q-118 0 -180 41t-62 107v480q0 33 14.5 60t46 46.5t81 30.5t118.5 11q70 0 117 -11t76 -30.5t41.5 -46.5t12.5 -60v-51h-171v21q0 41 -6 66t-16.5 39t-24 19t-29.5 5q-15 0 -29 -5t-24 -19t-16 -39t-6 -66v-144q31 -28 65.5 -52t74 -41t84.5 -27t98 -10v-314h-46
v22q0 17 -24 17q-14 0 -26.5 -7.5t-32.5 -17t-52 -17t-84 -7.5zM393 299q-22 10 -44.5 23.5t-42.5 28t-36.5 28t-27.5 24.5v-235q0 -41 6 -66t16 -39t24 -19t29 -5q16 0 29.5 5t24 19t16.5 39t6 66v131z" />
    <glyph glyph-name="G" unicode="g" horiz-adv-x="600" 
d="M299 -10q-118 0 -180 41t-62 107v480q0 33 14.5 60t46 46.5t81 30.5t118.5 11q70 0 117 -11t76 -30.5t41.5 -46.5t12.5 -60v-51h-171v21q0 41 -6 66t-16.5 39t-24 19t-29.5 5q-15 0 -29 -5t-24 -19t-16 -39t-6 -66v-144q31 -28 65.5 -52t74 -41t84.5 -27t98 -10v-314h-46
v22q0 17 -24 17q-14 0 -26.5 -7.5t-32.5 -17t-52 -17t-84 -7.5zM393 299q-22 10 -44.5 23.5t-42.5 28t-36.5 28t-27.5 24.5v-235q0 -41 6 -66t16 -39t24 -19t29 -5q16 0 29.5 5t24 19t16.5 39t6 66v131z" />
    <glyph glyph-name="H" unicode="H" horiz-adv-x="674" 
d="M259 355l43 27l-43 27v-54zM415 409l-43 -27l43 -27v54zM259 314v-314h-245v38h20q19 0 28 7t9 26v614q0 19 -9 26t-28 7h-20v38h245v-306l78 -50l78 50v306h245v-38h-20q-19 0 -28 -7t-9 -26v-614q0 -19 9 -26t28 -7h20v-38h-245v314l-78 51z" />
    <glyph glyph-name="H" unicode="h" horiz-adv-x="674" 
d="M259 355l43 27l-43 27v-54zM415 409l-43 -27l43 -27v54zM259 314v-314h-245v38h20q19 0 28 7t9 26v614q0 19 -9 26t-28 7h-20v38h245v-306l78 -50l78 50v306h245v-38h-20q-19 0 -28 -7t-9 -26v-614q0 -19 9 -26t28 -7h20v-38h-245v314l-78 51z" />
    <glyph glyph-name="I" unicode="I" horiz-adv-x="331" 
d="M15 0v38h20q19 0 27.5 7.5t8.5 30.5v609q0 19 -9 26t-28 7h-20v38h302v-38h-19q-19 0 -28 -7t-9 -26v-609q0 -23 8.5 -30.5t27.5 -7.5h19v-38h-300z" />
    <glyph glyph-name="I" unicode="i" horiz-adv-x="331" 
d="M15 0v38h20q19 0 27.5 7.5t8.5 30.5v609q0 19 -9 26t-28 7h-20v38h302v-38h-19q-19 0 -28 -7t-9 -26v-609q0 -23 8.5 -30.5t27.5 -7.5h19v-38h-300z" />
    <glyph glyph-name="J" unicode="J" horiz-adv-x="589" 
d="M574 756v-38h-19q-19 0 -28 -7t-9 -26v-547q0 -33 -14.5 -60t-46 -46.5t-81 -30.5t-119.5 -11t-117 11t-76 30.5t-41.5 46.5t-12.5 60v51h171v-21q0 -41 6 -66t16.5 -39t24.5 -19t29 -5t29 5t24 19t16 39t6 66v588h242z" />
    <glyph glyph-name="J" unicode="j" horiz-adv-x="589" 
d="M574 756v-38h-19q-19 0 -28 -7t-9 -26v-547q0 -33 -14.5 -60t-46 -46.5t-81 -30.5t-119.5 -11t-117 11t-76 30.5t-41.5 46.5t-12.5 60v51h171v-21q0 -41 6 -66t16.5 -39t24.5 -19t29 -5t29 5t24 19t16 39t6 66v588h242z" />
    <glyph glyph-name="K" unicode="K" 
d="M259 353q6 7 14 14t19 15q-11 8 -19 15.5t-14 13.5v-58zM259 452q14 -13 29 -25t32 -23q20 14 42.5 28t46.5 24v213q0 87 81 87h161v-38h-19q-19 0 -28 -7t-9 -26v-242q-78 0 -135.5 -16.5t-107.5 -44.5q50 -28 107.5 -44t135.5 -16v-251q0 -19 9 -26t28 -7h19v-38h-161
q-81 0 -81 87v221q-24 11 -46.5 24.5t-42.5 28.5q-17 -12 -32 -24t-29 -25v-312h-245v38h20q19 0 27.5 7.5t8.5 30.5v604q0 23 -8.5 30.5t-27.5 7.5h-20v38h245v-304z" />
    <glyph glyph-name="K" unicode="k" 
d="M259 353q6 7 14 14t19 15q-11 8 -19 15.5t-14 13.5v-58zM259 452q14 -13 29 -25t32 -23q20 14 42.5 28t46.5 24v213q0 87 81 87h161v-38h-19q-19 0 -28 -7t-9 -26v-242q-78 0 -135.5 -16.5t-107.5 -44.5q50 -28 107.5 -44t135.5 -16v-251q0 -19 9 -26t28 -7h19v-38h-161
q-81 0 -81 87v221q-24 11 -46.5 24.5t-42.5 28.5q-17 -12 -32 -24t-29 -25v-312h-245v38h20q19 0 27.5 7.5t8.5 30.5v604q0 23 -8.5 30.5t-27.5 7.5h-20v38h245v-304z" />
    <glyph glyph-name="L" unicode="L" horiz-adv-x="591" 
d="M259 92q0 -17 7.5 -30t27.5 -13h40q15 0 29 5t24.5 19t16.5 39.5t6 66.5v10h170v-41q0 -32 -12.5 -59.5t-41 -47t-75.5 -30.5t-117 -11h-320v38h20q19 0 27.5 7.5t8.5 30.5v604q0 23 -8.5 30.5t-27.5 7.5h-20v38h245v-664z" />
    <glyph glyph-name="L" unicode="l" horiz-adv-x="591" 
d="M259 92q0 -17 7.5 -30t27.5 -13h40q15 0 29 5t24.5 19t16.5 39.5t6 66.5v10h170v-41q0 -32 -12.5 -59.5t-41 -47t-75.5 -30.5t-117 -11h-320v38h20q19 0 27.5 7.5t8.5 30.5v604q0 23 -8.5 30.5t-27.5 7.5h-20v38h245v-664z" />
    <glyph glyph-name="M" unicode="M" horiz-adv-x="880" 
d="M479 0h-140l-111 448q-5 19 -9.5 25.5t-10.5 6.5q-7 0 -10.5 -7.5t-3.5 -27.5v-369q0 -23 8.5 -30.5t27.5 -7.5h20v-38h-235v38h20q19 0 27.5 7.5t8.5 30.5v609q0 19 -9 26t-28 7h-20v38h325l108 -461q9 -39 25 -39t28 39l148 461h208v-38h-20q-18 0 -27.5 -7t-9.5 -26
v-609q0 -23 9 -30.5t27 -7.5h20v-38h-252v38h20q18 0 27 7.5t9 30.5v369q0 20 -4 27.5t-10 7.5t-10.5 -6.5t-9.5 -25.5z" />
    <glyph glyph-name="M" unicode="m" horiz-adv-x="880" 
d="M479 0h-140l-111 448q-5 19 -9.5 25.5t-10.5 6.5q-7 0 -10.5 -7.5t-3.5 -27.5v-369q0 -23 8.5 -30.5t27.5 -7.5h20v-38h-235v38h20q19 0 27.5 7.5t8.5 30.5v609q0 19 -9 26t-28 7h-20v38h325l108 -461q9 -39 25 -39t28 39l148 461h208v-38h-20q-18 0 -27.5 -7t-9.5 -26
v-609q0 -23 9 -30.5t27 -7.5h20v-38h-252v38h20q18 0 27 7.5t9 30.5v369q0 20 -4 27.5t-10 7.5t-10.5 -6.5t-9.5 -25.5z" />
    <glyph glyph-name="N" unicode="N" 
d="M34 38q20 0 28 7t8 26v609q0 23 -8.5 30.5t-27.5 7.5h-20v38h320q70 0 119.5 -11t81 -31.5t46 -49t14.5 -64.5v-529q0 -19 9 -26t28 -7h19v-38h-242v573q0 42 -6 68.5t-16 41t-24 19.5t-29 5h-40q-20 0 -27.5 -13t-7.5 -30v-664h-245v38h20v0z" />
    <glyph glyph-name="N" unicode="n" 
d="M34 38q20 0 28 7t8 26v609q0 23 -8.5 30.5t-27.5 7.5h-20v38h320q70 0 119.5 -11t81 -31.5t46 -49t14.5 -64.5v-529q0 -19 9 -26t28 -7h19v-38h-242v573q0 42 -6 68.5t-16 41t-24 19.5t-29 5h-40q-20 0 -27.5 -13t-7.5 -30v-664h-245v38h20v0z" />
    <glyph glyph-name="O" unicode="O" horiz-adv-x="635" 
d="M317 39q16 0 29.5 5t23.5 19t16 39t6 66v420q0 41 -6 66t-16 39t-23.5 19t-29.5 5q-15 0 -29 -5t-24 -19t-16 -39t-6 -66v-420q0 -41 6 -66t16 -39t24 -19t29 -5zM317 -10q-69 0 -118.5 11t-81 30.5t-46 46.5t-14.5 60v480q0 33 14.5 60t46 46.5t81 30.5t118.5 11
q70 0 119.5 -11t81 -30.5t46 -46.5t14.5 -60v-480q0 -33 -14.5 -60t-46 -46.5t-81 -30.5t-119.5 -11z" />
    <glyph glyph-name="O" unicode="o" horiz-adv-x="635" 
d="M317 39q16 0 29.5 5t23.5 19t16 39t6 66v420q0 41 -6 66t-16 39t-23.5 19t-29.5 5q-15 0 -29 -5t-24 -19t-16 -39t-6 -66v-420q0 -41 6 -66t16 -39t24 -19t29 -5zM317 -10q-69 0 -118.5 11t-81 30.5t-46 46.5t-14.5 60v480q0 33 14.5 60t46 46.5t81 30.5t118.5 11
q70 0 119.5 -11t81 -30.5t46 -46.5t14.5 -60v-480q0 -33 -14.5 -60t-46 -46.5t-81 -30.5t-119.5 -11z" />
    <glyph glyph-name="P" unicode="P" horiz-adv-x="613" 
d="M259 353q15 15 33 29.5t37.5 28t39.5 25.5t40 20v117q0 42 -6 68.5t-16 41t-24 19.5t-29 5h-40q-20 0 -27.5 -13t-7.5 -30v-311zM14 0v38h20q19 0 27.5 7.5t8.5 30.5v604q0 23 -8.5 30.5t-27.5 7.5h-20v38h320q70 0 119.5 -11t81 -31.5t46 -49t14.5 -64.5v-157
q-54 0 -100.5 -9t-87.5 -25.5t-77.5 -41t-70.5 -55.5v-236q0 -23 8.5 -30.5t27.5 -7.5h28v-38h-309z" />
    <glyph glyph-name="P" unicode="p" horiz-adv-x="613" 
d="M259 353q15 15 33 29.5t37.5 28t39.5 25.5t40 20v117q0 42 -6 68.5t-16 41t-24 19.5t-29 5h-40q-20 0 -27.5 -13t-7.5 -30v-311zM14 0v38h20q19 0 27.5 7.5t8.5 30.5v604q0 23 -8.5 30.5t-27.5 7.5h-20v38h320q70 0 119.5 -11t81 -31.5t46 -49t14.5 -64.5v-157
q-54 0 -100.5 -9t-87.5 -25.5t-77.5 -41t-70.5 -55.5v-236q0 -23 8.5 -30.5t27.5 -7.5h28v-38h-309z" />
    <glyph glyph-name="Q" unicode="Q" horiz-adv-x="635" 
d="M317 -10q-69 0 -118.5 11t-81 30.5t-46 46.5t-14.5 60v480q0 33 14.5 60t46 46.5t81 30.5t118.5 11q70 0 119.5 -11t81 -30.5t46 -46.5t14.5 -60v-480q0 -56 -40 -92q23 -5 42.5 -6.5t36.5 -1.5v-66q-35 0 -73 8t-83 27q-29 -8 -64 -12.5t-80 -4.5zM242 220
q38 -44 71.5 -72t71.5 -48q3 13 5 30t2 38v420q0 41 -6 66t-16 39t-23.5 19t-29.5 5q-15 0 -29 -5t-24 -19t-16 -39t-6 -66v-368zM323 39q12 0 23.5 4t21.5 17q-29 20 -64 50t-62 65q2 -74 24 -105t57 -31z" />
    <glyph glyph-name="Q" unicode="q" horiz-adv-x="635" 
d="M317 -10q-69 0 -118.5 11t-81 30.5t-46 46.5t-14.5 60v480q0 33 14.5 60t46 46.5t81 30.5t118.5 11q70 0 119.5 -11t81 -30.5t46 -46.5t14.5 -60v-480q0 -56 -40 -92q23 -5 42.5 -6.5t36.5 -1.5v-66q-35 0 -73 8t-83 27q-29 -8 -64 -12.5t-80 -4.5zM242 220
q38 -44 71.5 -72t71.5 -48q3 13 5 30t2 38v420q0 41 -6 66t-16 39t-23.5 19t-29.5 5q-15 0 -29 -5t-24 -19t-16 -39t-6 -66v-368zM323 39q12 0 23.5 4t21.5 17q-29 20 -64 50t-62 65q2 -74 24 -105t57 -31z" />
    <glyph glyph-name="R" unicode="R" 
d="M595 443q-78 0 -135.5 -16.5t-107.5 -44.5q50 -28 107.5 -44t135.5 -16v-251q0 -19 9 -26t28 -7h19v-38h-161q-81 0 -81 87v221q-24 11 -46.5 24.5t-42.5 28.5q-17 -12 -32 -24t-29 -25v-312h-245v38h20q19 0 27.5 7.5t8.5 30.5v604q0 23 -8.5 30.5t-27.5 7.5h-20v38h320
q70 0 119.5 -11t81 -31.5t46 -49t14.5 -64.5v-157zM409 573q0 42 -6 68.5t-16 41t-24 19.5t-29 5h-40q-20 0 -27.5 -13t-7.5 -30v-212q14 -13 29 -25t32 -23q20 14 42.5 28t46.5 24v117zM259 353q6 7 14 14t19 15q-11 8 -19 15.5t-14 13.5v-58z" />
    <glyph glyph-name="R" unicode="r" 
d="M595 443q-78 0 -135.5 -16.5t-107.5 -44.5q50 -28 107.5 -44t135.5 -16v-251q0 -19 9 -26t28 -7h19v-38h-161q-81 0 -81 87v221q-24 11 -46.5 24.5t-42.5 28.5q-17 -12 -32 -24t-29 -25v-312h-245v38h20q19 0 27.5 7.5t8.5 30.5v604q0 23 -8.5 30.5t-27.5 7.5h-20v38h320
q70 0 119.5 -11t81 -31.5t46 -49t14.5 -64.5v-157zM409 573q0 42 -6 68.5t-16 41t-24 19.5t-29 5h-40q-20 0 -27.5 -13t-7.5 -30v-212q14 -13 29 -25t32 -23q20 14 42.5 28t46.5 24v117zM259 353q6 7 14 14t19 15q-11 8 -19 15.5t-14 13.5v-58z" />
    <glyph glyph-name="S" unicode="S" horiz-adv-x="633" 
d="M576 138q0 -33 -15.5 -60t-48 -46.5t-83 -30.5t-120.5 -11t-118 11t-78 30.5t-43 46.5t-13 60v51h172v-21q0 -41 6.5 -66t18 -39t26 -19t29.5 -5t30 5t27 19t19 39t7 66v145q-31 14 -62 33.5t-59 33.5q-88 46 -212 46v192q0 33 14.5 60t45.5 46.5t80 30.5t118 11
q70 0 117 -11t76 -30.5t41.5 -46.5t12.5 -60v-51h-171v21q0 41 -6 66t-16.5 39t-24 19t-29.5 5q-15 0 -29 -5t-24 -19t-16 -39t-6 -66v-148q32 -14 61.5 -33.5t58.5 -33.5q45 -23 99 -34.5t115 -11.5v-189z" />
    <glyph glyph-name="S" unicode="s" horiz-adv-x="633" 
d="M576 138q0 -33 -15.5 -60t-48 -46.5t-83 -30.5t-120.5 -11t-118 11t-78 30.5t-43 46.5t-13 60v51h172v-21q0 -41 6.5 -66t18 -39t26 -19t29.5 -5t30 5t27 19t19 39t7 66v145q-31 14 -62 33.5t-59 33.5q-88 46 -212 46v192q0 33 14.5 60t45.5 46.5t80 30.5t118 11
q70 0 117 -11t76 -30.5t41.5 -46.5t12.5 -60v-51h-171v21q0 41 -6 66t-16.5 39t-24 19t-29.5 5q-15 0 -29 -5t-24 -19t-16 -39t-6 -66v-148q32 -14 61.5 -33.5t58.5 -33.5q45 -23 99 -34.5t115 -11.5v-189z" />
    <glyph glyph-name="T" unicode="T" horiz-adv-x="613" 
d="M603 756v-150h-46v40q0 15 -8 24.5t-25 9.5h-123v-604q0 -23 8.5 -30.5t27.5 -7.5h24v-38h-304v38h20q18 0 27 7.5t9 30.5v604h-124q-16 0 -24 -9.5t-8 -24.5v-40h-47v150h593z" />
    <glyph glyph-name="T" unicode="t" horiz-adv-x="613" 
d="M603 756v-150h-46v40q0 15 -8 24.5t-25 9.5h-123v-604q0 -23 8.5 -30.5t27.5 -7.5h24v-38h-304v38h20q18 0 27 7.5t9 30.5v604h-124q-16 0 -24 -9.5t-8 -24.5v-40h-47v150h593z" />
    <glyph glyph-name="U" unicode="U" 
d="M651 756v-38h-19q-20 0 -28 -7t-8 -26v-609q0 -23 8.5 -30.5t27.5 -7.5h19v-38h-319q-70 0 -119.5 11t-81 31.5t-46 49.5t-14.5 64v529q0 19 -9 26t-28 7h-20v38h243v-573q0 -42 6 -68.5t16 -41t24 -19.5t29 -5h40q20 0 27.5 13t7.5 30v664h244z" />
    <glyph glyph-name="U" unicode="u" 
d="M651 756v-38h-19q-20 0 -28 -7t-8 -26v-609q0 -23 8.5 -30.5t27.5 -7.5h19v-38h-319q-70 0 -119.5 11t-81 31.5t-46 49.5t-14.5 64v529q0 19 -9 26t-28 7h-20v38h243v-573q0 -42 6 -68.5t16 -41t24 -19.5t29 -5h40q20 0 27.5 13t7.5 30v664h244z" />
    <glyph glyph-name="V" unicode="V" horiz-adv-x="671" 
d="M657 718h-19q-26 0 -38 -38l-208 -680h-145l-177 680q-10 38 -37 38h-19v38h239l107 -458q7 -32 25 -32q19 0 27 31l133 459h112v-38z" />
    <glyph glyph-name="V" unicode="v" horiz-adv-x="671" 
d="M657 718h-19q-26 0 -38 -38l-208 -680h-145l-177 680q-10 38 -37 38h-19v38h239l107 -458q7 -32 25 -32q19 0 27 31l133 459h112v-38z" />
    <glyph glyph-name="W" unicode="W" horiz-adv-x="998" 
d="M983 718h-17q-25 0 -35 -38l-188 -680h-153l-78 326q-3 12 -9 18.5t-12 6.5q-15 0 -21 -25l-92 -326h-153l-159 680q-9 38 -34 38h-18v38h234l99 -480q2 -11 8 -16.5t12 -5.5q15 0 21 21l73 240l-41 165q-9 38 -34 38h-17v38h233l108 -480q2 -11 7.5 -16.5t11.5 -5.5
q14 0 20 22l124 480h110v-38z" />
    <glyph glyph-name="W" unicode="w" horiz-adv-x="998" 
d="M983 718h-17q-25 0 -35 -38l-188 -680h-153l-78 326q-3 12 -9 18.5t-12 6.5q-15 0 -21 -25l-92 -326h-153l-159 680q-9 38 -34 38h-18v38h234l99 -480q2 -11 8 -16.5t12 -5.5q15 0 21 21l73 240l-41 165q-9 38 -34 38h-17v38h233l108 -480q2 -11 7.5 -16.5t11.5 -5.5
q14 0 20 22l124 480h110v-38z" />
    <glyph glyph-name="X" unicode="X" horiz-adv-x="670" 
d="M257 314v-227q0 -87 -81 -87h-162v38h20q19 0 28 7t9 26v251q39 0 71 4t60.5 12t54 19t50.5 25q-25 14 -50.5 25t-54 19t-60.5 12.5t-71 4.5v242q0 19 -9 26t-28 7h-20v38h162q81 0 81 -87v-219l78 -50l78 50v219q0 87 81 87h161v-38h-19q-19 0 -28 -7t-9 -26v-242
q-77 0 -132 -16.5t-104 -44.5q49 -28 104 -44t132 -16v-251q0 -19 9 -26t28 -7h19v-38h-161q-81 0 -81 87v227l-78 50z" />
    <glyph glyph-name="X" unicode="x" horiz-adv-x="670" 
d="M257 314v-227q0 -87 -81 -87h-162v38h20q19 0 28 7t9 26v251q39 0 71 4t60.5 12t54 19t50.5 25q-25 14 -50.5 25t-54 19t-60.5 12.5t-71 4.5v242q0 19 -9 26t-28 7h-20v38h162q81 0 81 -87v-219l78 -50l78 50v219q0 87 81 87h161v-38h-19q-19 0 -28 -7t-9 -26v-242
q-77 0 -132 -16.5t-104 -44.5q49 -28 104 -44t132 -16v-251q0 -19 9 -26t28 -7h19v-38h-161q-81 0 -81 87v227l-78 50z" />
    <glyph glyph-name="Y" unicode="Y" horiz-adv-x="668" 
d="M653 718h-18q-14 0 -22.5 -8t-19.5 -30l-176 -340v-264q0 -23 8.5 -30.5t27.5 -7.5h25v-38h-304v38h19q19 0 27.5 7.5t8.5 30.5v252l-154 352q-9 21 -18.5 29.5t-23.5 8.5h-19v38h234l112 -271q8 -24 23 -24q16 0 27 24l141 271h102v-38z" />
    <glyph glyph-name="Y" unicode="y" horiz-adv-x="668" 
d="M653 718h-18q-14 0 -22.5 -8t-19.5 -30l-176 -340v-264q0 -23 8.5 -30.5t27.5 -7.5h25v-38h-304v38h19q19 0 27.5 7.5t8.5 30.5v252l-154 352q-9 21 -18.5 29.5t-23.5 8.5h-19v38h234l112 -271q8 -24 23 -24q16 0 27 24l141 271h102v-38z" />
    <glyph glyph-name="Z" unicode="Z" horiz-adv-x="533" 
d="M237 124q-7 -13 -7 -24q0 -12 8 -20t25 -8h171q16 0 24 9.5t8 24.5v44h47v-150h-492v80l278 554q7 13 7 24q0 12 -8.5 20t-24.5 8h-173q-17 0 -25 -9.5t-8 -24.5v-46h-46v150h492v-66z" />
    <glyph glyph-name="Z" unicode="z" horiz-adv-x="533" 
d="M237 124q-7 -13 -7 -24q0 -12 8 -20t25 -8h171q16 0 24 9.5t8 24.5v44h47v-150h-492v80l278 554q7 13 7 24q0 12 -8.5 20t-24.5 8h-173q-17 0 -25 -9.5t-8 -24.5v-46h-46v150h492v-66z" />
    <glyph glyph-name="bracketleft" unicode="[" horiz-adv-x="337" 
d="M87 923h235v-54h-150v-1021h150v-53h-235v1128z" />
    <glyph glyph-name="backslash" unicode="\" horiz-adv-x="399" 
d="M399 -134h-64l-335 985h64z" />
    <glyph glyph-name="bracketright" unicode="]" horiz-adv-x="337" 
d="M250 923v-1128h-235v53h150v1021h-150v54h235z" />
    <glyph glyph-name="asciicircum" unicode="^" horiz-adv-x="414" 
d="M178 756h45l158 -414h-57l-124 330l-123 -330h-57z" />
    <glyph glyph-name="underscore" unicode="_" horiz-adv-x="517" 
d="M-2 -49h521v-54h-521v54z" />
    <glyph glyph-name="grave" unicode="`" horiz-adv-x="263" 
d="M0 993h144l119 -205h-116z" />
    <glyph glyph-name="braceleft" unicode="{" horiz-adv-x="337" 
d="M194 354q32 -10 47 -36.5t15 -85.5v-313q0 -31 18.5 -49.5t47.5 -21.5v-53q-32 2 -59.5 7.5t-47.5 19t-31.5 36.5t-11.5 59v315q0 36 -6.5 57t-21 32t-37 14t-53.5 3v41q31 0 53.5 3t37 14t21 32t6.5 57v315q0 36 11.5 59t31.5 36.5t47.5 19.5t59.5 8v-54
q-29 -3 -47.5 -21.5t-18.5 -49.5v-313q0 -59 -15 -85.5t-47 -36.5v-9z" />
    <glyph glyph-name="bar" unicode="|" horiz-adv-x="259" 
d="M87 851h85v-985h-85v985z" />
    <glyph glyph-name="braceright" unicode="}" horiz-adv-x="337" 
d="M143 363q-32 10 -47 36.5t-15 85.5v313q0 31 -18.5 49.5t-47.5 21.5v54q32 -2 59.5 -8t47.5 -19.5t31.5 -36.5t11.5 -59v-315q0 -36 6.5 -57t21 -32t36.5 -14t54 -3v-41q-32 0 -54 -3t-36.5 -14t-21 -32t-6.5 -57v-315q0 -36 -11.5 -59t-31.5 -36.5t-47.5 -19t-59.5 -7.5
v53q29 3 47.5 21.5t18.5 49.5v313q0 59 15 85.5t47 36.5v9z" />
    <glyph glyph-name="exclamdown" unicode="&#xa1;" horiz-adv-x="275" 
d="M227 527q0 -37 -26 -63t-64 -26q-37 0 -63 26t-26 63t26 63t63 26q38 0 64 -26t26 -63zM137 -160q-52 0 -74 17t-22 62q0 11 1.5 26t3.5 33l53 391h76l54 -391q2 -18 3.5 -33t1.5 -26q0 -45 -22.5 -62t-74.5 -17z" />
    <glyph glyph-name="cent" unicode="&#xa2;" horiz-adv-x="615" 
d="M298 0v51q-65 1 -110.5 13t-74.5 31.5t-42.5 46t-13.5 57.5v358q0 31 13.5 57.5t42.5 46t74.5 31t110.5 13.5v52h37v-52q64 -2 108 -13.5t71 -31t38.5 -46t11.5 -57.5v-52h-171v21q0 34 -4.5 57.5t-12 38t-18.5 22t-23 9.5v-551q12 2 23 9.5t18.5 22t12 38t4.5 58.5v21
h171v-52q0 -32 -11.5 -58.5t-38.5 -46t-71 -31t-108 -12.5v-51h-37zM242 230q0 -68 16 -95t40 -32v550q-24 -5 -40 -32.5t-16 -94.5v-296z" />
    <glyph glyph-name="sterling" unicode="&#xa3;" horiz-adv-x="616" 
d="M256 76h226q12 0 22.5 11t10.5 26v43h46v-156h-547v38h20q19 0 27.5 7.5t8.5 30.5v542q0 33 14.5 60t46 46.5t81 30.5t119.5 11t117 -11t75.5 -30.5t41 -46.5t12.5 -60v-51h-170v21q0 41 -6 66t-16.5 39t-24.5 19t-29 5t-29 -5t-24 -19t-16 -39t-6 -66v-138
q15 -14 30.5 -25.5t29.5 -21.5q76 56 135 76t108 20v-57q-37 -2 -90 -12t-119 -48q66 -37 119 -47.5t90 -11.5v-58q-49 0 -108 20t-135 76q-14 -11 -29.5 -22t-30.5 -25v-238zM256 355q8 8 16 14.5t17 12.5q-9 6 -17 13l-16 14v-54z" />
    <glyph glyph-name="yen" unicode="&#xa5;" horiz-adv-x="668" 
d="M224 340l-149 340q-9 21 -18.5 29.5t-23.5 8.5h-19v38h234l112 -271q8 -24 23 -24q16 0 27 24l141 271h102v-38h-18q-14 0 -22.5 -8t-19.5 -30l-176 -340h156v-53h-156v-84h156v-53h-156v-74q0 -23 8.5 -30.5t27.5 -7.5h25v-38h-304v38h19q19 0 27.5 7.5t8.5 30.5v74
h-152v53h152v84h-152v53h147z" />
    <glyph glyph-name="dieresis" unicode="&#xa8;" horiz-adv-x="412" 
d="M241 889q0 32 22 54.5t54 22.5q33 0 55.5 -22.5t22.5 -54.5t-22.5 -54t-55.5 -22q-32 0 -54 22t-22 54zM15 889q0 32 22 54.5t54 22.5q33 0 55 -22.5t22 -54.5t-22 -54t-55 -22q-32 0 -54 22t-22 54z" />
    <glyph glyph-name="copyright" unicode="&#xa9;" horiz-adv-x="635" 
d="M317 -10q-69 0 -118.5 11t-81 30.5t-46 46.5t-14.5 60v480q0 33 14.5 60t46 46.5t81 30.5t118.5 11q70 0 119.5 -11t81 -30.5t46 -46.5t14.5 -60v-480q0 -33 -14.5 -60t-46 -46.5t-81 -30.5t-119.5 -11zM317 31q118 0 169 30t51 77v480q0 47 -51 77t-169 30
q-117 0 -168 -30t-51 -77v-480q0 -47 51 -77t168 -30zM324 164q-78 0 -111 23.5t-33 59.5v265q0 35 33 58t111 23q38 0 64 -6t41.5 -17t22.5 -25.5t7 -32.5v-29h-93v12q0 45 -12.5 58t-29.5 13t-29 -13t-12 -58v-232q0 -45 12 -58t29 -13t29.5 13t12.5 58v11h93v-27
q0 -18 -7 -33t-22.5 -26.5t-41.5 -17.5t-64 -6z" />
    <glyph glyph-name="ordfeminine" unicode="&#xaa;" horiz-adv-x="410" 
d="M299 760v-42q-16 0 -20.5 -4.5t-4.5 -15.5v-5t2 -8l72 -282q4 -16 9.5 -21t22.5 -5v-41h-141q-6 25 -16.5 43t-24 30.5t-29 20.5t-32.5 13l-30 -107h-80v41q17 0 23 5.5t11 20.5l85 284q3 9 3 14q0 17 -27 17v42h177zM178 598l-31 -113q18 -5 35.5 -13.5t29.5 -19.5z
M29 286h351v-54h-351v54z" />
    <glyph glyph-name="guillemotleft" unicode="&#xab;" horiz-adv-x="354" 
d="M8 0zM105 563h63l-96 -281l96 -282h-63l-97 282zM282 563h63l-96 -281l96 -282h-63l-97 282z" />
    <glyph glyph-name="registered" unicode="&#xae;" horiz-adv-x="488" 
d="M245 323q-108 0 -155.5 32t-47.5 82v215q0 50 47.5 82t155.5 32q107 0 154 -32t47 -82v-215q0 -50 -47 -82t-154 -32zM245 354q90 0 129.5 23t39.5 60v215q0 37 -39.5 60t-129.5 23q-92 0 -131.5 -23t-39.5 -60v-215q0 -37 39.5 -60t131.5 -23zM361 566q-33 0 -57 -6.5
t-45 -19.5q21 -11 45 -18t57 -7v-50q0 -14 14 -14h9v-15h-68q-33 0 -33 37v37q-11 4 -20 9.5t-17 12.5q-17 -12 -26 -21v-75h-102v15h8q16 0 16 16v169q0 16 -16 16h-8v16h134q58 0 83.5 -18.5t25.5 -47.5v-36zM283 591q0 35 -9 45.5t-22 10.5h-18q-8 0 -11 -5t-3 -13v-59
l12 -10t14 -10q8 6 17 11.5t20 9.5v20zM220 529l14 11q-10 10 -14 13v-24z" />
    <glyph glyph-name="macron" unicode="&#xaf;" horiz-adv-x="524" 
d="M25 927h473v-74h-473v74z" />
    <glyph glyph-name="degree" unicode="&#xb0;" horiz-adv-x="418" 
d="M44 598q0 35 13 65.5t36 53.5t54 36t66 13t65.5 -13t53.5 -36t36 -53.5t13 -65.5t-13 -66t-36 -54t-53.5 -36t-65.5 -13t-66 13t-54 36t-36 54t-13 66zM105 598q0 -23 8.5 -42.5t23 -34t34 -23t42.5 -8.5q22 0 41.5 8.5t34.5 23t23.5 34t8.5 42.5q0 22 -8.5 42
t-23.5 34.5t-34.5 23t-41.5 8.5q-23 0 -42.5 -8.5t-34 -23t-23 -34.5t-8.5 -42z" />
    <glyph glyph-name="twosuperior" unicode="&#xb2;" horiz-adv-x="385" 
d="M18 335zM341 449v-28q0 -38 -32 -62t-111 -24h-180v32h17q13 0 13 15v142q73 0 116 22q14 8 31.5 18.5t33.5 17.5v77q0 40 -10 52t-25 12q-14 0 -24.5 -12t-10.5 -52v-17h-104v34q0 19 7 34.5t23 27t43 17.5t66 6q79 0 112.5 -23.5t33.5 -61.5v-111q-17 0 -34 -2
t-37.5 -8.5t-46.5 -18t-62 -30.5v-115q0 -18 13 -18h25q15 0 26.5 12t11.5 52v12h105z" />
    <glyph glyph-name="threesuperior" unicode="&#xb3;" horiz-adv-x="364" 
d="M34 329zM208 507l-42 23q-29 -20 -57.5 -34t-68.5 -18v44q29 2 52 8.5t43 17.5q-20 11 -43 17.5t-52 8.5v43q41 -2 69.5 -17.5t56.5 -33.5l42 23v70q0 40 -10.5 52t-24.5 12t-24.5 -12t-10.5 -52v-17h-104v34q0 19 7 34.5t23 27t42.5 17.5t66.5 6q79 0 113 -23.5
t34 -61.5v-101q-40 0 -70.5 -8t-55.5 -19q25 -12 55.5 -19.5t70.5 -7.5v-105q0 -38 -34 -62.5t-113 -24.5q-40 0 -66.5 6.5t-42.5 18t-23 27.5t-7 35v33h104v-18q0 -40 10.5 -52t24.5 -12t24.5 12t10.5 52v76z" />
    <glyph glyph-name="acute" unicode="&#xb4;" horiz-adv-x="263" 
d="M116 788h-116l119 205h144z" />
    <glyph glyph-name="periodcentered" unicode="&#xb7;" horiz-adv-x="228" 
d="M25 292zM25 381q0 37 26 63t63 26t63 -26t26 -63t-26 -63t-63 -26t-63 26t-26 63z" />
    <glyph glyph-name="cedilla" unicode="&#xb8;" horiz-adv-x="198" 
d="M116 -207h-116l54 173h144z" />
    <glyph glyph-name="onesuperior" unicode="&#xb9;" horiz-adv-x="212" 
d="M18 335zM18 335v32h16q14 0 14 15v330q0 12 -14 12h-16v32h144v-374q0 -15 14 -15h16v-32h-174z" />
    <glyph glyph-name="ordmasculine" unicode="&#xba;" horiz-adv-x="410" 
d="M205 331q-78 0 -111.5 24.5t-33.5 64.5v256q0 40 33.5 64.5t111.5 24.5t111.5 -24.5t33.5 -64.5v-256q0 -40 -33.5 -64.5t-111.5 -24.5zM206 378q11 0 19 10.5t8 47.5v223q0 38 -8 48.5t-19 10.5q-12 0 -20.5 -10.5t-8.5 -48.5v-223q0 -37 8.5 -47.5t20.5 -10.5zM29 286
h351v-54h-351v54z" />
    <glyph glyph-name="guillemotright" unicode="&#xbb;" horiz-adv-x="354" 
d="M8 0zM168 282l-96 -282h-64l97 282l-97 281h64zM345 282l-96 -282h-64l97 282l-97 281h64z" />
    <glyph glyph-name="onequarter" unicode="&#xbc;" horiz-adv-x="896" 
d="M57 0zM91 335v32h16q14 0 14 15v330q0 12 -14 12h-16v32h144v-374q0 -15 14 -15h16v-32h-174zM645 756h64l-588 -756h-64zM509 377q0 12 -14 12h-17v32h145v-227q15 6 36 18t35 24v185h145v-32h-17q-14 0 -14 -12v-330q0 -15 13 -15h17v-32h-175v32h17q14 0 14 15v150
q-18 -14 -36.5 -25t-40.5 -18.5t-48 -12.5t-60 -8v244z" />
    <glyph glyph-name="onehalf" unicode="&#xbd;" horiz-adv-x="808" 
d="M57 0zM91 335v32h16q14 0 14 15v330q0 12 -14 12h-16v32h144v-374q0 -15 14 -15h16v-32h-174zM645 756h64l-588 -756h-64zM751 114v-28q0 -38 -32 -62t-111 -24h-180v32h17q13 0 13 15v142q73 0 116 22q14 8 31.5 18.5t33.5 17.5v77q0 40 -10 52t-25 12q-14 0 -24.5 -12
t-10.5 -52v-17h-104v34q0 19 7 34.5t23 27t43 17.5t66 6q79 0 112.5 -23.5t33.5 -61.5v-111q-17 0 -34 -2t-37.5 -8.5t-46.5 -18t-62 -30.5v-115q0 -18 13 -18h25q15 0 26.5 12t11.5 52v12h105z" />
    <glyph glyph-name="threequarters" unicode="&#xbe;" horiz-adv-x="928" 
d="M57 0zM231 507l-42 23q-29 -20 -57.5 -34t-68.5 -18v44q29 2 52 8.5t43 17.5q-20 11 -43 17.5t-52 8.5v43q41 -2 69.5 -17.5t56.5 -33.5l42 23v70q0 40 -10.5 52t-24.5 12t-24.5 -12t-10.5 -52v-17h-104v34q0 19 7 34.5t23 27t42.5 17.5t66.5 6q79 0 113 -23.5t34 -61.5
v-101q-40 0 -70.5 -8t-55.5 -19q25 -12 55.5 -19.5t70.5 -7.5v-105q0 -38 -34 -62.5t-113 -24.5q-40 0 -66.5 6.5t-42.5 18t-23 27.5t-7 35v33h104v-18q0 -40 10.5 -52t24.5 -12t24.5 12t10.5 52v76zM677 756h64l-588 -756h-64zM541 377q0 12 -14 12h-17v32h145v-227
q15 6 36 18t35 24v185h145v-32h-17q-14 0 -14 -12v-330q0 -15 13 -15h17v-32h-175v32h17q14 0 14 15v150q-18 -14 -36.5 -25t-40.5 -18.5t-48 -12.5t-60 -8v244z" />
    <glyph glyph-name="questiondown" unicode="&#xbf;" horiz-adv-x="575" 
d="M363 254q-41 -8 -68 -17t-43.5 -23t-23.5 -34.5t-7 -51.5v-110q0 -41 6 -66t16 -39t24 -19t29 -5q16 0 29.5 5t24 19t16.5 39t6 66v21h171v-51q0 -33 -12.5 -60t-41.5 -46.5t-76 -30.5t-117 -11q-69 0 -117.5 11t-78.5 30.5t-43.5 46.5t-13.5 60v153q18 17 42.5 33
t52 29.5t56.5 23.5t56 15l21 127h76zM390 527q0 -37 -26 -63t-63 -26q-38 0 -64 26t-26 63t26 63t64 26q37 0 63 -26t26 -63z" />
    <glyph glyph-name="Agrave" unicode="&#xc0;" horiz-adv-x="671" 
d="M14 0zM500 756v-38h-18q-38 0 -38 -29q0 -12 6 -34l151 -579q5 -18 11.5 -28t25.5 -10h19v-38h-239q-12 50 -34.5 84.5t-52.5 57.5t-66 37.5t-73 25.5l-58 -205h-120v38h19q26 0 38 38l178 579q6 22 6 33q0 30 -38 30h-19v38h302zM203 247q56 -14 103.5 -38t74.5 -52
l-72 309q-6 26 -22 26t-22 -25zM174 993h144l119 -205h-116z" />
    <glyph glyph-name="Agrave" unicode="&#xe0;" horiz-adv-x="671" 
d="M14 0zM500 756v-38h-18q-38 0 -38 -29q0 -12 6 -34l151 -579q5 -18 11.5 -28t25.5 -10h19v-38h-239q-12 50 -34.5 84.5t-52.5 57.5t-66 37.5t-73 25.5l-58 -205h-120v38h19q26 0 38 38l178 579q6 22 6 33q0 30 -38 30h-19v38h302zM203 247q56 -14 103.5 -38t74.5 -52
l-72 309q-6 26 -22 26t-22 -25zM174 993h144l119 -205h-116z" />
    <glyph glyph-name="Aacute" unicode="&#xc1;" horiz-adv-x="671" 
d="M14 0zM500 756v-38h-18q-38 0 -38 -29q0 -12 6 -34l151 -579q5 -18 11.5 -28t25.5 -10h19v-38h-239q-12 50 -34.5 84.5t-52.5 57.5t-66 37.5t-73 25.5l-58 -205h-120v38h19q26 0 38 38l178 579q6 22 6 33q0 30 -38 30h-19v38h302zM203 247q56 -14 103.5 -38t74.5 -52
l-72 309q-6 26 -22 26t-22 -25zM350 788h-116l119 205h144z" />
    <glyph glyph-name="Aacute" unicode="&#xe1;" horiz-adv-x="671" 
d="M14 0zM500 756v-38h-18q-38 0 -38 -29q0 -12 6 -34l151 -579q5 -18 11.5 -28t25.5 -10h19v-38h-239q-12 50 -34.5 84.5t-52.5 57.5t-66 37.5t-73 25.5l-58 -205h-120v38h19q26 0 38 38l178 579q6 22 6 33q0 30 -38 30h-19v38h302zM203 247q56 -14 103.5 -38t74.5 -52
l-72 309q-6 26 -22 26t-22 -25zM350 788h-116l119 205h144z" />
    <glyph glyph-name="Acircumflex" unicode="&#xc2;" horiz-adv-x="671" 
d="M14 0zM500 756v-38h-18q-38 0 -38 -29q0 -12 6 -34l151 -579q5 -18 11.5 -28t25.5 -10h19v-38h-239q-12 50 -34.5 84.5t-52.5 57.5t-66 37.5t-73 25.5l-58 -205h-120v38h19q26 0 38 38l178 579q6 22 6 33q0 30 -38 30h-19v38h302zM203 247q56 -14 103.5 -38t74.5 -52
l-72 309q-6 26 -22 26t-22 -25zM528 788h-116l-77 114l-77 -114h-116l125 205h136z" />
    <glyph glyph-name="Acircumflex" unicode="&#xe2;" horiz-adv-x="671" 
d="M14 0zM500 756v-38h-18q-38 0 -38 -29q0 -12 6 -34l151 -579q5 -18 11.5 -28t25.5 -10h19v-38h-239q-12 50 -34.5 84.5t-52.5 57.5t-66 37.5t-73 25.5l-58 -205h-120v38h19q26 0 38 38l178 579q6 22 6 33q0 30 -38 30h-19v38h302zM203 247q56 -14 103.5 -38t74.5 -52
l-72 309q-6 26 -22 26t-22 -25zM528 788h-116l-77 114l-77 -114h-116l125 205h136z" />
    <glyph glyph-name="Atilde" unicode="&#xc3;" horiz-adv-x="671" 
d="M14 0zM500 756v-38h-18q-38 0 -38 -29q0 -12 6 -34l151 -579q5 -18 11.5 -28t25.5 -10h19v-38h-239q-12 50 -34.5 84.5t-52.5 57.5t-66 37.5t-73 25.5l-58 -205h-120v38h19q26 0 38 38l178 579q6 22 6 33q0 30 -38 30h-19v38h302zM203 247q56 -14 103.5 -38t74.5 -52
l-72 309q-6 26 -22 26t-22 -25zM99 927h473v-74h-473v74z" />
    <glyph glyph-name="Atilde" unicode="&#xe3;" horiz-adv-x="671" 
d="M14 0zM500 756v-38h-18q-38 0 -38 -29q0 -12 6 -34l151 -579q5 -18 11.5 -28t25.5 -10h19v-38h-239q-12 50 -34.5 84.5t-52.5 57.5t-66 37.5t-73 25.5l-58 -205h-120v38h19q26 0 38 38l178 579q6 22 6 33q0 30 -38 30h-19v38h302zM203 247q56 -14 103.5 -38t74.5 -52
l-72 309q-6 26 -22 26t-22 -25zM99 927h473v-74h-473v74z" />
    <glyph glyph-name="Adieresis" unicode="&#xc4;" horiz-adv-x="671" 
d="M14 0zM500 756v-38h-18q-38 0 -38 -29q0 -12 6 -34l151 -579q5 -18 11.5 -28t25.5 -10h19v-38h-239q-12 50 -34.5 84.5t-52.5 57.5t-66 37.5t-73 25.5l-58 -205h-120v38h19q26 0 38 38l178 579q6 22 6 33q0 30 -38 30h-19v38h302zM203 247q56 -14 103.5 -38t74.5 -52
l-72 309q-6 26 -22 26t-22 -25zM371 889q0 32 22 54.5t54 22.5q33 0 55.5 -22.5t22.5 -54.5t-22.5 -54t-55.5 -22q-32 0 -54 22t-22 54zM145 889q0 32 22 54.5t54 22.5q33 0 55 -22.5t22 -54.5t-22 -54t-55 -22q-32 0 -54 22t-22 54z" />
    <glyph glyph-name="Adieresis" unicode="&#xe4;" horiz-adv-x="671" 
d="M14 0zM500 756v-38h-18q-38 0 -38 -29q0 -12 6 -34l151 -579q5 -18 11.5 -28t25.5 -10h19v-38h-239q-12 50 -34.5 84.5t-52.5 57.5t-66 37.5t-73 25.5l-58 -205h-120v38h19q26 0 38 38l178 579q6 22 6 33q0 30 -38 30h-19v38h302zM203 247q56 -14 103.5 -38t74.5 -52
l-72 309q-6 26 -22 26t-22 -25zM371 889q0 32 22 54.5t54 22.5q33 0 55.5 -22.5t22.5 -54.5t-22.5 -54t-55.5 -22q-32 0 -54 22t-22 54zM145 889q0 32 22 54.5t54 22.5q33 0 55 -22.5t22 -54.5t-22 -54t-55 -22q-32 0 -54 22t-22 54z" />
    <glyph glyph-name="Aring" unicode="&#xc5;" horiz-adv-x="671" 
d="M14 0zM500 756v-38h-18q-38 0 -38 -29q0 -12 6 -34l151 -579q5 -18 11.5 -28t25.5 -10h19v-38h-239q-12 50 -34.5 84.5t-52.5 57.5t-66 37.5t-73 25.5l-58 -205h-120v38h19q26 0 38 38l178 579q6 22 6 33q0 30 -38 30h-19v38h302zM203 247q56 -14 103.5 -38t74.5 -52
l-72 309q-6 26 -22 26t-22 -25zM229 888q0 22 8.5 41t22.5 33t33.5 22.5t42.5 8.5q22 0 41 -8.5t33 -22.5t22.5 -33t8.5 -41q0 -23 -8.5 -42.5t-22.5 -33.5t-33 -22.5t-41 -8.5q-23 0 -42.5 8.5t-33.5 22.5t-22.5 33.5t-8.5 42.5zM275 888q0 -26 17.5 -43.5t43.5 -17.5
q25 0 42 17.5t17 43.5q0 25 -17 42t-42 17q-26 0 -43.5 -17t-17.5 -42z" />
    <glyph glyph-name="Aring" unicode="&#xe5;" horiz-adv-x="671" 
d="M14 0zM500 756v-38h-18q-38 0 -38 -29q0 -12 6 -34l151 -579q5 -18 11.5 -28t25.5 -10h19v-38h-239q-12 50 -34.5 84.5t-52.5 57.5t-66 37.5t-73 25.5l-58 -205h-120v38h19q26 0 38 38l178 579q6 22 6 33q0 30 -38 30h-19v38h302zM203 247q56 -14 103.5 -38t74.5 -52
l-72 309q-6 26 -22 26t-22 -25zM229 888q0 22 8.5 41t22.5 33t33.5 22.5t42.5 8.5q22 0 41 -8.5t33 -22.5t22.5 -33t8.5 -41q0 -23 -8.5 -42.5t-22.5 -33.5t-33 -22.5t-41 -8.5q-23 0 -42.5 8.5t-33.5 22.5t-22.5 33.5t-8.5 42.5zM275 888q0 -26 17.5 -43.5t43.5 -17.5
q25 0 42 17.5t17 43.5q0 25 -17 42t-42 17q-26 0 -43.5 -17t-17.5 -42z" />
    <glyph glyph-name="AE" unicode="&#xc6;" horiz-adv-x="946" 
d="M596 76h226q12 0 22.5 11t10.5 26v43h46v-156h-549v38h20q14 0 23 5t12 19v132q-41 -17 -76.5 -22.5t-73.5 -7.5v-164h-243v38h20q19 0 28 7t9 26v529q0 36 14.5 64.5t46 49t81 31.5t119.5 11h565v-150h-46v40q0 15 -8.5 24.5t-24.5 9.5h-222v-230q29 -26 61 -47
q76 56 134.5 76t107.5 20v-57q-37 -2 -90 -12t-119 -48q66 -37 119 -47.5t90 -11.5v-58q-24 0 -51 4.5t-56.5 15.5t-63 29.5t-71.5 46.5q-15 -11 -30.5 -22t-30.5 -25v-238zM407 664q0 17 -7.5 30t-27.5 13h-40q-15 0 -29 -5t-24 -19.5t-16 -41t-6 -68.5v-356q45 0 80.5 6
t69.5 19v422zM596 355q8 8 16 14.5t17 12.5q-9 6 -17 13l-16 14v-54z" />
    <glyph glyph-name="AE" unicode="&#xe6;" horiz-adv-x="946" 
d="M596 76h226q12 0 22.5 11t10.5 26v43h46v-156h-549v38h20q14 0 23 5t12 19v132q-41 -17 -76.5 -22.5t-73.5 -7.5v-164h-243v38h20q19 0 28 7t9 26v529q0 36 14.5 64.5t46 49t81 31.5t119.5 11h565v-150h-46v40q0 15 -8.5 24.5t-24.5 9.5h-222v-230q29 -26 61 -47
q76 56 134.5 76t107.5 20v-57q-37 -2 -90 -12t-119 -48q66 -37 119 -47.5t90 -11.5v-58q-24 0 -51 4.5t-56.5 15.5t-63 29.5t-71.5 46.5q-15 -11 -30.5 -22t-30.5 -25v-238zM407 664q0 17 -7.5 30t-27.5 13h-40q-15 0 -29 -5t-24 -19.5t-16 -41t-6 -68.5v-356q45 0 80.5 6
t69.5 19v422zM596 355q8 8 16 14.5t17 12.5q-9 6 -17 13l-16 14v-54z" />
    <glyph glyph-name="Ccedilla" unicode="&#xc7;" horiz-adv-x="597" 
d="M57 0zM317 -10q-69 0 -118.5 11t-81 30.5t-46 46.5t-14.5 60v480q0 33 14.5 60t46 46.5t81 30.5t118.5 11q70 0 117 -11t76 -30.5t41.5 -46.5t12.5 -60v-51h-171v21q0 41 -6 66t-16.5 39t-24 19t-29.5 5q-15 0 -29 -5t-24 -19t-16 -39t-6 -66v-420q0 -41 6 -66t16 -39
t24 -19t29 -5q16 0 29.5 5t24 19t16.5 39t6 66v21h171v-51q0 -33 -12.5 -60t-41.5 -46.5t-76 -30.5t-117 -11zM315 -207h-116l54 173h144z" />
    <glyph glyph-name="Ccedilla" unicode="&#xe7;" horiz-adv-x="597" 
d="M57 0zM317 -10q-69 0 -118.5 11t-81 30.5t-46 46.5t-14.5 60v480q0 33 14.5 60t46 46.5t81 30.5t118.5 11q70 0 117 -11t76 -30.5t41.5 -46.5t12.5 -60v-51h-171v21q0 41 -6 66t-16.5 39t-24 19t-29.5 5q-15 0 -29 -5t-24 -19t-16 -39t-6 -66v-420q0 -41 6 -66t16 -39
t24 -19t29 -5q16 0 29.5 5t24 19t16.5 39t6 66v21h171v-51q0 -33 -12.5 -60t-41.5 -46.5t-76 -30.5t-117 -11zM315 -207h-116l54 173h144z" />
    <glyph glyph-name="Egrave" unicode="&#xc8;" horiz-adv-x="609" 
d="M14 0zM259 76h226q12 0 22.5 11t10.5 26v43h46v-156h-549v38h20q19 0 27.5 7.5t8.5 30.5v609q0 19 -9 26t-28 7h-20v38h546v-150h-46v40q0 15 -8.5 24.5t-24.5 9.5h-222v-230q29 -26 61 -47q76 56 134.5 76t107.5 20v-57q-37 -2 -90 -12t-119 -48q66 -37 119 -47.5
t90 -11.5v-58q-24 0 -51 4.5t-56.5 15.5t-63 29.5t-71.5 46.5q-15 -11 -30.5 -22t-30.5 -25v-238zM259 355q8 8 16 14.5t17 12.5q-9 6 -17 13l-16 14v-54zM143 993h144l119 -205h-116z" />
    <glyph glyph-name="Egrave" unicode="&#xe8;" horiz-adv-x="609" 
d="M14 0zM259 76h226q12 0 22.5 11t10.5 26v43h46v-156h-549v38h20q19 0 27.5 7.5t8.5 30.5v609q0 19 -9 26t-28 7h-20v38h546v-150h-46v40q0 15 -8.5 24.5t-24.5 9.5h-222v-230q29 -26 61 -47q76 56 134.5 76t107.5 20v-57q-37 -2 -90 -12t-119 -48q66 -37 119 -47.5
t90 -11.5v-58q-24 0 -51 4.5t-56.5 15.5t-63 29.5t-71.5 46.5q-15 -11 -30.5 -22t-30.5 -25v-238zM259 355q8 8 16 14.5t17 12.5q-9 6 -17 13l-16 14v-54zM143 993h144l119 -205h-116z" />
    <glyph glyph-name="Eacute" unicode="&#xc9;" horiz-adv-x="609" 
d="M14 0zM259 76h226q12 0 22.5 11t10.5 26v43h46v-156h-549v38h20q19 0 27.5 7.5t8.5 30.5v609q0 19 -9 26t-28 7h-20v38h546v-150h-46v40q0 15 -8.5 24.5t-24.5 9.5h-222v-230q29 -26 61 -47q76 56 134.5 76t107.5 20v-57q-37 -2 -90 -12t-119 -48q66 -37 119 -47.5
t90 -11.5v-58q-24 0 -51 4.5t-56.5 15.5t-63 29.5t-71.5 46.5q-15 -11 -30.5 -22t-30.5 -25v-238zM259 355q8 8 16 14.5t17 12.5q-9 6 -17 13l-16 14v-54zM319 788h-116l119 205h144z" />
    <glyph glyph-name="Eacute" unicode="&#xe9;" horiz-adv-x="609" 
d="M14 0zM259 76h226q12 0 22.5 11t10.5 26v43h46v-156h-549v38h20q19 0 27.5 7.5t8.5 30.5v609q0 19 -9 26t-28 7h-20v38h546v-150h-46v40q0 15 -8.5 24.5t-24.5 9.5h-222v-230q29 -26 61 -47q76 56 134.5 76t107.5 20v-57q-37 -2 -90 -12t-119 -48q66 -37 119 -47.5
t90 -11.5v-58q-24 0 -51 4.5t-56.5 15.5t-63 29.5t-71.5 46.5q-15 -11 -30.5 -22t-30.5 -25v-238zM259 355q8 8 16 14.5t17 12.5q-9 6 -17 13l-16 14v-54zM319 788h-116l119 205h144z" />
    <glyph glyph-name="Ecircumflex" unicode="&#xca;" horiz-adv-x="609" 
d="M14 0zM259 76h226q12 0 22.5 11t10.5 26v43h46v-156h-549v38h20q19 0 27.5 7.5t8.5 30.5v609q0 19 -9 26t-28 7h-20v38h546v-150h-46v40q0 15 -8.5 24.5t-24.5 9.5h-222v-230q29 -26 61 -47q76 56 134.5 76t107.5 20v-57q-37 -2 -90 -12t-119 -48q66 -37 119 -47.5
t90 -11.5v-58q-24 0 -51 4.5t-56.5 15.5t-63 29.5t-71.5 46.5q-15 -11 -30.5 -22t-30.5 -25v-238zM259 355q8 8 16 14.5t17 12.5q-9 6 -17 13l-16 14v-54zM497 788h-116l-77 114l-77 -114h-116l125 205h136z" />
    <glyph glyph-name="Ecircumflex" unicode="&#xea;" horiz-adv-x="609" 
d="M14 0zM259 76h226q12 0 22.5 11t10.5 26v43h46v-156h-549v38h20q19 0 27.5 7.5t8.5 30.5v609q0 19 -9 26t-28 7h-20v38h546v-150h-46v40q0 15 -8.5 24.5t-24.5 9.5h-222v-230q29 -26 61 -47q76 56 134.5 76t107.5 20v-57q-37 -2 -90 -12t-119 -48q66 -37 119 -47.5
t90 -11.5v-58q-24 0 -51 4.5t-56.5 15.5t-63 29.5t-71.5 46.5q-15 -11 -30.5 -22t-30.5 -25v-238zM259 355q8 8 16 14.5t17 12.5q-9 6 -17 13l-16 14v-54zM497 788h-116l-77 114l-77 -114h-116l125 205h136z" />
    <glyph glyph-name="Edieresis" unicode="&#xcb;" horiz-adv-x="609" 
d="M14 0zM259 76h226q12 0 22.5 11t10.5 26v43h46v-156h-549v38h20q19 0 27.5 7.5t8.5 30.5v609q0 19 -9 26t-28 7h-20v38h546v-150h-46v40q0 15 -8.5 24.5t-24.5 9.5h-222v-230q29 -26 61 -47q76 56 134.5 76t107.5 20v-57q-37 -2 -90 -12t-119 -48q66 -37 119 -47.5
t90 -11.5v-58q-24 0 -51 4.5t-56.5 15.5t-63 29.5t-71.5 46.5q-15 -11 -30.5 -22t-30.5 -25v-238zM259 355q8 8 16 14.5t17 12.5q-9 6 -17 13l-16 14v-54zM340 889q0 32 22 54.5t54 22.5q33 0 55.5 -22.5t22.5 -54.5t-22.5 -54t-55.5 -22q-32 0 -54 22t-22 54zM114 889
q0 32 22 54.5t54 22.5q33 0 55 -22.5t22 -54.5t-22 -54t-55 -22q-32 0 -54 22t-22 54z" />
    <glyph glyph-name="Edieresis" unicode="&#xeb;" horiz-adv-x="609" 
d="M14 0zM259 76h226q12 0 22.5 11t10.5 26v43h46v-156h-549v38h20q19 0 27.5 7.5t8.5 30.5v609q0 19 -9 26t-28 7h-20v38h546v-150h-46v40q0 15 -8.5 24.5t-24.5 9.5h-222v-230q29 -26 61 -47q76 56 134.5 76t107.5 20v-57q-37 -2 -90 -12t-119 -48q66 -37 119 -47.5
t90 -11.5v-58q-24 0 -51 4.5t-56.5 15.5t-63 29.5t-71.5 46.5q-15 -11 -30.5 -22t-30.5 -25v-238zM259 355q8 8 16 14.5t17 12.5q-9 6 -17 13l-16 14v-54zM340 889q0 32 22 54.5t54 22.5q33 0 55.5 -22.5t22.5 -54.5t-22.5 -54t-55.5 -22q-32 0 -54 22t-22 54zM114 889
q0 32 22 54.5t54 22.5q33 0 55 -22.5t22 -54.5t-22 -54t-55 -22q-32 0 -54 22t-22 54z" />
    <glyph glyph-name="Igrave" unicode="&#xcc;" horiz-adv-x="331" 
d="M4 0zM15 0v38h20q19 0 27.5 7.5t8.5 30.5v609q0 19 -9 26t-28 7h-20v38h302v-38h-19q-19 0 -28 -7t-9 -26v-609q0 -23 8.5 -30.5t27.5 -7.5h19v-38h-300zM4 993h144l119 -205h-116z" />
    <glyph glyph-name="Igrave" unicode="&#xec;" horiz-adv-x="331" 
d="M4 0zM15 0v38h20q19 0 27.5 7.5t8.5 30.5v609q0 19 -9 26t-28 7h-20v38h302v-38h-19q-19 0 -28 -7t-9 -26v-609q0 -23 8.5 -30.5t27.5 -7.5h19v-38h-300zM4 993h144l119 -205h-116z" />
    <glyph glyph-name="Iacute" unicode="&#xcd;" horiz-adv-x="331" 
d="M14 0zM15 0v38h20q19 0 27.5 7.5t8.5 30.5v609q0 19 -9 26t-28 7h-20v38h302v-38h-19q-19 0 -28 -7t-9 -26v-609q0 -23 8.5 -30.5t27.5 -7.5h19v-38h-300zM180 788h-116l119 205h144z" />
    <glyph glyph-name="Iacute" unicode="&#xed;" horiz-adv-x="331" 
d="M14 0zM15 0v38h20q19 0 27.5 7.5t8.5 30.5v609q0 19 -9 26t-28 7h-20v38h302v-38h-19q-19 0 -28 -7t-9 -26v-609q0 -23 8.5 -30.5t27.5 -7.5h19v-38h-300zM180 788h-116l119 205h144z" />
    <glyph glyph-name="Icircumflex" unicode="&#xce;" horiz-adv-x="331" 
d="M0 0zM15 0v38h20q19 0 27.5 7.5t8.5 30.5v609q0 19 -9 26t-28 7h-20v38h302v-38h-19q-19 0 -28 -7t-9 -26v-609q0 -23 8.5 -30.5t27.5 -7.5h19v-38h-300zM359 788h-116l-77 114l-77 -114h-116l125 205h136z" />
    <glyph glyph-name="Icircumflex" unicode="&#xee;" horiz-adv-x="331" 
d="M0 0zM15 0v38h20q19 0 27.5 7.5t8.5 30.5v609q0 19 -9 26t-28 7h-20v38h302v-38h-19q-19 0 -28 -7t-9 -26v-609q0 -23 8.5 -30.5t27.5 -7.5h19v-38h-300zM359 788h-116l-77 114l-77 -114h-116l125 205h136z" />
    <glyph glyph-name="Idieresis" unicode="&#xcf;" horiz-adv-x="331" 
d="M0 0zM15 0v38h20q19 0 27.5 7.5t8.5 30.5v609q0 19 -9 26t-28 7h-20v38h302v-38h-19q-19 0 -28 -7t-9 -26v-609q0 -23 8.5 -30.5t27.5 -7.5h19v-38h-300zM202 889q0 32 22 54.5t54 22.5q33 0 55.5 -22.5t22.5 -54.5t-22.5 -54t-55.5 -22q-32 0 -54 22t-22 54zM-24 889
q0 32 22 54.5t54 22.5q33 0 55 -22.5t22 -54.5t-22 -54t-55 -22q-32 0 -54 22t-22 54z" />
    <glyph glyph-name="Idieresis" unicode="&#xef;" horiz-adv-x="331" 
d="M0 0zM15 0v38h20q19 0 27.5 7.5t8.5 30.5v609q0 19 -9 26t-28 7h-20v38h302v-38h-19q-19 0 -28 -7t-9 -26v-609q0 -23 8.5 -30.5t27.5 -7.5h19v-38h-300zM202 889q0 32 22 54.5t54 22.5q33 0 55.5 -22.5t22.5 -54.5t-22.5 -54t-55.5 -22q-32 0 -54 22t-22 54zM-24 889
q0 32 22 54.5t54 22.5q33 0 55 -22.5t22 -54.5t-22 -54t-55 -22q-32 0 -54 22t-22 54z" />
    <glyph glyph-name="Eth" unicode="&#xd0;" horiz-adv-x="651" 
d="M15 409h55v271q0 23 -8.5 30.5t-27.5 7.5h-20v38h320q70 0 119.5 -11t81 -31.5t46 -49t14.5 -64.5v-444q0 -71 -61 -113.5t-200 -42.5h-320v38h20q19 0 27.5 7.5t8.5 30.5v279h-55v54zM409 573q0 42 -6 68.5t-16 41t-24 19.5t-29 5h-40q-20 0 -27.5 -13t-7.5 -30v-255h87
v-54h-87v-263q0 -17 7.5 -30t27.5 -13h40q15 0 29 5t24 19.5t16 41t6 68.5v390z" />
    <glyph glyph-name="Eth" unicode="&#x111;" horiz-adv-x="651" 
d="M15 409h55v271q0 23 -8.5 30.5t-27.5 7.5h-20v38h320q70 0 119.5 -11t81 -31.5t46 -49t14.5 -64.5v-444q0 -71 -61 -113.5t-200 -42.5h-320v38h20q19 0 27.5 7.5t8.5 30.5v279h-55v54zM409 573q0 42 -6 68.5t-16 41t-24 19.5t-29 5h-40q-20 0 -27.5 -13t-7.5 -30v-255h87
v-54h-87v-263q0 -17 7.5 -30t27.5 -13h40q15 0 29 5t24 19.5t16 41t6 68.5v390z" />
    <glyph glyph-name="Eth" unicode="&#x110;" horiz-adv-x="651" 
d="M15 409h55v271q0 23 -8.5 30.5t-27.5 7.5h-20v38h320q70 0 119.5 -11t81 -31.5t46 -49t14.5 -64.5v-444q0 -71 -61 -113.5t-200 -42.5h-320v38h20q19 0 27.5 7.5t8.5 30.5v279h-55v54zM409 573q0 42 -6 68.5t-16 41t-24 19.5t-29 5h-40q-20 0 -27.5 -13t-7.5 -30v-255h87
v-54h-87v-263q0 -17 7.5 -30t27.5 -13h40q15 0 29 5t24 19.5t16 41t6 68.5v390z" />
    <glyph glyph-name="Eth" unicode="&#xf0;" horiz-adv-x="651" 
d="M15 409h55v271q0 23 -8.5 30.5t-27.5 7.5h-20v38h320q70 0 119.5 -11t81 -31.5t46 -49t14.5 -64.5v-444q0 -71 -61 -113.5t-200 -42.5h-320v38h20q19 0 27.5 7.5t8.5 30.5v279h-55v54zM409 573q0 42 -6 68.5t-16 41t-24 19.5t-29 5h-40q-20 0 -27.5 -13t-7.5 -30v-255h87
v-54h-87v-263q0 -17 7.5 -30t27.5 -13h40q15 0 29 5t24 19.5t16 41t6 68.5v390z" />
    <glyph glyph-name="Ntilde" unicode="&#xd1;" 
d="M14 0zM34 38q20 0 28 7t8 26v609q0 23 -8.5 30.5t-27.5 7.5h-20v38h320q70 0 119.5 -11t81 -31.5t46 -49t14.5 -64.5v-529q0 -19 9 -26t28 -7h19v-38h-242v573q0 42 -6 68.5t-16 41t-24 19.5t-29 5h-40q-20 0 -27.5 -13t-7.5 -30v-664h-245v38h20v0zM96 927h473v-74h-473
v74z" />
    <glyph glyph-name="Ntilde" unicode="&#xf1;" 
d="M14 0zM34 38q20 0 28 7t8 26v609q0 23 -8.5 30.5t-27.5 7.5h-20v38h320q70 0 119.5 -11t81 -31.5t46 -49t14.5 -64.5v-529q0 -19 9 -26t28 -7h19v-38h-242v573q0 42 -6 68.5t-16 41t-24 19.5t-29 5h-40q-20 0 -27.5 -13t-7.5 -30v-664h-245v38h20v0zM96 927h473v-74h-473
v74z" />
    <glyph glyph-name="Ograve" unicode="&#xd2;" horiz-adv-x="635" 
d="M57 0zM317 39q16 0 29.5 5t23.5 19t16 39t6 66v420q0 41 -6 66t-16 39t-23.5 19t-29.5 5q-15 0 -29 -5t-24 -19t-16 -39t-6 -66v-420q0 -41 6 -66t16 -39t24 -19t29 -5zM317 -10q-69 0 -118.5 11t-81 30.5t-46 46.5t-14.5 60v480q0 33 14.5 60t46 46.5t81 30.5t118.5 11
q70 0 119.5 -11t81 -30.5t46 -46.5t14.5 -60v-480q0 -33 -14.5 -60t-46 -46.5t-81 -30.5t-119.5 -11zM156 993h144l119 -205h-116z" />
    <glyph glyph-name="Ograve" unicode="&#xf2;" horiz-adv-x="635" 
d="M57 0zM317 39q16 0 29.5 5t23.5 19t16 39t6 66v420q0 41 -6 66t-16 39t-23.5 19t-29.5 5q-15 0 -29 -5t-24 -19t-16 -39t-6 -66v-420q0 -41 6 -66t16 -39t24 -19t29 -5zM317 -10q-69 0 -118.5 11t-81 30.5t-46 46.5t-14.5 60v480q0 33 14.5 60t46 46.5t81 30.5t118.5 11
q70 0 119.5 -11t81 -30.5t46 -46.5t14.5 -60v-480q0 -33 -14.5 -60t-46 -46.5t-81 -30.5t-119.5 -11zM156 993h144l119 -205h-116z" />
    <glyph glyph-name="Oacute" unicode="&#xd3;" horiz-adv-x="635" 
d="M57 0zM317 39q16 0 29.5 5t23.5 19t16 39t6 66v420q0 41 -6 66t-16 39t-23.5 19t-29.5 5q-15 0 -29 -5t-24 -19t-16 -39t-6 -66v-420q0 -41 6 -66t16 -39t24 -19t29 -5zM317 -10q-69 0 -118.5 11t-81 30.5t-46 46.5t-14.5 60v480q0 33 14.5 60t46 46.5t81 30.5t118.5 11
q70 0 119.5 -11t81 -30.5t46 -46.5t14.5 -60v-480q0 -33 -14.5 -60t-46 -46.5t-81 -30.5t-119.5 -11zM332 788h-116l119 205h144z" />
    <glyph glyph-name="Oacute" unicode="&#xf3;" horiz-adv-x="635" 
d="M57 0zM317 39q16 0 29.5 5t23.5 19t16 39t6 66v420q0 41 -6 66t-16 39t-23.5 19t-29.5 5q-15 0 -29 -5t-24 -19t-16 -39t-6 -66v-420q0 -41 6 -66t16 -39t24 -19t29 -5zM317 -10q-69 0 -118.5 11t-81 30.5t-46 46.5t-14.5 60v480q0 33 14.5 60t46 46.5t81 30.5t118.5 11
q70 0 119.5 -11t81 -30.5t46 -46.5t14.5 -60v-480q0 -33 -14.5 -60t-46 -46.5t-81 -30.5t-119.5 -11zM332 788h-116l119 205h144z" />
    <glyph glyph-name="Ocircumflex" unicode="&#xd4;" horiz-adv-x="635" 
d="M57 0zM317 39q16 0 29.5 5t23.5 19t16 39t6 66v420q0 41 -6 66t-16 39t-23.5 19t-29.5 5q-15 0 -29 -5t-24 -19t-16 -39t-6 -66v-420q0 -41 6 -66t16 -39t24 -19t29 -5zM317 -10q-69 0 -118.5 11t-81 30.5t-46 46.5t-14.5 60v480q0 33 14.5 60t46 46.5t81 30.5t118.5 11
q70 0 119.5 -11t81 -30.5t46 -46.5t14.5 -60v-480q0 -33 -14.5 -60t-46 -46.5t-81 -30.5t-119.5 -11zM510 788h-116l-77 114l-77 -114h-116l125 205h136z" />
    <glyph glyph-name="Ocircumflex" unicode="&#xf4;" horiz-adv-x="635" 
d="M57 0zM317 39q16 0 29.5 5t23.5 19t16 39t6 66v420q0 41 -6 66t-16 39t-23.5 19t-29.5 5q-15 0 -29 -5t-24 -19t-16 -39t-6 -66v-420q0 -41 6 -66t16 -39t24 -19t29 -5zM317 -10q-69 0 -118.5 11t-81 30.5t-46 46.5t-14.5 60v480q0 33 14.5 60t46 46.5t81 30.5t118.5 11
q70 0 119.5 -11t81 -30.5t46 -46.5t14.5 -60v-480q0 -33 -14.5 -60t-46 -46.5t-81 -30.5t-119.5 -11zM510 788h-116l-77 114l-77 -114h-116l125 205h136z" />
    <glyph glyph-name="Otilde" unicode="&#xd5;" horiz-adv-x="635" 
d="M57 0zM317 39q16 0 29.5 5t23.5 19t16 39t6 66v420q0 41 -6 66t-16 39t-23.5 19t-29.5 5q-15 0 -29 -5t-24 -19t-16 -39t-6 -66v-420q0 -41 6 -66t16 -39t24 -19t29 -5zM317 -10q-69 0 -118.5 11t-81 30.5t-46 46.5t-14.5 60v480q0 33 14.5 60t46 46.5t81 30.5t118.5 11
q70 0 119.5 -11t81 -30.5t46 -46.5t14.5 -60v-480q0 -33 -14.5 -60t-46 -46.5t-81 -30.5t-119.5 -11zM81 927h473v-74h-473v74z" />
    <glyph glyph-name="Otilde" unicode="&#xf5;" horiz-adv-x="635" 
d="M57 0zM317 39q16 0 29.5 5t23.5 19t16 39t6 66v420q0 41 -6 66t-16 39t-23.5 19t-29.5 5q-15 0 -29 -5t-24 -19t-16 -39t-6 -66v-420q0 -41 6 -66t16 -39t24 -19t29 -5zM317 -10q-69 0 -118.5 11t-81 30.5t-46 46.5t-14.5 60v480q0 33 14.5 60t46 46.5t81 30.5t118.5 11
q70 0 119.5 -11t81 -30.5t46 -46.5t14.5 -60v-480q0 -33 -14.5 -60t-46 -46.5t-81 -30.5t-119.5 -11zM81 927h473v-74h-473v74z" />
    <glyph glyph-name="Odieresis" unicode="&#xd6;" horiz-adv-x="635" 
d="M57 0zM317 39q16 0 29.5 5t23.5 19t16 39t6 66v420q0 41 -6 66t-16 39t-23.5 19t-29.5 5q-15 0 -29 -5t-24 -19t-16 -39t-6 -66v-420q0 -41 6 -66t16 -39t24 -19t29 -5zM317 -10q-69 0 -118.5 11t-81 30.5t-46 46.5t-14.5 60v480q0 33 14.5 60t46 46.5t81 30.5t118.5 11
q70 0 119.5 -11t81 -30.5t46 -46.5t14.5 -60v-480q0 -33 -14.5 -60t-46 -46.5t-81 -30.5t-119.5 -11zM353 889q0 32 22 54.5t54 22.5q33 0 55.5 -22.5t22.5 -54.5t-22.5 -54t-55.5 -22q-32 0 -54 22t-22 54zM127 889q0 32 22 54.5t54 22.5q33 0 55 -22.5t22 -54.5t-22 -54
t-55 -22q-32 0 -54 22t-22 54z" />
    <glyph glyph-name="Odieresis" unicode="&#xf6;" horiz-adv-x="635" 
d="M57 0zM317 39q16 0 29.5 5t23.5 19t16 39t6 66v420q0 41 -6 66t-16 39t-23.5 19t-29.5 5q-15 0 -29 -5t-24 -19t-16 -39t-6 -66v-420q0 -41 6 -66t16 -39t24 -19t29 -5zM317 -10q-69 0 -118.5 11t-81 30.5t-46 46.5t-14.5 60v480q0 33 14.5 60t46 46.5t81 30.5t118.5 11
q70 0 119.5 -11t81 -30.5t46 -46.5t14.5 -60v-480q0 -33 -14.5 -60t-46 -46.5t-81 -30.5t-119.5 -11zM353 889q0 32 22 54.5t54 22.5q33 0 55.5 -22.5t22.5 -54.5t-22.5 -54t-55.5 -22q-32 0 -54 22t-22 54zM127 889q0 32 22 54.5t54 22.5q33 0 55 -22.5t22 -54.5t-22 -54
t-55 -22q-32 0 -54 22t-22 54z" />
    <glyph glyph-name="multiply" unicode="&#xd7;" horiz-adv-x="494" 
d="M419 517l-134 -135l135 -135l-38 -38l-134 135l-136 -135l-38 38l136 135l-135 135l38 37l135 -135l134 135z" />
    <glyph glyph-name="Oslash" unicode="&#xd8;" horiz-adv-x="635" 
d="M317 -10q-26 0 -49.5 2t-44.5 5l-35 -104l-56 21l32 95q-57 19 -82 52t-25 77v480q0 33 14.5 60t46 46.5t81 30.5t118.5 11q55 0 101 -8l32 93l60 -14l-32 -93q53 -20 76.5 -52t23.5 -74v-480q0 -33 -14.5 -60t-46 -46.5t-81 -30.5t-119.5 -11zM237 213l147 460
q-11 26 -29 35t-38 9q-15 0 -29.5 -5t-26 -19t-18 -39t-6.5 -66v-375zM317 39q16 0 30.5 5t25.5 19t18 39t7 66v350l-143 -444q11 -21 27.5 -28t34.5 -7z" />
    <glyph glyph-name="Ugrave" unicode="&#xd9;" 
d="M14 0zM651 756v-38h-19q-20 0 -28 -7t-8 -26v-609q0 -23 8.5 -30.5t27.5 -7.5h19v-38h-319q-70 0 -119.5 11t-81 31.5t-46 49.5t-14.5 64v529q0 19 -9 26t-28 7h-20v38h243v-573q0 -42 6 -68.5t16 -41t24 -19.5t29 -5h40q20 0 27.5 13t7.5 30v664h244zM171 993h144
l119 -205h-116z" />
    <glyph glyph-name="Ugrave" unicode="&#xf9;" 
d="M14 0zM651 756v-38h-19q-20 0 -28 -7t-8 -26v-609q0 -23 8.5 -30.5t27.5 -7.5h19v-38h-319q-70 0 -119.5 11t-81 31.5t-46 49.5t-14.5 64v529q0 19 -9 26t-28 7h-20v38h243v-573q0 -42 6 -68.5t16 -41t24 -19.5t29 -5h40q20 0 27.5 13t7.5 30v664h244zM171 993h144
l119 -205h-116z" />
    <glyph glyph-name="Uacute" unicode="&#xda;" 
d="M14 0zM651 756v-38h-19q-20 0 -28 -7t-8 -26v-609q0 -23 8.5 -30.5t27.5 -7.5h19v-38h-319q-70 0 -119.5 11t-81 31.5t-46 49.5t-14.5 64v529q0 19 -9 26t-28 7h-20v38h243v-573q0 -42 6 -68.5t16 -41t24 -19.5t29 -5h40q20 0 27.5 13t7.5 30v664h244zM347 788h-116
l119 205h144z" />
    <glyph glyph-name="Uacute" unicode="&#xfa;" 
d="M14 0zM651 756v-38h-19q-20 0 -28 -7t-8 -26v-609q0 -23 8.5 -30.5t27.5 -7.5h19v-38h-319q-70 0 -119.5 11t-81 31.5t-46 49.5t-14.5 64v529q0 19 -9 26t-28 7h-20v38h243v-573q0 -42 6 -68.5t16 -41t24 -19.5t29 -5h40q20 0 27.5 13t7.5 30v664h244zM347 788h-116
l119 205h144z" />
    <glyph glyph-name="Ucircumflex" unicode="&#xdb;" 
d="M14 0zM651 756v-38h-19q-20 0 -28 -7t-8 -26v-609q0 -23 8.5 -30.5t27.5 -7.5h19v-38h-319q-70 0 -119.5 11t-81 31.5t-46 49.5t-14.5 64v529q0 19 -9 26t-28 7h-20v38h243v-573q0 -42 6 -68.5t16 -41t24 -19.5t29 -5h40q20 0 27.5 13t7.5 30v664h244zM526 788h-116
l-77 114l-77 -114h-116l125 205h136z" />
    <glyph glyph-name="Ucircumflex" unicode="&#xfb;" 
d="M14 0zM651 756v-38h-19q-20 0 -28 -7t-8 -26v-609q0 -23 8.5 -30.5t27.5 -7.5h19v-38h-319q-70 0 -119.5 11t-81 31.5t-46 49.5t-14.5 64v529q0 19 -9 26t-28 7h-20v38h243v-573q0 -42 6 -68.5t16 -41t24 -19.5t29 -5h40q20 0 27.5 13t7.5 30v664h244zM526 788h-116
l-77 114l-77 -114h-116l125 205h136z" />
    <glyph glyph-name="Udieresis" unicode="&#xdc;" 
d="M14 0zM651 756v-38h-19q-20 0 -28 -7t-8 -26v-609q0 -23 8.5 -30.5t27.5 -7.5h19v-38h-319q-70 0 -119.5 11t-81 31.5t-46 49.5t-14.5 64v529q0 19 -9 26t-28 7h-20v38h243v-573q0 -42 6 -68.5t16 -41t24 -19.5t29 -5h40q20 0 27.5 13t7.5 30v664h244zM369 889
q0 32 22 54.5t54 22.5q33 0 55.5 -22.5t22.5 -54.5t-22.5 -54t-55.5 -22q-32 0 -54 22t-22 54zM143 889q0 32 22 54.5t54 22.5q33 0 55 -22.5t22 -54.5t-22 -54t-55 -22q-32 0 -54 22t-22 54z" />
    <glyph glyph-name="Udieresis" unicode="&#xfc;" 
d="M14 0zM651 756v-38h-19q-20 0 -28 -7t-8 -26v-609q0 -23 8.5 -30.5t27.5 -7.5h19v-38h-319q-70 0 -119.5 11t-81 31.5t-46 49.5t-14.5 64v529q0 19 -9 26t-28 7h-20v38h243v-573q0 -42 6 -68.5t16 -41t24 -19.5t29 -5h40q20 0 27.5 13t7.5 30v664h244zM369 889
q0 32 22 54.5t54 22.5q33 0 55.5 -22.5t22.5 -54.5t-22.5 -54t-55.5 -22q-32 0 -54 22t-22 54zM143 889q0 32 22 54.5t54 22.5q33 0 55 -22.5t22 -54.5t-22 -54t-55 -22q-32 0 -54 22t-22 54z" />
    <glyph glyph-name="Yacute" unicode="&#xdd;" horiz-adv-x="668" 
d="M14 0zM653 718h-18q-14 0 -22.5 -8t-19.5 -30l-176 -340v-264q0 -23 8.5 -30.5t27.5 -7.5h25v-38h-304v38h19q19 0 27.5 7.5t8.5 30.5v252l-154 352q-9 21 -18.5 29.5t-23.5 8.5h-19v38h234l112 -271q8 -24 23 -24q16 0 27 24l141 271h102v-38zM348 788h-116l119 205h144
z" />
    <glyph glyph-name="Yacute" unicode="&#xfd;" horiz-adv-x="668" 
d="M14 0zM653 718h-18q-14 0 -22.5 -8t-19.5 -30l-176 -340v-264q0 -23 8.5 -30.5t27.5 -7.5h25v-38h-304v38h19q19 0 27.5 7.5t8.5 30.5v252l-154 352q-9 21 -18.5 29.5t-23.5 8.5h-19v38h234l112 -271q8 -24 23 -24q16 0 27 24l141 271h102v-38zM348 788h-116l119 205h144
z" />
    <glyph glyph-name="Thorn" unicode="&#xde;" horiz-adv-x="627" 
d="M14 0v38h20q19 0 27.5 7.5t8.5 30.5v604q0 23 -8.5 30.5t-27.5 7.5h-20v38h309v-38h-28q-19 0 -27.5 -7.5t-8.5 -30.5v-78h75q70 0 119.5 -11t81 -31.5t46 -49.5t14.5 -64v-124q-54 0 -100.5 -9t-87.5 -26t-77.5 -41t-70.5 -55v-115q0 -23 8.5 -30.5t27.5 -7.5h28v-38
h-309zM259 232q29 29 70 57.5t80 45.5v84q0 42 -6 68.5t-16 41t-24 19.5t-29 5h-40q-20 0 -27.5 -13t-7.5 -30v-278z" />
    <glyph glyph-name="divide" unicode="&#xf7;" horiz-adv-x="494" 
d="M40 409h414v-54h-414v54zM158 598q0 37 26 63t63 26t63 -26t26 -63t-26 -63t-63 -26t-63 26t-26 63zM158 166q0 37 26 63t63 26t63 -26t26 -63t-26 -63t-63 -26t-63 26t-26 63z" />
    <glyph glyph-name="Ydieresis" unicode="&#xff;" horiz-adv-x="668" 
d="M14 0zM653 718h-18q-14 0 -22.5 -8t-19.5 -30l-176 -340v-264q0 -23 8.5 -30.5t27.5 -7.5h25v-38h-304v38h19q19 0 27.5 7.5t8.5 30.5v252l-154 352q-9 21 -18.5 29.5t-23.5 8.5h-19v38h234l112 -271q8 -24 23 -24q16 0 27 24l141 271h102v-38zM370 889q0 32 22 54.5
t54 22.5q33 0 55.5 -22.5t22.5 -54.5t-22.5 -54t-55.5 -22q-32 0 -54 22t-22 54zM144 889q0 32 22 54.5t54 22.5q33 0 55 -22.5t22 -54.5t-22 -54t-55 -22q-32 0 -54 22t-22 54z" />
    <glyph glyph-name="Ydieresis" unicode="&#x178;" horiz-adv-x="668" 
d="M14 0zM653 718h-18q-14 0 -22.5 -8t-19.5 -30l-176 -340v-264q0 -23 8.5 -30.5t27.5 -7.5h25v-38h-304v38h19q19 0 27.5 7.5t8.5 30.5v252l-154 352q-9 21 -18.5 29.5t-23.5 8.5h-19v38h234l112 -271q8 -24 23 -24q16 0 27 24l141 271h102v-38zM370 889q0 32 22 54.5
t54 22.5q33 0 55.5 -22.5t22.5 -54.5t-22.5 -54t-55.5 -22q-32 0 -54 22t-22 54zM144 889q0 32 22 54.5t54 22.5q33 0 55 -22.5t22 -54.5t-22 -54t-55 -22q-32 0 -54 22t-22 54z" />
    <glyph glyph-name="Amacron" unicode="&#x100;" horiz-adv-x="671" 
d="M14 0zM500 756v-38h-18q-38 0 -38 -29q0 -12 6 -34l151 -579q5 -18 11.5 -28t25.5 -10h19v-38h-239q-12 50 -34.5 84.5t-52.5 57.5t-66 37.5t-73 25.5l-58 -205h-120v38h19q26 0 38 38l178 579q6 22 6 33q0 30 -38 30h-19v38h302zM203 247q56 -14 103.5 -38t74.5 -52
l-72 309q-6 26 -22 26t-22 -25zM99 927h473v-74h-473v74z" />
    <glyph glyph-name="Amacron" unicode="&#x101;" horiz-adv-x="671" 
d="M14 0zM500 756v-38h-18q-38 0 -38 -29q0 -12 6 -34l151 -579q5 -18 11.5 -28t25.5 -10h19v-38h-239q-12 50 -34.5 84.5t-52.5 57.5t-66 37.5t-73 25.5l-58 -205h-120v38h19q26 0 38 38l178 579q6 22 6 33q0 30 -38 30h-19v38h302zM203 247q56 -14 103.5 -38t74.5 -52
l-72 309q-6 26 -22 26t-22 -25zM99 927h473v-74h-473v74z" />
    <glyph glyph-name="Abreve" unicode="&#x102;" horiz-adv-x="671" 
d="M14 0zM500 756v-38h-18q-38 0 -38 -29q0 -12 6 -34l151 -579q5 -18 11.5 -28t25.5 -10h19v-38h-239q-12 50 -34.5 84.5t-52.5 57.5t-66 37.5t-73 25.5l-58 -205h-120v38h19q26 0 38 38l178 579q6 22 6 33q0 30 -38 30h-19v38h302zM203 247q56 -14 103.5 -38t74.5 -52
l-72 309q-6 26 -22 26t-22 -25zM335 807q-79 0 -130.5 47t-58.5 139h95q4 -57 30 -86.5t64 -29.5t64 29.5t31 86.5h94q-7 -92 -58.5 -139t-130.5 -47z" />
    <glyph glyph-name="Abreve" unicode="&#x103;" horiz-adv-x="671" 
d="M14 0zM500 756v-38h-18q-38 0 -38 -29q0 -12 6 -34l151 -579q5 -18 11.5 -28t25.5 -10h19v-38h-239q-12 50 -34.5 84.5t-52.5 57.5t-66 37.5t-73 25.5l-58 -205h-120v38h19q26 0 38 38l178 579q6 22 6 33q0 30 -38 30h-19v38h302zM203 247q56 -14 103.5 -38t74.5 -52
l-72 309q-6 26 -22 26t-22 -25zM335 807q-79 0 -130.5 47t-58.5 139h95q4 -57 30 -86.5t64 -29.5t64 29.5t31 86.5h94q-7 -92 -58.5 -139t-130.5 -47z" />
    <glyph glyph-name="Aogonek" unicode="&#x104;" horiz-adv-x="671" 
d="M418 0q-12 50 -34.5 84.5t-52.5 57.5t-66 37.5t-73 25.5l-58 -205h-120v38h19q26 0 38 38l178 579q6 22 6 33q0 30 -38 30h-19v38h302v-38h-18q-38 0 -38 -29q0 -12 6 -34l151 -579q5 -18 11.5 -28t25.5 -10h19v-38h-10q-57 -14 -81.5 -34.5t-24.5 -36.5q0 -13 22 -13h94
v-121h-127q-50 0 -77.5 15t-27.5 56q0 47 39.5 82t127.5 52h-174zM203 247q56 -14 103.5 -38t74.5 -52l-72 309q-6 26 -22 26t-22 -25z" />
    <glyph glyph-name="Aogonek" unicode="&#x105;" horiz-adv-x="671" 
d="M418 0q-12 50 -34.5 84.5t-52.5 57.5t-66 37.5t-73 25.5l-58 -205h-120v38h19q26 0 38 38l178 579q6 22 6 33q0 30 -38 30h-19v38h302v-38h-18q-38 0 -38 -29q0 -12 6 -34l151 -579q5 -18 11.5 -28t25.5 -10h19v-38h-10q-57 -14 -81.5 -34.5t-24.5 -36.5q0 -13 22 -13h94
v-121h-127q-50 0 -77.5 15t-27.5 56q0 47 39.5 82t127.5 52h-174zM203 247q56 -14 103.5 -38t74.5 -52l-72 309q-6 26 -22 26t-22 -25z" />
    <glyph glyph-name="Cacute" unicode="&#x106;" horiz-adv-x="597" 
d="M57 0zM317 -10q-69 0 -118.5 11t-81 30.5t-46 46.5t-14.5 60v480q0 33 14.5 60t46 46.5t81 30.5t118.5 11q70 0 117 -11t76 -30.5t41.5 -46.5t12.5 -60v-51h-171v21q0 41 -6 66t-16.5 39t-24 19t-29.5 5q-15 0 -29 -5t-24 -19t-16 -39t-6 -66v-420q0 -41 6 -66t16 -39
t24 -19t29 -5q16 0 29.5 5t24 19t16.5 39t6 66v21h171v-51q0 -33 -12.5 -60t-41.5 -46.5t-76 -30.5t-117 -11zM313 788h-116l119 205h144z" />
    <glyph glyph-name="Cacute" unicode="&#x107;" horiz-adv-x="597" 
d="M57 0zM317 -10q-69 0 -118.5 11t-81 30.5t-46 46.5t-14.5 60v480q0 33 14.5 60t46 46.5t81 30.5t118.5 11q70 0 117 -11t76 -30.5t41.5 -46.5t12.5 -60v-51h-171v21q0 41 -6 66t-16.5 39t-24 19t-29.5 5q-15 0 -29 -5t-24 -19t-16 -39t-6 -66v-420q0 -41 6 -66t16 -39
t24 -19t29 -5q16 0 29.5 5t24 19t16.5 39t6 66v21h171v-51q0 -33 -12.5 -60t-41.5 -46.5t-76 -30.5t-117 -11zM313 788h-116l119 205h144z" />
    <glyph glyph-name="Cdotaccent" unicode="&#x10a;" horiz-adv-x="597" 
d="M57 0zM317 -10q-69 0 -118.5 11t-81 30.5t-46 46.5t-14.5 60v480q0 33 14.5 60t46 46.5t81 30.5t118.5 11q70 0 117 -11t76 -30.5t41.5 -46.5t12.5 -60v-51h-171v21q0 41 -6 66t-16.5 39t-24 19t-29.5 5q-15 0 -29 -5t-24 -19t-16 -39t-6 -66v-420q0 -41 6 -66t16 -39
t24 -19t29 -5q16 0 29.5 5t24 19t16.5 39t6 66v21h171v-51q0 -33 -12.5 -60t-41.5 -46.5t-76 -30.5t-117 -11zM222 889q0 32 22 54.5t54 22.5q33 0 55 -22.5t22 -54.5t-22 -54t-55 -22q-32 0 -54 22t-22 54z" />
    <glyph glyph-name="Cdotaccent" unicode="&#x10b;" horiz-adv-x="597" 
d="M57 0zM317 -10q-69 0 -118.5 11t-81 30.5t-46 46.5t-14.5 60v480q0 33 14.5 60t46 46.5t81 30.5t118.5 11q70 0 117 -11t76 -30.5t41.5 -46.5t12.5 -60v-51h-171v21q0 41 -6 66t-16.5 39t-24 19t-29.5 5q-15 0 -29 -5t-24 -19t-16 -39t-6 -66v-420q0 -41 6 -66t16 -39
t24 -19t29 -5q16 0 29.5 5t24 19t16.5 39t6 66v21h171v-51q0 -33 -12.5 -60t-41.5 -46.5t-76 -30.5t-117 -11zM222 889q0 32 22 54.5t54 22.5q33 0 55 -22.5t22 -54.5t-22 -54t-55 -22q-32 0 -54 22t-22 54z" />
    <glyph glyph-name="Ccaron" unicode="&#x10c;" horiz-adv-x="597" 
d="M57 0zM317 -10q-69 0 -118.5 11t-81 30.5t-46 46.5t-14.5 60v480q0 33 14.5 60t46 46.5t81 30.5t118.5 11q70 0 117 -11t76 -30.5t41.5 -46.5t12.5 -60v-51h-171v21q0 41 -6 66t-16.5 39t-24 19t-29.5 5q-15 0 -29 -5t-24 -19t-16 -39t-6 -66v-420q0 -41 6 -66t16 -39
t24 -19t29 -5q16 0 29.5 5t24 19t16.5 39t6 66v21h171v-51q0 -33 -12.5 -60t-41.5 -46.5t-76 -30.5t-117 -11zM105 993h116l77 -114l77 114h116l-125 -205h-136z" />
    <glyph glyph-name="Ccaron" unicode="&#x10d;" horiz-adv-x="597" 
d="M57 0zM317 -10q-69 0 -118.5 11t-81 30.5t-46 46.5t-14.5 60v480q0 33 14.5 60t46 46.5t81 30.5t118.5 11q70 0 117 -11t76 -30.5t41.5 -46.5t12.5 -60v-51h-171v21q0 41 -6 66t-16.5 39t-24 19t-29.5 5q-15 0 -29 -5t-24 -19t-16 -39t-6 -66v-420q0 -41 6 -66t16 -39
t24 -19t29 -5q16 0 29.5 5t24 19t16.5 39t6 66v21h171v-51q0 -33 -12.5 -60t-41.5 -46.5t-76 -30.5t-117 -11zM105 993h116l77 -114l77 114h116l-125 -205h-136z" />
    <glyph glyph-name="Dcaron" unicode="&#x10e;" horiz-adv-x="651" 
d="M14 0zM70 680q0 23 -8.5 30.5t-27.5 7.5h-20v38h320q70 0 119.5 -11t81 -31.5t46 -49t14.5 -64.5v-444q0 -71 -61 -113.5t-200 -42.5h-320v38h20q19 0 27.5 7.5t8.5 30.5v604zM409 573q0 42 -6 68.5t-16 41t-24 19.5t-29 5h-40q-20 0 -27.5 -13t-7.5 -30v-572
q0 -17 7.5 -30t27.5 -13h40q15 0 29 5t24 19.5t16 41t6 68.5v390zM122 993h116l77 -114l77 114h116l-125 -205h-136z" />
    <glyph glyph-name="Dcaron" unicode="&#x10f;" horiz-adv-x="651" 
d="M14 0zM70 680q0 23 -8.5 30.5t-27.5 7.5h-20v38h320q70 0 119.5 -11t81 -31.5t46 -49t14.5 -64.5v-444q0 -71 -61 -113.5t-200 -42.5h-320v38h20q19 0 27.5 7.5t8.5 30.5v604zM409 573q0 42 -6 68.5t-16 41t-24 19.5t-29 5h-40q-20 0 -27.5 -13t-7.5 -30v-572
q0 -17 7.5 -30t27.5 -13h40q15 0 29 5t24 19.5t16 41t6 68.5v390zM122 993h116l77 -114l77 114h116l-125 -205h-136z" />
    <glyph glyph-name="Emacron" unicode="&#x112;" horiz-adv-x="609" 
d="M14 0zM259 76h226q12 0 22.5 11t10.5 26v43h46v-156h-549v38h20q19 0 27.5 7.5t8.5 30.5v609q0 19 -9 26t-28 7h-20v38h546v-150h-46v40q0 15 -8.5 24.5t-24.5 9.5h-222v-230q29 -26 61 -47q76 56 134.5 76t107.5 20v-57q-37 -2 -90 -12t-119 -48q66 -37 119 -47.5
t90 -11.5v-58q-24 0 -51 4.5t-56.5 15.5t-63 29.5t-71.5 46.5q-15 -11 -30.5 -22t-30.5 -25v-238zM259 355q8 8 16 14.5t17 12.5q-9 6 -17 13l-16 14v-54zM68 927h473v-74h-473v74z" />
    <glyph glyph-name="Emacron" unicode="&#x113;" horiz-adv-x="609" 
d="M14 0zM259 76h226q12 0 22.5 11t10.5 26v43h46v-156h-549v38h20q19 0 27.5 7.5t8.5 30.5v609q0 19 -9 26t-28 7h-20v38h546v-150h-46v40q0 15 -8.5 24.5t-24.5 9.5h-222v-230q29 -26 61 -47q76 56 134.5 76t107.5 20v-57q-37 -2 -90 -12t-119 -48q66 -37 119 -47.5
t90 -11.5v-58q-24 0 -51 4.5t-56.5 15.5t-63 29.5t-71.5 46.5q-15 -11 -30.5 -22t-30.5 -25v-238zM259 355q8 8 16 14.5t17 12.5q-9 6 -17 13l-16 14v-54zM68 927h473v-74h-473v74z" />
    <glyph glyph-name="Ebreve" unicode="&#x114;" horiz-adv-x="609" 
d="M14 0zM259 76h226q12 0 22.5 11t10.5 26v43h46v-156h-549v38h20q19 0 27.5 7.5t8.5 30.5v609q0 19 -9 26t-28 7h-20v38h546v-150h-46v40q0 15 -8.5 24.5t-24.5 9.5h-222v-230q29 -26 61 -47q76 56 134.5 76t107.5 20v-57q-37 -2 -90 -12t-119 -48q66 -37 119 -47.5
t90 -11.5v-58q-24 0 -51 4.5t-56.5 15.5t-63 29.5t-71.5 46.5q-15 -11 -30.5 -22t-30.5 -25v-238zM259 355q8 8 16 14.5t17 12.5q-9 6 -17 13l-16 14v-54zM304 807q-79 0 -130.5 47t-58.5 139h95q4 -57 30 -86.5t64 -29.5t64 29.5t31 86.5h94q-7 -92 -58.5 -139t-130.5 -47z
" />
    <glyph glyph-name="Ebreve" unicode="&#x115;" horiz-adv-x="609" 
d="M14 0zM259 76h226q12 0 22.5 11t10.5 26v43h46v-156h-549v38h20q19 0 27.5 7.5t8.5 30.5v609q0 19 -9 26t-28 7h-20v38h546v-150h-46v40q0 15 -8.5 24.5t-24.5 9.5h-222v-230q29 -26 61 -47q76 56 134.5 76t107.5 20v-57q-37 -2 -90 -12t-119 -48q66 -37 119 -47.5
t90 -11.5v-58q-24 0 -51 4.5t-56.5 15.5t-63 29.5t-71.5 46.5q-15 -11 -30.5 -22t-30.5 -25v-238zM259 355q8 8 16 14.5t17 12.5q-9 6 -17 13l-16 14v-54zM304 807q-79 0 -130.5 47t-58.5 139h95q4 -57 30 -86.5t64 -29.5t64 29.5t31 86.5h94q-7 -92 -58.5 -139t-130.5 -47z
" />
    <glyph glyph-name="Edotaccent" unicode="&#x116;" horiz-adv-x="609" 
d="M14 0zM259 76h226q12 0 22.5 11t10.5 26v43h46v-156h-549v38h20q19 0 27.5 7.5t8.5 30.5v609q0 19 -9 26t-28 7h-20v38h546v-150h-46v40q0 15 -8.5 24.5t-24.5 9.5h-222v-230q29 -26 61 -47q76 56 134.5 76t107.5 20v-57q-37 -2 -90 -12t-119 -48q66 -37 119 -47.5
t90 -11.5v-58q-24 0 -51 4.5t-56.5 15.5t-63 29.5t-71.5 46.5q-15 -11 -30.5 -22t-30.5 -25v-238zM259 355q8 8 16 14.5t17 12.5q-9 6 -17 13l-16 14v-54zM228 889q0 32 22 54.5t54 22.5q33 0 55 -22.5t22 -54.5t-22 -54t-55 -22q-32 0 -54 22t-22 54z" />
    <glyph glyph-name="Edotaccent" unicode="&#x117;" horiz-adv-x="609" 
d="M14 0zM259 76h226q12 0 22.5 11t10.5 26v43h46v-156h-549v38h20q19 0 27.5 7.5t8.5 30.5v609q0 19 -9 26t-28 7h-20v38h546v-150h-46v40q0 15 -8.5 24.5t-24.5 9.5h-222v-230q29 -26 61 -47q76 56 134.5 76t107.5 20v-57q-37 -2 -90 -12t-119 -48q66 -37 119 -47.5
t90 -11.5v-58q-24 0 -51 4.5t-56.5 15.5t-63 29.5t-71.5 46.5q-15 -11 -30.5 -22t-30.5 -25v-238zM259 355q8 8 16 14.5t17 12.5q-9 6 -17 13l-16 14v-54zM228 889q0 32 22 54.5t54 22.5q33 0 55 -22.5t22 -54.5t-22 -54t-55 -22q-32 0 -54 22t-22 54z" />
    <glyph glyph-name="Eogonek" unicode="&#x118;" horiz-adv-x="609" 
d="M15 0v38h20q19 0 27.5 7.5t8.5 30.5v609q0 19 -9 26t-28 7h-20v38h546v-150h-46v40q0 15 -8.5 24.5t-24.5 9.5h-222v-230q29 -26 61 -47q76 56 134.5 76t107.5 20v-57q-37 -2 -90 -12t-119 -48q66 -37 119 -47.5t90 -11.5v-58q-24 0 -51 4.5t-56.5 15.5t-63 29.5
t-71.5 46.5q-15 -11 -30.5 -22t-30.5 -25v-238h226q12 0 22.5 11t10.5 26v43h46v-156h-10q-57 -14 -81.5 -34.5t-24.5 -36.5q0 -13 22 -13h94v-121h-127q-50 0 -77.5 15t-27.5 56q0 47 39.5 82t127.5 52h-484zM259 355q8 8 16 14.5t17 12.5q-9 6 -17 13l-16 14v-54z" />
    <glyph glyph-name="Eogonek" unicode="&#x119;" horiz-adv-x="609" 
d="M15 0v38h20q19 0 27.5 7.5t8.5 30.5v609q0 19 -9 26t-28 7h-20v38h546v-150h-46v40q0 15 -8.5 24.5t-24.5 9.5h-222v-230q29 -26 61 -47q76 56 134.5 76t107.5 20v-57q-37 -2 -90 -12t-119 -48q66 -37 119 -47.5t90 -11.5v-58q-24 0 -51 4.5t-56.5 15.5t-63 29.5
t-71.5 46.5q-15 -11 -30.5 -22t-30.5 -25v-238h226q12 0 22.5 11t10.5 26v43h46v-156h-10q-57 -14 -81.5 -34.5t-24.5 -36.5q0 -13 22 -13h94v-121h-127q-50 0 -77.5 15t-27.5 56q0 47 39.5 82t127.5 52h-484zM259 355q8 8 16 14.5t17 12.5q-9 6 -17 13l-16 14v-54z" />
    <glyph glyph-name="Ecaron" unicode="&#x11a;" horiz-adv-x="609" 
d="M14 0zM259 76h226q12 0 22.5 11t10.5 26v43h46v-156h-549v38h20q19 0 27.5 7.5t8.5 30.5v609q0 19 -9 26t-28 7h-20v38h546v-150h-46v40q0 15 -8.5 24.5t-24.5 9.5h-222v-230q29 -26 61 -47q76 56 134.5 76t107.5 20v-57q-37 -2 -90 -12t-119 -48q66 -37 119 -47.5
t90 -11.5v-58q-24 0 -51 4.5t-56.5 15.5t-63 29.5t-71.5 46.5q-15 -11 -30.5 -22t-30.5 -25v-238zM259 355q8 8 16 14.5t17 12.5q-9 6 -17 13l-16 14v-54zM111 993h116l77 -114l77 114h116l-125 -205h-136z" />
    <glyph glyph-name="Ecaron" unicode="&#x11b;" horiz-adv-x="609" 
d="M14 0zM259 76h226q12 0 22.5 11t10.5 26v43h46v-156h-549v38h20q19 0 27.5 7.5t8.5 30.5v609q0 19 -9 26t-28 7h-20v38h546v-150h-46v40q0 15 -8.5 24.5t-24.5 9.5h-222v-230q29 -26 61 -47q76 56 134.5 76t107.5 20v-57q-37 -2 -90 -12t-119 -48q66 -37 119 -47.5
t90 -11.5v-58q-24 0 -51 4.5t-56.5 15.5t-63 29.5t-71.5 46.5q-15 -11 -30.5 -22t-30.5 -25v-238zM259 355q8 8 16 14.5t17 12.5q-9 6 -17 13l-16 14v-54zM111 993h116l77 -114l77 114h116l-125 -205h-136z" />
    <glyph glyph-name="Gbreve" unicode="&#x11e;" horiz-adv-x="600" 
d="M57 0zM299 -10q-118 0 -180 41t-62 107v480q0 33 14.5 60t46 46.5t81 30.5t118.5 11q70 0 117 -11t76 -30.5t41.5 -46.5t12.5 -60v-51h-171v21q0 41 -6 66t-16.5 39t-24 19t-29.5 5q-15 0 -29 -5t-24 -19t-16 -39t-6 -66v-144q31 -28 65.5 -52t74 -41t84.5 -27t98 -10
v-314h-46v22q0 17 -24 17q-14 0 -26.5 -7.5t-32.5 -17t-52 -17t-84 -7.5zM393 299q-22 10 -44.5 23.5t-42.5 28t-36.5 28t-27.5 24.5v-235q0 -41 6 -66t16 -39t24 -19t29 -5q16 0 29.5 5t24 19t16.5 39t6 66v131zM300 807q-79 0 -130.5 47t-58.5 139h95q4 -57 30 -86.5
t64 -29.5t64 29.5t31 86.5h94q-7 -92 -58.5 -139t-130.5 -47z" />
    <glyph glyph-name="Gbreve" unicode="&#x11f;" horiz-adv-x="600" 
d="M57 0zM299 -10q-118 0 -180 41t-62 107v480q0 33 14.5 60t46 46.5t81 30.5t118.5 11q70 0 117 -11t76 -30.5t41.5 -46.5t12.5 -60v-51h-171v21q0 41 -6 66t-16.5 39t-24 19t-29.5 5q-15 0 -29 -5t-24 -19t-16 -39t-6 -66v-144q31 -28 65.5 -52t74 -41t84.5 -27t98 -10
v-314h-46v22q0 17 -24 17q-14 0 -26.5 -7.5t-32.5 -17t-52 -17t-84 -7.5zM393 299q-22 10 -44.5 23.5t-42.5 28t-36.5 28t-27.5 24.5v-235q0 -41 6 -66t16 -39t24 -19t29 -5q16 0 29.5 5t24 19t16.5 39t6 66v131zM300 807q-79 0 -130.5 47t-58.5 139h95q4 -57 30 -86.5
t64 -29.5t64 29.5t31 86.5h94q-7 -92 -58.5 -139t-130.5 -47z" />
    <glyph glyph-name="Gdotaccent" unicode="&#x120;" horiz-adv-x="600" 
d="M57 0zM299 -10q-118 0 -180 41t-62 107v480q0 33 14.5 60t46 46.5t81 30.5t118.5 11q70 0 117 -11t76 -30.5t41.5 -46.5t12.5 -60v-51h-171v21q0 41 -6 66t-16.5 39t-24 19t-29.5 5q-15 0 -29 -5t-24 -19t-16 -39t-6 -66v-144q31 -28 65.5 -52t74 -41t84.5 -27t98 -10
v-314h-46v22q0 17 -24 17q-14 0 -26.5 -7.5t-32.5 -17t-52 -17t-84 -7.5zM393 299q-22 10 -44.5 23.5t-42.5 28t-36.5 28t-27.5 24.5v-235q0 -41 6 -66t16 -39t24 -19t29 -5q16 0 29.5 5t24 19t16.5 39t6 66v131zM223 889q0 32 22 54.5t54 22.5q33 0 55 -22.5t22 -54.5
t-22 -54t-55 -22q-32 0 -54 22t-22 54z" />
    <glyph glyph-name="Gdotaccent" unicode="&#x121;" horiz-adv-x="600" 
d="M57 0zM299 -10q-118 0 -180 41t-62 107v480q0 33 14.5 60t46 46.5t81 30.5t118.5 11q70 0 117 -11t76 -30.5t41.5 -46.5t12.5 -60v-51h-171v21q0 41 -6 66t-16.5 39t-24 19t-29.5 5q-15 0 -29 -5t-24 -19t-16 -39t-6 -66v-144q31 -28 65.5 -52t74 -41t84.5 -27t98 -10
v-314h-46v22q0 17 -24 17q-14 0 -26.5 -7.5t-32.5 -17t-52 -17t-84 -7.5zM393 299q-22 10 -44.5 23.5t-42.5 28t-36.5 28t-27.5 24.5v-235q0 -41 6 -66t16 -39t24 -19t29 -5q16 0 29.5 5t24 19t16.5 39t6 66v131zM223 889q0 32 22 54.5t54 22.5q33 0 55 -22.5t22 -54.5
t-22 -54t-55 -22q-32 0 -54 22t-22 54z" />
    <glyph glyph-name="Gcommaaccent" unicode="&#x122;" horiz-adv-x="600" 
d="M57 0zM299 -10q-118 0 -180 41t-62 107v480q0 33 14.5 60t46 46.5t81 30.5t118.5 11q70 0 117 -11t76 -30.5t41.5 -46.5t12.5 -60v-51h-171v21q0 41 -6 66t-16.5 39t-24 19t-29.5 5q-15 0 -29 -5t-24 -19t-16 -39t-6 -66v-144q31 -28 65.5 -52t74 -41t84.5 -27t98 -10
v-314h-46v22q0 17 -24 17q-14 0 -26.5 -7.5t-32.5 -17t-52 -17t-84 -7.5zM393 299q-22 10 -44.5 23.5t-42.5 28t-36.5 28t-27.5 24.5v-235q0 -41 6 -66t16 -39t24 -19t29 -5q16 0 29.5 5t24 19t16.5 39t6 66v131zM317 -207h-116l54 173h144z" />
    <glyph glyph-name="Gcommaaccent" unicode="&#x123;" horiz-adv-x="600" 
d="M57 0zM299 -10q-118 0 -180 41t-62 107v480q0 33 14.5 60t46 46.5t81 30.5t118.5 11q70 0 117 -11t76 -30.5t41.5 -46.5t12.5 -60v-51h-171v21q0 41 -6 66t-16.5 39t-24 19t-29.5 5q-15 0 -29 -5t-24 -19t-16 -39t-6 -66v-144q31 -28 65.5 -52t74 -41t84.5 -27t98 -10
v-314h-46v22q0 17 -24 17q-14 0 -26.5 -7.5t-32.5 -17t-52 -17t-84 -7.5zM393 299q-22 10 -44.5 23.5t-42.5 28t-36.5 28t-27.5 24.5v-235q0 -41 6 -66t16 -39t24 -19t29 -5q16 0 29.5 5t24 19t16.5 39t6 66v131zM317 -207h-116l54 173h144z" />
    <glyph glyph-name="Hbar" unicode="&#x126;" horiz-adv-x="674" 
d="M14 601h57v84q0 19 -9 26t-28 7h-20v38h245v-155h156v155h245v-38h-20q-19 0 -28 -7t-9 -26v-84h57v-31h-57v-499q0 -19 9 -26t28 -7h20v-38h-245v314l-78 51l-78 -51v-314h-245v38h20q19 0 28 7t9 26v499h-57v31zM415 450v120h-156v-120l78 -50zM415 409l-43 -27l43 -27
v54zM259 355l43 27l-43 27v-54z" />
    <glyph glyph-name="Hbar" unicode="&#x127;" horiz-adv-x="674" 
d="M14 601h57v84q0 19 -9 26t-28 7h-20v38h245v-155h156v155h245v-38h-20q-19 0 -28 -7t-9 -26v-84h57v-31h-57v-499q0 -19 9 -26t28 -7h20v-38h-245v314l-78 51l-78 -51v-314h-245v38h20q19 0 28 7t9 26v499h-57v31zM415 450v120h-156v-120l78 -50zM415 409l-43 -27l43 -27
v54zM259 355l43 27l-43 27v-54z" />
    <glyph glyph-name="Itilde" unicode="&#x128;" horiz-adv-x="331" 
d="M14 0zM15 0v38h20q19 0 27.5 7.5t8.5 30.5v609q0 19 -9 26t-28 7h-20v38h302v-38h-19q-19 0 -28 -7t-9 -26v-609q0 -23 8.5 -30.5t27.5 -7.5h19v-38h-300zM14 927h302v-74h-302v74z" />
    <glyph glyph-name="Itilde" unicode="&#x129;" horiz-adv-x="331" 
d="M14 0zM15 0v38h20q19 0 27.5 7.5t8.5 30.5v609q0 19 -9 26t-28 7h-20v38h302v-38h-19q-19 0 -28 -7t-9 -26v-609q0 -23 8.5 -30.5t27.5 -7.5h19v-38h-300zM14 927h302v-74h-302v74z" />
    <glyph glyph-name="Imacron" unicode="&#x12a;" horiz-adv-x="331" 
d="M15 0v38h20q19 0 27.5 7.5t8.5 30.5v609q0 19 -9 26t-28 7h-20v38h302v-38h-19q-19 0 -28 -7t-9 -26v-609q0 -23 8.5 -30.5t27.5 -7.5h19v-38h-300zM14 927h302v-74h-302v74z" />
    <glyph glyph-name="Imacron" unicode="&#x12b;" horiz-adv-x="331" 
d="M15 0v38h20q19 0 27.5 7.5t8.5 30.5v609q0 19 -9 26t-28 7h-20v38h302v-38h-19q-19 0 -28 -7t-9 -26v-609q0 -23 8.5 -30.5t27.5 -7.5h19v-38h-300zM14 927h302v-74h-302v74z" />
    <glyph glyph-name="Ibreve" unicode="&#x12c;" horiz-adv-x="331" 
d="M0 0zM15 0v38h20q19 0 27.5 7.5t8.5 30.5v609q0 19 -9 26t-28 7h-20v38h302v-38h-19q-19 0 -28 -7t-9 -26v-609q0 -23 8.5 -30.5t27.5 -7.5h19v-38h-300zM166 807q-79 0 -130.5 47t-58.5 139h95q4 -57 30 -86.5t64 -29.5t64 29.5t31 86.5h94q-7 -92 -58.5 -139
t-130.5 -47z" />
    <glyph glyph-name="Ibreve" unicode="&#x12d;" horiz-adv-x="331" 
d="M0 0zM15 0v38h20q19 0 27.5 7.5t8.5 30.5v609q0 19 -9 26t-28 7h-20v38h302v-38h-19q-19 0 -28 -7t-9 -26v-609q0 -23 8.5 -30.5t27.5 -7.5h19v-38h-300zM166 807q-79 0 -130.5 47t-58.5 139h95q4 -57 30 -86.5t64 -29.5t64 29.5t31 86.5h94q-7 -92 -58.5 -139
t-130.5 -47z" />
    <glyph glyph-name="Iogonek" unicode="&#x12e;" horiz-adv-x="331" 
d="M15 0v38h20q19 0 27.5 7.5t8.5 30.5v609q0 19 -9 26t-28 7h-20v38h302v-38h-19q-19 0 -28 -7t-9 -26v-609q0 -23 8.5 -30.5t27.5 -7.5h19v-38h-44q-57 -14 -81.5 -34.5t-24.5 -36.5q0 -13 22 -13h94v-121h-127q-50 0 -77.5 15t-27.5 56q0 47 39.5 82t127.5 52h-201z" />
    <glyph glyph-name="Iogonek" unicode="&#x12f;" horiz-adv-x="331" 
d="M15 0v38h20q19 0 27.5 7.5t8.5 30.5v609q0 19 -9 26t-28 7h-20v38h302v-38h-19q-19 0 -28 -7t-9 -26v-609q0 -23 8.5 -30.5t27.5 -7.5h19v-38h-44q-57 -14 -81.5 -34.5t-24.5 -36.5q0 -13 22 -13h94v-121h-127q-50 0 -77.5 15t-27.5 56q0 47 39.5 82t127.5 52h-201z" />
    <glyph glyph-name="Idotaccent" unicode="&#x130;" horiz-adv-x="331" 
d="M14 0zM15 0v38h20q19 0 27.5 7.5t8.5 30.5v609q0 19 -9 26t-28 7h-20v38h302v-38h-19q-19 0 -28 -7t-9 -26v-609q0 -23 8.5 -30.5t27.5 -7.5h19v-38h-300zM89 889q0 32 22 54.5t54 22.5q33 0 55 -22.5t22 -54.5t-22 -54t-55 -22q-32 0 -54 22t-22 54z" />
    <glyph glyph-name="IJ" unicode="&#x132;" horiz-adv-x="657" 
d="M15 145v38h20q19 0 27.5 7.5t8.5 30.5v464q0 19 -9 26t-28 7h-20v38h302v-38h-19q-19 0 -28 -7t-9 -26v-464q0 -23 8.5 -30.5t27.5 -7.5h19v-38h-300zM641 756v-38h-19q-19 0 -28 -7t-9 -26v-677q0 -33 -14.5 -60t-46 -46.5t-81 -30.5t-119.5 -11t-117 11t-76 30.5
t-41.5 46.5t-12.5 60v51h171v-21q0 -41 6 -66t16.5 -39t24.5 -19t29 -5t29 5t24 19t16 39t6 66v718h242z" />
    <glyph glyph-name="IJ" unicode="&#x133;" horiz-adv-x="657" 
d="M15 145v38h20q19 0 27.5 7.5t8.5 30.5v464q0 19 -9 26t-28 7h-20v38h302v-38h-19q-19 0 -28 -7t-9 -26v-464q0 -23 8.5 -30.5t27.5 -7.5h19v-38h-300zM641 756v-38h-19q-19 0 -28 -7t-9 -26v-677q0 -33 -14.5 -60t-46 -46.5t-81 -30.5t-119.5 -11t-117 11t-76 30.5
t-41.5 46.5t-12.5 60v51h171v-21q0 -41 6 -66t16.5 -39t24.5 -19t29 -5t29 5t24 19t16 39t6 66v718h242z" />
    <glyph glyph-name="Kcommaaccent" unicode="&#x136;" 
d="M14 0zM259 353q6 7 14 14t19 15q-11 8 -19 15.5t-14 13.5v-58zM259 452q14 -13 29 -25t32 -23q20 14 42.5 28t46.5 24v213q0 87 81 87h161v-38h-19q-19 0 -28 -7t-9 -26v-242q-78 0 -135.5 -16.5t-107.5 -44.5q50 -28 107.5 -44t135.5 -16v-251q0 -19 9 -26t28 -7h19v-38
h-161q-81 0 -81 87v221q-24 11 -46.5 24.5t-42.5 28.5q-17 -12 -32 -24t-29 -25v-312h-245v38h20q19 0 27.5 7.5t8.5 30.5v604q0 23 -8.5 30.5t-27.5 7.5h-20v38h245v-304zM350 -207h-116l54 173h144z" />
    <glyph glyph-name="Kcommaaccent" unicode="&#x137;" 
d="M14 0zM259 353q6 7 14 14t19 15q-11 8 -19 15.5t-14 13.5v-58zM259 452q14 -13 29 -25t32 -23q20 14 42.5 28t46.5 24v213q0 87 81 87h161v-38h-19q-19 0 -28 -7t-9 -26v-242q-78 0 -135.5 -16.5t-107.5 -44.5q50 -28 107.5 -44t135.5 -16v-251q0 -19 9 -26t28 -7h19v-38
h-161q-81 0 -81 87v221q-24 11 -46.5 24.5t-42.5 28.5q-17 -12 -32 -24t-29 -25v-312h-245v38h20q19 0 27.5 7.5t8.5 30.5v604q0 23 -8.5 30.5t-27.5 7.5h-20v38h245v-304zM350 -207h-116l54 173h144z" />
    <glyph glyph-name="Lacute" unicode="&#x139;" horiz-adv-x="591" 
d="M14 0zM259 92q0 -17 7.5 -30t27.5 -13h40q15 0 29 5t24.5 19t16.5 39.5t6 66.5v10h170v-41q0 -32 -12.5 -59.5t-41 -47t-75.5 -30.5t-117 -11h-320v38h20q19 0 27.5 7.5t8.5 30.5v604q0 23 -8.5 30.5t-27.5 7.5h-20v38h245v-664zM230 788h-116l119 205h144z" />
    <glyph glyph-name="Lacute" unicode="&#x13a;" horiz-adv-x="591" 
d="M14 0zM259 92q0 -17 7.5 -30t27.5 -13h40q15 0 29 5t24.5 19t16.5 39.5t6 66.5v10h170v-41q0 -32 -12.5 -59.5t-41 -47t-75.5 -30.5t-117 -11h-320v38h20q19 0 27.5 7.5t8.5 30.5v604q0 23 -8.5 30.5t-27.5 7.5h-20v38h245v-664zM230 788h-116l119 205h144z" />
    <glyph glyph-name="Lcommaaccent" unicode="&#x13b;" horiz-adv-x="591" 
d="M14 0zM259 92q0 -17 7.5 -30t27.5 -13h40q15 0 29 5t24.5 19t16.5 39.5t6 66.5v10h170v-41q0 -32 -12.5 -59.5t-41 -47t-75.5 -30.5t-117 -11h-320v38h20q19 0 27.5 7.5t8.5 30.5v604q0 23 -8.5 30.5t-27.5 7.5h-20v38h245v-664zM312 -207h-116l54 173h144z" />
    <glyph glyph-name="Lcommaaccent" unicode="&#x13c;" horiz-adv-x="591" 
d="M14 0zM259 92q0 -17 7.5 -30t27.5 -13h40q15 0 29 5t24.5 19t16.5 39.5t6 66.5v10h170v-41q0 -32 -12.5 -59.5t-41 -47t-75.5 -30.5t-117 -11h-320v38h20q19 0 27.5 7.5t8.5 30.5v604q0 23 -8.5 30.5t-27.5 7.5h-20v38h245v-664zM312 -207h-116l54 173h144z" />
    <glyph glyph-name="Lcaron" unicode="&#x13d;" horiz-adv-x="591" 
d="M14 0zM259 92q0 -17 7.5 -30t27.5 -13h40q15 0 29 5t24.5 19t16.5 39.5t6 66.5v10h170v-41q0 -32 -12.5 -59.5t-41 -47t-75.5 -30.5t-117 -11h-320v38h20q19 0 27.5 7.5t8.5 30.5v604q0 23 -8.5 30.5t-27.5 7.5h-20v38h245v-664zM434 583h-116l54 173h144z" />
    <glyph glyph-name="Lcaron" unicode="&#x13e;" horiz-adv-x="591" 
d="M14 0zM259 92q0 -17 7.5 -30t27.5 -13h40q15 0 29 5t24.5 19t16.5 39.5t6 66.5v10h170v-41q0 -32 -12.5 -59.5t-41 -47t-75.5 -30.5t-117 -11h-320v38h20q19 0 27.5 7.5t8.5 30.5v604q0 23 -8.5 30.5t-27.5 7.5h-20v38h245v-664zM434 583h-116l54 173h144z" />
    <glyph glyph-name="Lslash" unicode="&#x141;" horiz-adv-x="591" 
d="M259 411l244 98v-58l-244 -97v-262q0 -17 7.5 -30t27.5 -13h40q15 0 29 5t24.5 19t16.5 39.5t6 66.5v10h170v-41q0 -32 -12.5 -59.5t-41 -47t-75.5 -30.5t-117 -11h-320v38h20q19 0 27.5 7.5t8.5 30.5v604q0 23 -8.5 30.5t-27.5 7.5h-20v38h245v-345z" />
    <glyph glyph-name="Lslash" unicode="&#x142;" horiz-adv-x="591" 
d="M259 411l244 98v-58l-244 -97v-262q0 -17 7.5 -30t27.5 -13h40q15 0 29 5t24.5 19t16.5 39.5t6 66.5v10h170v-41q0 -32 -12.5 -59.5t-41 -47t-75.5 -30.5t-117 -11h-320v38h20q19 0 27.5 7.5t8.5 30.5v604q0 23 -8.5 30.5t-27.5 7.5h-20v38h245v-345z" />
    <glyph glyph-name="Nacute" unicode="&#x143;" 
d="M14 0zM34 38q20 0 28 7t8 26v609q0 23 -8.5 30.5t-27.5 7.5h-20v38h320q70 0 119.5 -11t81 -31.5t46 -49t14.5 -64.5v-529q0 -19 9 -26t28 -7h19v-38h-242v573q0 42 -6 68.5t-16 41t-24 19.5t-29 5h-40q-20 0 -27.5 -13t-7.5 -30v-664h-245v38h20v0zM347 788h-116
l119 205h144z" />
    <glyph glyph-name="Nacute" unicode="&#x144;" 
d="M14 0zM34 38q20 0 28 7t8 26v609q0 23 -8.5 30.5t-27.5 7.5h-20v38h320q70 0 119.5 -11t81 -31.5t46 -49t14.5 -64.5v-529q0 -19 9 -26t28 -7h19v-38h-242v573q0 42 -6 68.5t-16 41t-24 19.5t-29 5h-40q-20 0 -27.5 -13t-7.5 -30v-664h-245v38h20v0zM347 788h-116
l119 205h144z" />
    <glyph glyph-name="Ncommaaccent" unicode="&#x145;" 
d="M14 0zM34 38q20 0 28 7t8 26v609q0 23 -8.5 30.5t-27.5 7.5h-20v38h320q70 0 119.5 -11t81 -31.5t46 -49t14.5 -64.5v-529q0 -19 9 -26t28 -7h19v-38h-242v573q0 42 -6 68.5t-16 41t-24 19.5t-29 5h-40q-20 0 -27.5 -13t-7.5 -30v-664h-245v38h20v0zM320 -207h-116
l54 173h144z" />
    <glyph glyph-name="Ncommaaccent" unicode="&#x146;" 
d="M14 0zM34 38q20 0 28 7t8 26v609q0 23 -8.5 30.5t-27.5 7.5h-20v38h320q70 0 119.5 -11t81 -31.5t46 -49t14.5 -64.5v-529q0 -19 9 -26t28 -7h19v-38h-242v573q0 42 -6 68.5t-16 41t-24 19.5t-29 5h-40q-20 0 -27.5 -13t-7.5 -30v-664h-245v38h20v0zM320 -207h-116
l54 173h144z" />
    <glyph glyph-name="Ncaron" unicode="&#x147;" 
d="M14 0zM34 38q20 0 28 7t8 26v609q0 23 -8.5 30.5t-27.5 7.5h-20v38h320q70 0 119.5 -11t81 -31.5t46 -49t14.5 -64.5v-529q0 -19 9 -26t28 -7h19v-38h-242v573q0 42 -6 68.5t-16 41t-24 19.5t-29 5h-40q-20 0 -27.5 -13t-7.5 -30v-664h-245v38h20v0zM140 993h116l77 -114
l77 114h116l-125 -205h-136z" />
    <glyph glyph-name="Ncaron" unicode="&#x148;" 
d="M14 0zM34 38q20 0 28 7t8 26v609q0 23 -8.5 30.5t-27.5 7.5h-20v38h320q70 0 119.5 -11t81 -31.5t46 -49t14.5 -64.5v-529q0 -19 9 -26t28 -7h19v-38h-242v573q0 42 -6 68.5t-16 41t-24 19.5t-29 5h-40q-20 0 -27.5 -13t-7.5 -30v-664h-245v38h20v0zM140 993h116l77 -114
l77 114h116l-125 -205h-136z" />
    <glyph glyph-name="Eng" unicode="&#x14a;" 
d="M34 38q20 0 28 7t8 26v609q0 23 -8.5 30.5t-27.5 7.5h-20v38h320q70 0 119.5 -11t81 -31.5t46 -49t14.5 -64.5v-664q0 -33 -14.5 -60t-46 -46.5t-81 -30.5t-119.5 -11t-117 10.5t-76 28t-41.5 39.5t-12.5 46v23h171v-13q0 -48 22.5 -66.5t53.5 -18.5q15 0 29 5t24 19
t16 39t6 66v607q0 42 -6 68.5t-16 41t-24 19.5t-29 5h-40q-20 0 -27.5 -13t-7.5 -30v-664h-245v38h20v0z" />
    <glyph glyph-name="Eng" unicode="&#x14b;" 
d="M34 38q20 0 28 7t8 26v609q0 23 -8.5 30.5t-27.5 7.5h-20v38h320q70 0 119.5 -11t81 -31.5t46 -49t14.5 -64.5v-664q0 -33 -14.5 -60t-46 -46.5t-81 -30.5t-119.5 -11t-117 10.5t-76 28t-41.5 39.5t-12.5 46v23h171v-13q0 -48 22.5 -66.5t53.5 -18.5q15 0 29 5t24 19
t16 39t6 66v607q0 42 -6 68.5t-16 41t-24 19.5t-29 5h-40q-20 0 -27.5 -13t-7.5 -30v-664h-245v38h20v0z" />
    <glyph glyph-name="Omacron" unicode="&#x14c;" horiz-adv-x="635" 
d="M57 0zM317 39q16 0 29.5 5t23.5 19t16 39t6 66v420q0 41 -6 66t-16 39t-23.5 19t-29.5 5q-15 0 -29 -5t-24 -19t-16 -39t-6 -66v-420q0 -41 6 -66t16 -39t24 -19t29 -5zM317 -10q-69 0 -118.5 11t-81 30.5t-46 46.5t-14.5 60v480q0 33 14.5 60t46 46.5t81 30.5t118.5 11
q70 0 119.5 -11t81 -30.5t46 -46.5t14.5 -60v-480q0 -33 -14.5 -60t-46 -46.5t-81 -30.5t-119.5 -11zM81 927h473v-74h-473v74z" />
    <glyph glyph-name="Omacron" unicode="&#x14d;" horiz-adv-x="635" 
d="M57 0zM317 39q16 0 29.5 5t23.5 19t16 39t6 66v420q0 41 -6 66t-16 39t-23.5 19t-29.5 5q-15 0 -29 -5t-24 -19t-16 -39t-6 -66v-420q0 -41 6 -66t16 -39t24 -19t29 -5zM317 -10q-69 0 -118.5 11t-81 30.5t-46 46.5t-14.5 60v480q0 33 14.5 60t46 46.5t81 30.5t118.5 11
q70 0 119.5 -11t81 -30.5t46 -46.5t14.5 -60v-480q0 -33 -14.5 -60t-46 -46.5t-81 -30.5t-119.5 -11zM81 927h473v-74h-473v74z" />
    <glyph glyph-name="Obreve" unicode="&#x14e;" horiz-adv-x="635" 
d="M57 0zM317 39q16 0 29.5 5t23.5 19t16 39t6 66v420q0 41 -6 66t-16 39t-23.5 19t-29.5 5q-15 0 -29 -5t-24 -19t-16 -39t-6 -66v-420q0 -41 6 -66t16 -39t24 -19t29 -5zM317 -10q-69 0 -118.5 11t-81 30.5t-46 46.5t-14.5 60v480q0 33 14.5 60t46 46.5t81 30.5t118.5 11
q70 0 119.5 -11t81 -30.5t46 -46.5t14.5 -60v-480q0 -33 -14.5 -60t-46 -46.5t-81 -30.5t-119.5 -11zM317 807q-79 0 -130.5 47t-58.5 139h95q4 -57 30 -86.5t64 -29.5t64 29.5t31 86.5h94q-7 -92 -58.5 -139t-130.5 -47z" />
    <glyph glyph-name="Obreve" unicode="&#x14f;" horiz-adv-x="635" 
d="M57 0zM317 39q16 0 29.5 5t23.5 19t16 39t6 66v420q0 41 -6 66t-16 39t-23.5 19t-29.5 5q-15 0 -29 -5t-24 -19t-16 -39t-6 -66v-420q0 -41 6 -66t16 -39t24 -19t29 -5zM317 -10q-69 0 -118.5 11t-81 30.5t-46 46.5t-14.5 60v480q0 33 14.5 60t46 46.5t81 30.5t118.5 11
q70 0 119.5 -11t81 -30.5t46 -46.5t14.5 -60v-480q0 -33 -14.5 -60t-46 -46.5t-81 -30.5t-119.5 -11zM317 807q-79 0 -130.5 47t-58.5 139h95q4 -57 30 -86.5t64 -29.5t64 29.5t31 86.5h94q-7 -92 -58.5 -139t-130.5 -47z" />
    <glyph glyph-name="Ohungarumlaut" unicode="&#x150;" horiz-adv-x="635" 
d="M57 0zM317 39q16 0 29.5 5t23.5 19t16 39t6 66v420q0 41 -6 66t-16 39t-23.5 19t-29.5 5q-15 0 -29 -5t-24 -19t-16 -39t-6 -66v-420q0 -41 6 -66t16 -39t24 -19t29 -5zM317 -10q-69 0 -118.5 11t-81 30.5t-46 46.5t-14.5 60v480q0 33 14.5 60t46 46.5t81 30.5t118.5 11
q70 0 119.5 -11t81 -30.5t46 -46.5t14.5 -60v-480q0 -33 -14.5 -60t-46 -46.5t-81 -30.5t-119.5 -11zM212 788h-116l112 205h144zM435 788h-123l135 205h151z" />
    <glyph glyph-name="Ohungarumlaut" unicode="&#x151;" horiz-adv-x="635" 
d="M57 0zM317 39q16 0 29.5 5t23.5 19t16 39t6 66v420q0 41 -6 66t-16 39t-23.5 19t-29.5 5q-15 0 -29 -5t-24 -19t-16 -39t-6 -66v-420q0 -41 6 -66t16 -39t24 -19t29 -5zM317 -10q-69 0 -118.5 11t-81 30.5t-46 46.5t-14.5 60v480q0 33 14.5 60t46 46.5t81 30.5t118.5 11
q70 0 119.5 -11t81 -30.5t46 -46.5t14.5 -60v-480q0 -33 -14.5 -60t-46 -46.5t-81 -30.5t-119.5 -11zM212 788h-116l112 205h144zM435 788h-123l135 205h151z" />
    <glyph glyph-name="OE" unicode="&#x152;" horiz-adv-x="932" 
d="M582 76h226q12 0 22 11t10 26v43h47v-156h-570q-69 0 -118.5 11t-81 31.5t-46 49.5t-14.5 64v444q0 36 14.5 64.5t46 49t81 31.5t118.5 11h566v-150h-47v40q0 15 -8 24.5t-25 9.5h-221v-230q15 -14 30.5 -25.5t29.5 -21.5q76 56 135 76t108 20v-57q-38 -2 -90.5 -12
t-118.5 -48q66 -37 118.5 -47.5t90.5 -11.5v-58q-49 0 -108 20t-135 76q-14 -11 -29.5 -22t-30.5 -25v-238zM242 183q0 -42 6 -68.5t16 -41t24 -19.5t29 -5h41q20 0 27 13t7 30v572q0 17 -7 30t-27 13h-41q-15 0 -29 -5t-24 -19.5t-16 -41t-6 -68.5v-390zM582 355
q8 8 16 14.5t16 12.5q-8 6 -16 13l-16 14v-54z" />
    <glyph glyph-name="OE" unicode="&#x153;" horiz-adv-x="932" 
d="M582 76h226q12 0 22 11t10 26v43h47v-156h-570q-69 0 -118.5 11t-81 31.5t-46 49.5t-14.5 64v444q0 36 14.5 64.5t46 49t81 31.5t118.5 11h566v-150h-47v40q0 15 -8 24.5t-25 9.5h-221v-230q15 -14 30.5 -25.5t29.5 -21.5q76 56 135 76t108 20v-57q-38 -2 -90.5 -12
t-118.5 -48q66 -37 118.5 -47.5t90.5 -11.5v-58q-49 0 -108 20t-135 76q-14 -11 -29.5 -22t-30.5 -25v-238zM242 183q0 -42 6 -68.5t16 -41t24 -19.5t29 -5h41q20 0 27 13t7 30v572q0 17 -7 30t-27 13h-41q-15 0 -29 -5t-24 -19.5t-16 -41t-6 -68.5v-390zM582 355
q8 8 16 14.5t16 12.5q-8 6 -16 13l-16 14v-54z" />
    <glyph glyph-name="Racute" unicode="&#x154;" 
d="M14 0zM595 443q-78 0 -135.5 -16.5t-107.5 -44.5q50 -28 107.5 -44t135.5 -16v-251q0 -19 9 -26t28 -7h19v-38h-161q-81 0 -81 87v221q-24 11 -46.5 24.5t-42.5 28.5q-17 -12 -32 -24t-29 -25v-312h-245v38h20q19 0 27.5 7.5t8.5 30.5v604q0 23 -8.5 30.5t-27.5 7.5h-20
v38h320q70 0 119.5 -11t81 -31.5t46 -49t14.5 -64.5v-157zM409 573q0 42 -6 68.5t-16 41t-24 19.5t-29 5h-40q-20 0 -27.5 -13t-7.5 -30v-212q14 -13 29 -25t32 -23q20 14 42.5 28t46.5 24v117zM259 353q6 7 14 14t19 15q-11 8 -19 15.5t-14 13.5v-58zM347 788h-116l119 205
h144z" />
    <glyph glyph-name="Racute" unicode="&#x155;" 
d="M14 0zM595 443q-78 0 -135.5 -16.5t-107.5 -44.5q50 -28 107.5 -44t135.5 -16v-251q0 -19 9 -26t28 -7h19v-38h-161q-81 0 -81 87v221q-24 11 -46.5 24.5t-42.5 28.5q-17 -12 -32 -24t-29 -25v-312h-245v38h20q19 0 27.5 7.5t8.5 30.5v604q0 23 -8.5 30.5t-27.5 7.5h-20
v38h320q70 0 119.5 -11t81 -31.5t46 -49t14.5 -64.5v-157zM409 573q0 42 -6 68.5t-16 41t-24 19.5t-29 5h-40q-20 0 -27.5 -13t-7.5 -30v-212q14 -13 29 -25t32 -23q20 14 42.5 28t46.5 24v117zM259 353q6 7 14 14t19 15q-11 8 -19 15.5t-14 13.5v-58zM347 788h-116l119 205
h144z" />
    <glyph glyph-name="Rcommaaccent" unicode="&#x156;" 
d="M14 0zM595 443q-78 0 -135.5 -16.5t-107.5 -44.5q50 -28 107.5 -44t135.5 -16v-251q0 -19 9 -26t28 -7h19v-38h-161q-81 0 -81 87v221q-24 11 -46.5 24.5t-42.5 28.5q-17 -12 -32 -24t-29 -25v-312h-245v38h20q19 0 27.5 7.5t8.5 30.5v604q0 23 -8.5 30.5t-27.5 7.5h-20
v38h320q70 0 119.5 -11t81 -31.5t46 -49t14.5 -64.5v-157zM409 573q0 42 -6 68.5t-16 41t-24 19.5t-29 5h-40q-20 0 -27.5 -13t-7.5 -30v-212q14 -13 29 -25t32 -23q20 14 42.5 28t46.5 24v117zM259 353q6 7 14 14t19 15q-11 8 -19 15.5t-14 13.5v-58zM340 -207h-116l54 173
h144z" />
    <glyph glyph-name="Rcommaaccent" unicode="&#x157;" 
d="M14 0zM595 443q-78 0 -135.5 -16.5t-107.5 -44.5q50 -28 107.5 -44t135.5 -16v-251q0 -19 9 -26t28 -7h19v-38h-161q-81 0 -81 87v221q-24 11 -46.5 24.5t-42.5 28.5q-17 -12 -32 -24t-29 -25v-312h-245v38h20q19 0 27.5 7.5t8.5 30.5v604q0 23 -8.5 30.5t-27.5 7.5h-20
v38h320q70 0 119.5 -11t81 -31.5t46 -49t14.5 -64.5v-157zM409 573q0 42 -6 68.5t-16 41t-24 19.5t-29 5h-40q-20 0 -27.5 -13t-7.5 -30v-212q14 -13 29 -25t32 -23q20 14 42.5 28t46.5 24v117zM259 353q6 7 14 14t19 15q-11 8 -19 15.5t-14 13.5v-58zM340 -207h-116l54 173
h144z" />
    <glyph glyph-name="Rcaron" unicode="&#x158;" 
d="M14 0zM595 443q-78 0 -135.5 -16.5t-107.5 -44.5q50 -28 107.5 -44t135.5 -16v-251q0 -19 9 -26t28 -7h19v-38h-161q-81 0 -81 87v221q-24 11 -46.5 24.5t-42.5 28.5q-17 -12 -32 -24t-29 -25v-312h-245v38h20q19 0 27.5 7.5t8.5 30.5v604q0 23 -8.5 30.5t-27.5 7.5h-20
v38h320q70 0 119.5 -11t81 -31.5t46 -49t14.5 -64.5v-157zM409 573q0 42 -6 68.5t-16 41t-24 19.5t-29 5h-40q-20 0 -27.5 -13t-7.5 -30v-212q14 -13 29 -25t32 -23q20 14 42.5 28t46.5 24v117zM259 353q6 7 14 14t19 15q-11 8 -19 15.5t-14 13.5v-58zM130 993h116l77 -114
l77 114h116l-125 -205h-136z" />
    <glyph glyph-name="Rcaron" unicode="&#x159;" 
d="M14 0zM595 443q-78 0 -135.5 -16.5t-107.5 -44.5q50 -28 107.5 -44t135.5 -16v-251q0 -19 9 -26t28 -7h19v-38h-161q-81 0 -81 87v221q-24 11 -46.5 24.5t-42.5 28.5q-17 -12 -32 -24t-29 -25v-312h-245v38h20q19 0 27.5 7.5t8.5 30.5v604q0 23 -8.5 30.5t-27.5 7.5h-20
v38h320q70 0 119.5 -11t81 -31.5t46 -49t14.5 -64.5v-157zM409 573q0 42 -6 68.5t-16 41t-24 19.5t-29 5h-40q-20 0 -27.5 -13t-7.5 -30v-212q14 -13 29 -25t32 -23q20 14 42.5 28t46.5 24v117zM259 353q6 7 14 14t19 15q-11 8 -19 15.5t-14 13.5v-58zM130 993h116l77 -114
l77 114h116l-125 -205h-136z" />
    <glyph glyph-name="Sacute" unicode="&#x15a;" horiz-adv-x="633" 
d="M57 0zM576 138q0 -33 -15.5 -60t-48 -46.5t-83 -30.5t-120.5 -11t-118 11t-78 30.5t-43 46.5t-13 60v51h172v-21q0 -41 6.5 -66t18 -39t26 -19t29.5 -5t30 5t27 19t19 39t7 66v145q-31 14 -62 33.5t-59 33.5q-88 46 -212 46v192q0 33 14.5 60t45.5 46.5t80 30.5t118 11
q70 0 117 -11t76 -30.5t41.5 -46.5t12.5 -60v-51h-171v21q0 41 -6 66t-16.5 39t-24 19t-29.5 5q-15 0 -29 -5t-24 -19t-16 -39t-6 -66v-148q32 -14 61.5 -33.5t58.5 -33.5q45 -23 99 -34.5t115 -11.5v-189zM331 788h-116l119 205h144z" />
    <glyph glyph-name="Sacute" unicode="&#x15b;" horiz-adv-x="633" 
d="M57 0zM576 138q0 -33 -15.5 -60t-48 -46.5t-83 -30.5t-120.5 -11t-118 11t-78 30.5t-43 46.5t-13 60v51h172v-21q0 -41 6.5 -66t18 -39t26 -19t29.5 -5t30 5t27 19t19 39t7 66v145q-31 14 -62 33.5t-59 33.5q-88 46 -212 46v192q0 33 14.5 60t45.5 46.5t80 30.5t118 11
q70 0 117 -11t76 -30.5t41.5 -46.5t12.5 -60v-51h-171v21q0 41 -6 66t-16.5 39t-24 19t-29.5 5q-15 0 -29 -5t-24 -19t-16 -39t-6 -66v-148q32 -14 61.5 -33.5t58.5 -33.5q45 -23 99 -34.5t115 -11.5v-189zM331 788h-116l119 205h144z" />
    <glyph glyph-name="Scedilla" unicode="&#x15e;" horiz-adv-x="633" 
d="M57 0zM576 138q0 -33 -15.5 -60t-48 -46.5t-83 -30.5t-120.5 -11t-118 11t-78 30.5t-43 46.5t-13 60v51h172v-21q0 -41 6.5 -66t18 -39t26 -19t29.5 -5t30 5t27 19t19 39t7 66v145q-31 14 -62 33.5t-59 33.5q-88 46 -212 46v192q0 33 14.5 60t45.5 46.5t80 30.5t118 11
q70 0 117 -11t76 -30.5t41.5 -46.5t12.5 -60v-51h-171v21q0 41 -6 66t-16.5 39t-24 19t-29.5 5q-15 0 -29 -5t-24 -19t-16 -39t-6 -66v-148q32 -14 61.5 -33.5t58.5 -33.5q45 -23 99 -34.5t115 -11.5v-189zM303 -207h-116l54 173h144z" />
    <glyph glyph-name="Scedilla" unicode="&#x219;" horiz-adv-x="633" 
d="M57 0zM576 138q0 -33 -15.5 -60t-48 -46.5t-83 -30.5t-120.5 -11t-118 11t-78 30.5t-43 46.5t-13 60v51h172v-21q0 -41 6.5 -66t18 -39t26 -19t29.5 -5t30 5t27 19t19 39t7 66v145q-31 14 -62 33.5t-59 33.5q-88 46 -212 46v192q0 33 14.5 60t45.5 46.5t80 30.5t118 11
q70 0 117 -11t76 -30.5t41.5 -46.5t12.5 -60v-51h-171v21q0 41 -6 66t-16.5 39t-24 19t-29.5 5q-15 0 -29 -5t-24 -19t-16 -39t-6 -66v-148q32 -14 61.5 -33.5t58.5 -33.5q45 -23 99 -34.5t115 -11.5v-189zM303 -207h-116l54 173h144z" />
    <glyph glyph-name="Scedilla" unicode="&#x218;" horiz-adv-x="633" 
d="M57 0zM576 138q0 -33 -15.5 -60t-48 -46.5t-83 -30.5t-120.5 -11t-118 11t-78 30.5t-43 46.5t-13 60v51h172v-21q0 -41 6.5 -66t18 -39t26 -19t29.5 -5t30 5t27 19t19 39t7 66v145q-31 14 -62 33.5t-59 33.5q-88 46 -212 46v192q0 33 14.5 60t45.5 46.5t80 30.5t118 11
q70 0 117 -11t76 -30.5t41.5 -46.5t12.5 -60v-51h-171v21q0 41 -6 66t-16.5 39t-24 19t-29.5 5q-15 0 -29 -5t-24 -19t-16 -39t-6 -66v-148q32 -14 61.5 -33.5t58.5 -33.5q45 -23 99 -34.5t115 -11.5v-189zM303 -207h-116l54 173h144z" />
    <glyph glyph-name="Scedilla" unicode="&#x15f;" horiz-adv-x="633" 
d="M57 0zM576 138q0 -33 -15.5 -60t-48 -46.5t-83 -30.5t-120.5 -11t-118 11t-78 30.5t-43 46.5t-13 60v51h172v-21q0 -41 6.5 -66t18 -39t26 -19t29.5 -5t30 5t27 19t19 39t7 66v145q-31 14 -62 33.5t-59 33.5q-88 46 -212 46v192q0 33 14.5 60t45.5 46.5t80 30.5t118 11
q70 0 117 -11t76 -30.5t41.5 -46.5t12.5 -60v-51h-171v21q0 41 -6 66t-16.5 39t-24 19t-29.5 5q-15 0 -29 -5t-24 -19t-16 -39t-6 -66v-148q32 -14 61.5 -33.5t58.5 -33.5q45 -23 99 -34.5t115 -11.5v-189zM303 -207h-116l54 173h144z" />
    <glyph glyph-name="Scaron" unicode="&#x160;" horiz-adv-x="633" 
d="M57 0zM576 138q0 -33 -15.5 -60t-48 -46.5t-83 -30.5t-120.5 -11t-118 11t-78 30.5t-43 46.5t-13 60v51h172v-21q0 -41 6.5 -66t18 -39t26 -19t29.5 -5t30 5t27 19t19 39t7 66v145q-31 14 -62 33.5t-59 33.5q-88 46 -212 46v192q0 33 14.5 60t45.5 46.5t80 30.5t118 11
q70 0 117 -11t76 -30.5t41.5 -46.5t12.5 -60v-51h-171v21q0 41 -6 66t-16.5 39t-24 19t-29.5 5q-15 0 -29 -5t-24 -19t-16 -39t-6 -66v-148q32 -14 61.5 -33.5t58.5 -33.5q45 -23 99 -34.5t115 -11.5v-189zM123 993h116l77 -114l77 114h116l-125 -205h-136z" />
    <glyph glyph-name="Scaron" unicode="&#x161;" horiz-adv-x="633" 
d="M57 0zM576 138q0 -33 -15.5 -60t-48 -46.5t-83 -30.5t-120.5 -11t-118 11t-78 30.5t-43 46.5t-13 60v51h172v-21q0 -41 6.5 -66t18 -39t26 -19t29.5 -5t30 5t27 19t19 39t7 66v145q-31 14 -62 33.5t-59 33.5q-88 46 -212 46v192q0 33 14.5 60t45.5 46.5t80 30.5t118 11
q70 0 117 -11t76 -30.5t41.5 -46.5t12.5 -60v-51h-171v21q0 41 -6 66t-16.5 39t-24 19t-29.5 5q-15 0 -29 -5t-24 -19t-16 -39t-6 -66v-148q32 -14 61.5 -33.5t58.5 -33.5q45 -23 99 -34.5t115 -11.5v-189zM123 993h116l77 -114l77 114h116l-125 -205h-136z" />
    <glyph glyph-name="Tcedilla" unicode="&#x162;" horiz-adv-x="613" 
d="M10 0zM603 756v-150h-46v40q0 15 -8 24.5t-25 9.5h-123v-604q0 -23 8.5 -30.5t27.5 -7.5h24v-38h-304v38h20q18 0 27 7.5t9 30.5v604h-124q-16 0 -24 -9.5t-8 -24.5v-40h-47v150h593zM303 -207h-116l54 173h144z" />
    <glyph glyph-name="Tcedilla" unicode="&#x21b;" horiz-adv-x="613" 
d="M10 0zM603 756v-150h-46v40q0 15 -8 24.5t-25 9.5h-123v-604q0 -23 8.5 -30.5t27.5 -7.5h24v-38h-304v38h20q18 0 27 7.5t9 30.5v604h-124q-16 0 -24 -9.5t-8 -24.5v-40h-47v150h593zM303 -207h-116l54 173h144z" />
    <glyph glyph-name="Tcedilla" unicode="&#x21a;" horiz-adv-x="613" 
d="M10 0zM603 756v-150h-46v40q0 15 -8 24.5t-25 9.5h-123v-604q0 -23 8.5 -30.5t27.5 -7.5h24v-38h-304v38h20q18 0 27 7.5t9 30.5v604h-124q-16 0 -24 -9.5t-8 -24.5v-40h-47v150h593zM303 -207h-116l54 173h144z" />
    <glyph glyph-name="Tcedilla" unicode="&#x163;" horiz-adv-x="613" 
d="M10 0zM603 756v-150h-46v40q0 15 -8 24.5t-25 9.5h-123v-604q0 -23 8.5 -30.5t27.5 -7.5h24v-38h-304v38h20q18 0 27 7.5t9 30.5v604h-124q-16 0 -24 -9.5t-8 -24.5v-40h-47v150h593zM303 -207h-116l54 173h144z" />
    <glyph glyph-name="Tcaron" unicode="&#x164;" horiz-adv-x="613" 
d="M10 0zM603 756v-150h-46v40q0 15 -8 24.5t-25 9.5h-123v-604q0 -23 8.5 -30.5t27.5 -7.5h24v-38h-304v38h20q18 0 27 7.5t9 30.5v604h-124q-16 0 -24 -9.5t-8 -24.5v-40h-47v150h593zM113 993h116l77 -114l77 114h116l-125 -205h-136z" />
    <glyph glyph-name="Tcaron" unicode="&#x165;" horiz-adv-x="613" 
d="M10 0zM603 756v-150h-46v40q0 15 -8 24.5t-25 9.5h-123v-604q0 -23 8.5 -30.5t27.5 -7.5h24v-38h-304v38h20q18 0 27 7.5t9 30.5v604h-124q-16 0 -24 -9.5t-8 -24.5v-40h-47v150h593zM113 993h116l77 -114l77 114h116l-125 -205h-136z" />
    <glyph glyph-name="Tbar" unicode="&#x166;" horiz-adv-x="613" 
d="M70 399h143v281h-124q-16 0 -24 -9.5t-8 -24.5v-40h-47v150h593v-150h-46v40q0 15 -8 24.5t-25 9.5h-123v-281h142v-46h-142v-277q0 -23 8.5 -30.5t27.5 -7.5h24v-38h-304v38h20q18 0 27 7.5t9 30.5v277h-143v46z" />
    <glyph glyph-name="Tbar" unicode="&#x167;" horiz-adv-x="613" 
d="M70 399h143v281h-124q-16 0 -24 -9.5t-8 -24.5v-40h-47v150h593v-150h-46v40q0 15 -8 24.5t-25 9.5h-123v-281h142v-46h-142v-277q0 -23 8.5 -30.5t27.5 -7.5h24v-38h-304v38h20q18 0 27 7.5t9 30.5v277h-143v46z" />
    <glyph glyph-name="Utilde" unicode="&#x168;" 
d="M14 0zM651 756v-38h-19q-20 0 -28 -7t-8 -26v-609q0 -23 8.5 -30.5t27.5 -7.5h19v-38h-319q-70 0 -119.5 11t-81 31.5t-46 49.5t-14.5 64v529q0 19 -9 26t-28 7h-20v38h243v-573q0 -42 6 -68.5t16 -41t24 -19.5t29 -5h40q20 0 27.5 13t7.5 30v664h244zM96 927h473v-74
h-473v74z" />
    <glyph glyph-name="Utilde" unicode="&#x169;" 
d="M14 0zM651 756v-38h-19q-20 0 -28 -7t-8 -26v-609q0 -23 8.5 -30.5t27.5 -7.5h19v-38h-319q-70 0 -119.5 11t-81 31.5t-46 49.5t-14.5 64v529q0 19 -9 26t-28 7h-20v38h243v-573q0 -42 6 -68.5t16 -41t24 -19.5t29 -5h40q20 0 27.5 13t7.5 30v664h244zM96 927h473v-74
h-473v74z" />
    <glyph glyph-name="Umacron" unicode="&#x16a;" 
d="M14 0zM651 756v-38h-19q-20 0 -28 -7t-8 -26v-609q0 -23 8.5 -30.5t27.5 -7.5h19v-38h-319q-70 0 -119.5 11t-81 31.5t-46 49.5t-14.5 64v529q0 19 -9 26t-28 7h-20v38h243v-573q0 -42 6 -68.5t16 -41t24 -19.5t29 -5h40q20 0 27.5 13t7.5 30v664h244zM96 927h473v-74
h-473v74z" />
    <glyph glyph-name="Umacron" unicode="&#x16b;" 
d="M14 0zM651 756v-38h-19q-20 0 -28 -7t-8 -26v-609q0 -23 8.5 -30.5t27.5 -7.5h19v-38h-319q-70 0 -119.5 11t-81 31.5t-46 49.5t-14.5 64v529q0 19 -9 26t-28 7h-20v38h243v-573q0 -42 6 -68.5t16 -41t24 -19.5t29 -5h40q20 0 27.5 13t7.5 30v664h244zM96 927h473v-74
h-473v74z" />
    <glyph glyph-name="Uring" unicode="&#x16e;" 
d="M14 0zM651 756v-38h-19q-20 0 -28 -7t-8 -26v-609q0 -23 8.5 -30.5t27.5 -7.5h19v-38h-319q-70 0 -119.5 11t-81 31.5t-46 49.5t-14.5 64v529q0 19 -9 26t-28 7h-20v38h243v-573q0 -42 6 -68.5t16 -41t24 -19.5t29 -5h40q20 0 27.5 13t7.5 30v664h244zM227 888
q0 22 8.5 41t22.5 33t33.5 22.5t42.5 8.5q22 0 41 -8.5t33 -22.5t22.5 -33t8.5 -41q0 -23 -8.5 -42.5t-22.5 -33.5t-33 -22.5t-41 -8.5q-23 0 -42.5 8.5t-33.5 22.5t-22.5 33.5t-8.5 42.5zM273 888q0 -26 17.5 -43.5t43.5 -17.5q25 0 42 17.5t17 43.5q0 25 -17 42t-42 17
q-26 0 -43.5 -17t-17.5 -42z" />
    <glyph glyph-name="Uring" unicode="&#x16f;" 
d="M14 0zM651 756v-38h-19q-20 0 -28 -7t-8 -26v-609q0 -23 8.5 -30.5t27.5 -7.5h19v-38h-319q-70 0 -119.5 11t-81 31.5t-46 49.5t-14.5 64v529q0 19 -9 26t-28 7h-20v38h243v-573q0 -42 6 -68.5t16 -41t24 -19.5t29 -5h40q20 0 27.5 13t7.5 30v664h244zM227 888
q0 22 8.5 41t22.5 33t33.5 22.5t42.5 8.5q22 0 41 -8.5t33 -22.5t22.5 -33t8.5 -41q0 -23 -8.5 -42.5t-22.5 -33.5t-33 -22.5t-41 -8.5q-23 0 -42.5 8.5t-33.5 22.5t-22.5 33.5t-8.5 42.5zM273 888q0 -26 17.5 -43.5t43.5 -17.5q25 0 42 17.5t17 43.5q0 25 -17 42t-42 17
q-26 0 -43.5 -17t-17.5 -42z" />
    <glyph glyph-name="Uhungarumlaut" unicode="&#x170;" 
d="M14 0zM651 756v-38h-19q-20 0 -28 -7t-8 -26v-609q0 -23 8.5 -30.5t27.5 -7.5h19v-38h-319q-70 0 -119.5 11t-81 31.5t-46 49.5t-14.5 64v529q0 19 -9 26t-28 7h-20v38h243v-573q0 -42 6 -68.5t16 -41t24 -19.5t29 -5h40q20 0 27.5 13t7.5 30v664h244zM228 788h-116
l112 205h144zM451 788h-123l135 205h151z" />
    <glyph glyph-name="Uhungarumlaut" unicode="&#x171;" 
d="M14 0zM651 756v-38h-19q-20 0 -28 -7t-8 -26v-609q0 -23 8.5 -30.5t27.5 -7.5h19v-38h-319q-70 0 -119.5 11t-81 31.5t-46 49.5t-14.5 64v529q0 19 -9 26t-28 7h-20v38h243v-573q0 -42 6 -68.5t16 -41t24 -19.5t29 -5h40q20 0 27.5 13t7.5 30v664h244zM228 788h-116
l112 205h144zM451 788h-123l135 205h151z" />
    <glyph glyph-name="Uogonek" unicode="&#x172;" 
d="M332 0q-70 0 -119.5 11t-81 31.5t-46 49.5t-14.5 64v529q0 19 -9 26t-28 7h-20v38h243v-573q0 -42 6 -68.5t16 -41t24 -19.5t29 -5h40q20 0 27.5 13t7.5 30v664h244v-38h-19q-20 0 -28 -7t-8 -26v-609q0 -23 8.5 -30.5t27.5 -7.5h19v-38h-68q-57 -14 -81.5 -34.5
t-24.5 -36.5q0 -13 22 -13h94v-121h-127q-50 0 -77.5 15t-27.5 56q0 47 39.5 82t127.5 52h-196z" />
    <glyph glyph-name="Uogonek" unicode="&#x173;" 
d="M332 0q-70 0 -119.5 11t-81 31.5t-46 49.5t-14.5 64v529q0 19 -9 26t-28 7h-20v38h243v-573q0 -42 6 -68.5t16 -41t24 -19.5t29 -5h40q20 0 27.5 13t7.5 30v664h244v-38h-19q-20 0 -28 -7t-8 -26v-609q0 -23 8.5 -30.5t27.5 -7.5h19v-38h-68q-57 -14 -81.5 -34.5
t-24.5 -36.5q0 -13 22 -13h94v-121h-127q-50 0 -77.5 15t-27.5 56q0 47 39.5 82t127.5 52h-196z" />
    <glyph glyph-name="Wcircumflex" unicode="&#x174;" horiz-adv-x="998" 
d="M14 0zM983 718h-17q-25 0 -35 -38l-188 -680h-153l-78 326q-3 12 -9 18.5t-12 6.5q-15 0 -21 -25l-92 -326h-153l-159 680q-9 38 -34 38h-18v38h234l99 -480q2 -11 8 -16.5t12 -5.5q15 0 21 21l73 240l-41 165q-9 38 -34 38h-17v38h233l108 -480q2 -11 7.5 -16.5
t11.5 -5.5q14 0 20 22l124 480h110v-38zM692 788h-116l-77 114l-77 -114h-116l125 205h136z" />
    <glyph glyph-name="Wcircumflex" unicode="&#x175;" horiz-adv-x="998" 
d="M14 0zM983 718h-17q-25 0 -35 -38l-188 -680h-153l-78 326q-3 12 -9 18.5t-12 6.5q-15 0 -21 -25l-92 -326h-153l-159 680q-9 38 -34 38h-18v38h234l99 -480q2 -11 8 -16.5t12 -5.5q15 0 21 21l73 240l-41 165q-9 38 -34 38h-17v38h233l108 -480q2 -11 7.5 -16.5
t11.5 -5.5q14 0 20 22l124 480h110v-38zM692 788h-116l-77 114l-77 -114h-116l125 205h136z" />
    <glyph glyph-name="Ycircumflex" unicode="&#x176;" horiz-adv-x="668" 
d="M14 0zM653 718h-18q-14 0 -22.5 -8t-19.5 -30l-176 -340v-264q0 -23 8.5 -30.5t27.5 -7.5h25v-38h-304v38h19q19 0 27.5 7.5t8.5 30.5v252l-154 352q-9 21 -18.5 29.5t-23.5 8.5h-19v38h234l112 -271q8 -24 23 -24q16 0 27 24l141 271h102v-38zM527 788h-116l-77 114
l-77 -114h-116l125 205h136z" />
    <glyph glyph-name="Ycircumflex" unicode="&#x177;" horiz-adv-x="668" 
d="M14 0zM653 718h-18q-14 0 -22.5 -8t-19.5 -30l-176 -340v-264q0 -23 8.5 -30.5t27.5 -7.5h25v-38h-304v38h19q19 0 27.5 7.5t8.5 30.5v252l-154 352q-9 21 -18.5 29.5t-23.5 8.5h-19v38h234l112 -271q8 -24 23 -24q16 0 27 24l141 271h102v-38zM527 788h-116l-77 114
l-77 -114h-116l125 205h136z" />
    <glyph glyph-name="Zacute" unicode="&#x179;" horiz-adv-x="533" 
d="M21 0zM237 124q-7 -13 -7 -24q0 -12 8 -20t25 -8h171q16 0 24 9.5t8 24.5v44h47v-150h-492v80l278 554q7 13 7 24q0 12 -8.5 20t-24.5 8h-173q-17 0 -25 -9.5t-8 -24.5v-46h-46v150h492v-66zM281 788h-116l119 205h144z" />
    <glyph glyph-name="Zacute" unicode="&#x17a;" horiz-adv-x="533" 
d="M21 0zM237 124q-7 -13 -7 -24q0 -12 8 -20t25 -8h171q16 0 24 9.5t8 24.5v44h47v-150h-492v80l278 554q7 13 7 24q0 12 -8.5 20t-24.5 8h-173q-17 0 -25 -9.5t-8 -24.5v-46h-46v150h492v-66zM281 788h-116l119 205h144z" />
    <glyph glyph-name="Zdotaccent" unicode="&#x17b;" horiz-adv-x="533" 
d="M21 0zM237 124q-7 -13 -7 -24q0 -12 8 -20t25 -8h171q16 0 24 9.5t8 24.5v44h47v-150h-492v80l278 554q7 13 7 24q0 12 -8.5 20t-24.5 8h-173q-17 0 -25 -9.5t-8 -24.5v-46h-46v150h492v-66zM190 889q0 32 22 54.5t54 22.5q33 0 55 -22.5t22 -54.5t-22 -54t-55 -22
q-32 0 -54 22t-22 54z" />
    <glyph glyph-name="Zdotaccent" unicode="&#x17c;" horiz-adv-x="533" 
d="M21 0zM237 124q-7 -13 -7 -24q0 -12 8 -20t25 -8h171q16 0 24 9.5t8 24.5v44h47v-150h-492v80l278 554q7 13 7 24q0 12 -8.5 20t-24.5 8h-173q-17 0 -25 -9.5t-8 -24.5v-46h-46v150h492v-66zM190 889q0 32 22 54.5t54 22.5q33 0 55 -22.5t22 -54.5t-22 -54t-55 -22
q-32 0 -54 22t-22 54z" />
    <glyph glyph-name="Zcaron" unicode="&#x17d;" horiz-adv-x="533" 
d="M21 0zM237 124q-7 -13 -7 -24q0 -12 8 -20t25 -8h171q16 0 24 9.5t8 24.5v44h47v-150h-492v80l278 554q7 13 7 24q0 12 -8.5 20t-24.5 8h-173q-17 0 -25 -9.5t-8 -24.5v-46h-46v150h492v-66zM73 993h116l77 -114l77 114h116l-125 -205h-136z" />
    <glyph glyph-name="Zcaron" unicode="&#x17e;" horiz-adv-x="533" 
d="M21 0zM237 124q-7 -13 -7 -24q0 -12 8 -20t25 -8h171q16 0 24 9.5t8 24.5v44h47v-150h-492v80l278 554q7 13 7 24q0 12 -8.5 20t-24.5 8h-173q-17 0 -25 -9.5t-8 -24.5v-46h-46v150h492v-66zM73 993h116l77 -114l77 114h116l-125 -205h-136z" />
    <glyph glyph-name="uni01F4" unicode="&#x1f4;" horiz-adv-x="600" 
d="M57 0zM299 -10q-118 0 -180 41t-62 107v480q0 33 14.5 60t46 46.5t81 30.5t118.5 11q70 0 117 -11t76 -30.5t41.5 -46.5t12.5 -60v-51h-171v21q0 41 -6 66t-16.5 39t-24 19t-29.5 5q-15 0 -29 -5t-24 -19t-16 -39t-6 -66v-144q31 -28 65.5 -52t74 -41t84.5 -27t98 -10
v-314h-46v22q0 17 -24 17q-14 0 -26.5 -7.5t-32.5 -17t-52 -17t-84 -7.5zM393 299q-22 10 -44.5 23.5t-42.5 28t-36.5 28t-27.5 24.5v-235q0 -41 6 -66t16 -39t24 -19t29 -5q16 0 29.5 5t24 19t16.5 39t6 66v131zM314 788h-116l119 205h144z" />
    <glyph glyph-name="uni01F4" unicode="&#x1f5;" horiz-adv-x="600" 
d="M57 0zM299 -10q-118 0 -180 41t-62 107v480q0 33 14.5 60t46 46.5t81 30.5t118.5 11q70 0 117 -11t76 -30.5t41.5 -46.5t12.5 -60v-51h-171v21q0 41 -6 66t-16.5 39t-24 19t-29.5 5q-15 0 -29 -5t-24 -19t-16 -39t-6 -66v-144q31 -28 65.5 -52t74 -41t84.5 -27t98 -10
v-314h-46v22q0 17 -24 17q-14 0 -26.5 -7.5t-32.5 -17t-52 -17t-84 -7.5zM393 299q-22 10 -44.5 23.5t-42.5 28t-36.5 28t-27.5 24.5v-235q0 -41 6 -66t16 -39t24 -19t29 -5q16 0 29.5 5t24 19t16.5 39t6 66v131zM314 788h-116l119 205h144z" />
    <glyph glyph-name="uni01F8" unicode="&#x1f8;" 
d="M14 0zM34 38q20 0 28 7t8 26v609q0 23 -8.5 30.5t-27.5 7.5h-20v38h320q70 0 119.5 -11t81 -31.5t46 -49t14.5 -64.5v-529q0 -19 9 -26t28 -7h19v-38h-242v573q0 42 -6 68.5t-16 41t-24 19.5t-29 5h-40q-20 0 -27.5 -13t-7.5 -30v-664h-245v38h20v0zM171 993h144
l119 -205h-116z" />
    <glyph glyph-name="uni01F8" unicode="&#x1f9;" 
d="M14 0zM34 38q20 0 28 7t8 26v609q0 23 -8.5 30.5t-27.5 7.5h-20v38h320q70 0 119.5 -11t81 -31.5t46 -49t14.5 -64.5v-529q0 -19 9 -26t28 -7h19v-38h-242v573q0 42 -6 68.5t-16 41t-24 19.5t-29 5h-40q-20 0 -27.5 -13t-7.5 -30v-664h-245v38h20v0zM171 993h144
l119 -205h-116z" />
    <glyph glyph-name="circumflex" unicode="&#x2c6;" horiz-adv-x="386" 
d="M386 788h-116l-77 114l-77 -114h-116l125 205h136z" />
    <glyph glyph-name="caron" unicode="&#x2c7;" horiz-adv-x="386" 
d="M0 993h116l77 -114l77 114h116l-125 -205h-136z" />
    <glyph glyph-name="breve" unicode="&#x2d8;" horiz-adv-x="378" 
d="M189 807q-79 0 -130.5 47t-58.5 139h95q4 -57 30 -86.5t64 -29.5t64 29.5t31 86.5h94q-7 -92 -58.5 -139t-130.5 -47z" />
    <glyph glyph-name="dotaccent" unicode="&#x2d9;" horiz-adv-x="184" 
d="M15 889q0 32 22 54.5t54 22.5q33 0 55 -22.5t22 -54.5t-22 -54t-55 -22q-32 0 -54 22t-22 54z" />
    <glyph glyph-name="ring" unicode="&#x2da;" horiz-adv-x="273" 
d="M30 888q0 22 8.5 41t22.5 33t33.5 22.5t42.5 8.5q22 0 41 -8.5t33 -22.5t22.5 -33t8.5 -41q0 -23 -8.5 -42.5t-22.5 -33.5t-33 -22.5t-41 -8.5q-23 0 -42.5 8.5t-33.5 22.5t-22.5 33.5t-8.5 42.5zM76 888q0 -26 17.5 -43.5t43.5 -17.5q25 0 42 17.5t17 43.5q0 25 -17 42
t-42 17q-26 0 -43.5 -17t-17.5 -42z" />
    <glyph glyph-name="ogonek" unicode="&#x2db;" horiz-adv-x="283" 
d="M247 0q-57 -14 -81.5 -34.5t-24.5 -36.5q0 -13 22 -13h94v-121h-127q-50 0 -77.5 15t-27.5 56q0 47 39.5 82t127.5 52h55z" />
    <glyph glyph-name="tilde" unicode="&#x2dc;" horiz-adv-x="524" 
d="M25 927h473v-74h-473v74z" />
    <glyph glyph-name="hungarumlaut" unicode="&#x2dd;" horiz-adv-x="502" 
d="M116 788h-116l112 205h144zM339 788h-123l135 205h151z" />
    <glyph glyph-name="gravecomb" unicode="&#x300;" horiz-adv-x="0" 
d="M-121 788zM-384 993h144l119 -205h-116z" />
    <glyph glyph-name="acutecomb" unicode="&#x301;" horiz-adv-x="0" 
d="M-122 788zM-269 788h-116l119 205h144z" />
    <glyph glyph-name="uni0302" unicode="&#x302;" horiz-adv-x="0" 
d="M-59 788zM-59 788h-116l-77 114l-77 -114h-116l125 205h136z" />
    <glyph glyph-name="tildecomb" unicode="&#x303;" horiz-adv-x="0" 
d="M-16 853zM-489 927h473v-74h-473v74z" />
    <glyph glyph-name="uni0304" unicode="&#x304;" horiz-adv-x="0" 
d="M-16 853zM-489 927h473v-74h-473v74z" />
    <glyph glyph-name="uni0306" unicode="&#x306;" horiz-adv-x="0" 
d="M-62 807zM-251 807q-79 0 -130.5 47t-58.5 139h95q4 -57 30 -86.5t64 -29.5t64 29.5t31 86.5h94q-7 -92 -58.5 -139t-130.5 -47z" />
    <glyph glyph-name="uni0307" unicode="&#x307;" horiz-adv-x="0" 
d="M-174 813zM-327 889q0 32 22 54.5t54 22.5q33 0 55 -22.5t22 -54.5t-22 -54t-55 -22q-32 0 -54 22t-22 54z" />
    <glyph glyph-name="uni0308" unicode="&#x308;" horiz-adv-x="0" 
d="M-62 813zM-216 889q0 32 22 54.5t54 22.5q33 0 55.5 -22.5t22.5 -54.5t-22.5 -54t-55.5 -22q-32 0 -54 22t-22 54zM-442 889q0 32 22 54.5t54 22.5q33 0 55 -22.5t22 -54.5t-22 -54t-55 -22q-32 0 -54 22t-22 54z" />
    <glyph glyph-name="uni030A" unicode="&#x30a;" horiz-adv-x="0" 
d="M-148 781zM-360 888q0 22 8.5 41t22.5 33t33.5 22.5t42.5 8.5q22 0 41 -8.5t33 -22.5t22.5 -33t8.5 -41q0 -23 -8.5 -42.5t-22.5 -33.5t-33 -22.5t-41 -8.5q-23 0 -42.5 8.5t-33.5 22.5t-22.5 33.5t-8.5 42.5zM-314 888q0 -26 17.5 -43.5t43.5 -17.5q25 0 42 17.5
t17 43.5q0 25 -17 42t-42 17q-26 0 -43.5 -17t-17.5 -42z" />
    <glyph glyph-name="uni030B" unicode="&#x30b;" horiz-adv-x="0" 
d="M0 788zM-385 788h-116l112 205h144zM-162 788h-123l135 205h151z" />
    <glyph glyph-name="uni030C" unicode="&#x30c;" horiz-adv-x="0" 
d="M-58 788zM-444 993h116l77 -114l77 114h116l-125 -205h-136z" />
    <glyph glyph-name="uni0313" unicode="&#x313;" horiz-adv-x="0" 
d="M-164 721zM-190 963q-11 -3 -23 -9.5t-22.5 -16.5t-19 -21.5t-11.5 -23.5q7 3 20 3q40 0 61 -24.5t21 -58.5q0 -39 -26 -65t-64 -26q-35 0 -61.5 25.5t-26.5 70.5q0 28 11.5 57.5t32 54.5t48.5 42t60 22v-30z" />
    <glyph glyph-name="dotbelowcomb" unicode="&#x323;" horiz-adv-x="0" 
d="M-177 -34zM-330 -111q0 32 22 54.5t54 22.5q33 0 55 -22.5t22 -54.5t-22 -54t-55 -22q-32 0 -54 22t-22 54z" />
    <glyph glyph-name="uni0326" unicode="&#x326;" horiz-adv-x="0" 
d="M-153 -34zM-235 -207h-116l54 173h144z" />
    <glyph glyph-name="uni0328" unicode="&#x328;" horiz-adv-x="0" 
d="M-135 0zM-145 0q-57 -14 -81.5 -34.5t-24.5 -36.5q0 -13 22 -13h94v-121h-127q-50 0 -77.5 15t-27.5 56q0 47 39.5 82t127.5 52h55z" />
    <glyph glyph-name="uni032D" unicode="&#x32d;" horiz-adv-x="0" 
d="M-60 -205h-116l-77 96l-77 -96h-116l125 173h136z" />
    <glyph glyph-name="Wgrave" unicode="&#x1e80;" horiz-adv-x="998" 
d="M14 0zM983 718h-17q-25 0 -35 -38l-188 -680h-153l-78 326q-3 12 -9 18.5t-12 6.5q-15 0 -21 -25l-92 -326h-153l-159 680q-9 38 -34 38h-18v38h234l99 -480q2 -11 8 -16.5t12 -5.5q15 0 21 21l73 240l-41 165q-9 38 -34 38h-17v38h233l108 -480q2 -11 7.5 -16.5
t11.5 -5.5q14 0 20 22l124 480h110v-38zM337 993h144l119 -205h-116z" />
    <glyph glyph-name="Wgrave" unicode="&#x1e81;" horiz-adv-x="998" 
d="M14 0zM983 718h-17q-25 0 -35 -38l-188 -680h-153l-78 326q-3 12 -9 18.5t-12 6.5q-15 0 -21 -25l-92 -326h-153l-159 680q-9 38 -34 38h-18v38h234l99 -480q2 -11 8 -16.5t12 -5.5q15 0 21 21l73 240l-41 165q-9 38 -34 38h-17v38h233l108 -480q2 -11 7.5 -16.5
t11.5 -5.5q14 0 20 22l124 480h110v-38zM337 993h144l119 -205h-116z" />
    <glyph glyph-name="Wacute" unicode="&#x1e82;" horiz-adv-x="998" 
d="M14 0zM983 718h-17q-25 0 -35 -38l-188 -680h-153l-78 326q-3 12 -9 18.5t-12 6.5q-15 0 -21 -25l-92 -326h-153l-159 680q-9 38 -34 38h-18v38h234l99 -480q2 -11 8 -16.5t12 -5.5q15 0 21 21l73 240l-41 165q-9 38 -34 38h-17v38h233l108 -480q2 -11 7.5 -16.5
t11.5 -5.5q14 0 20 22l124 480h110v-38zM513 788h-116l119 205h144z" />
    <glyph glyph-name="Wacute" unicode="&#x1e83;" horiz-adv-x="998" 
d="M14 0zM983 718h-17q-25 0 -35 -38l-188 -680h-153l-78 326q-3 12 -9 18.5t-12 6.5q-15 0 -21 -25l-92 -326h-153l-159 680q-9 38 -34 38h-18v38h234l99 -480q2 -11 8 -16.5t12 -5.5q15 0 21 21l73 240l-41 165q-9 38 -34 38h-17v38h233l108 -480q2 -11 7.5 -16.5
t11.5 -5.5q14 0 20 22l124 480h110v-38zM513 788h-116l119 205h144z" />
    <glyph glyph-name="Wdieresis" unicode="&#x1e84;" horiz-adv-x="998" 
d="M14 0zM983 718h-17q-25 0 -35 -38l-188 -680h-153l-78 326q-3 12 -9 18.5t-12 6.5q-15 0 -21 -25l-92 -326h-153l-159 680q-9 38 -34 38h-18v38h234l99 -480q2 -11 8 -16.5t12 -5.5q15 0 21 21l73 240l-41 165q-9 38 -34 38h-17v38h233l108 -480q2 -11 7.5 -16.5
t11.5 -5.5q14 0 20 22l124 480h110v-38zM535 889q0 32 22 54.5t54 22.5q33 0 55.5 -22.5t22.5 -54.5t-22.5 -54t-55.5 -22q-32 0 -54 22t-22 54zM309 889q0 32 22 54.5t54 22.5q33 0 55 -22.5t22 -54.5t-22 -54t-55 -22q-32 0 -54 22t-22 54z" />
    <glyph glyph-name="Wdieresis" unicode="&#x1e85;" horiz-adv-x="998" 
d="M14 0zM983 718h-17q-25 0 -35 -38l-188 -680h-153l-78 326q-3 12 -9 18.5t-12 6.5q-15 0 -21 -25l-92 -326h-153l-159 680q-9 38 -34 38h-18v38h234l99 -480q2 -11 8 -16.5t12 -5.5q15 0 21 21l73 240l-41 165q-9 38 -34 38h-17v38h233l108 -480q2 -11 7.5 -16.5
t11.5 -5.5q14 0 20 22l124 480h110v-38zM535 889q0 32 22 54.5t54 22.5q33 0 55.5 -22.5t22.5 -54.5t-22.5 -54t-55.5 -22q-32 0 -54 22t-22 54zM309 889q0 32 22 54.5t54 22.5q33 0 55 -22.5t22 -54.5t-22 -54t-55 -22q-32 0 -54 22t-22 54z" />
    <glyph glyph-name="uni1E9E" unicode="&#x1e9e;" horiz-adv-x="651" 
d="M408 325q-12 6 -24.5 12.5t-26.5 14t-31.5 17.5t-41.5 24q24 14 41.5 24l31.5 18t26.5 14.5t24.5 12.5v202q0 17 -7.5 30t-27.5 13h-41q-15 0 -29 -5t-24 -19.5t-16 -41t-6 -68.5v-573h-243v38h20q19 0 28 7t9 26v529q0 35 14.5 64t46 49.5t81 31.5t119.5 11h262v-302
q-77 0 -135.5 -16.5t-107.5 -44.5q49 -28 107.5 -44t135.5 -16v-195q0 -33 -14.5 -60t-46 -46.5t-81 -30.5t-119.5 -11v49q15 0 29 5t24 19t16 39t6 66v157z" />
    <glyph glyph-name="endash" unicode="&#x2013;" horiz-adv-x="412" 
d="M14 409h383v-54h-383v54z" />
    <glyph glyph-name="emdash" unicode="&#x2014;" horiz-adv-x="602" 
d="M14 409h573v-54h-573v54z" />
    <glyph glyph-name="quoteleft" unicode="&#x2018;" horiz-adv-x="228" 
d="M177 780q-11 -3 -23 -9.5t-22.5 -16.5t-19 -21.5t-11.5 -23.5q7 3 20 3q40 0 61 -24.5t21 -58.5q0 -39 -26 -65t-64 -26q-35 0 -61.5 25.5t-26.5 70.5q0 28 11.5 57.5t32 54.5t48.5 42t60 22v-30z" />
    <glyph glyph-name="quoteright" unicode="&#x2019;" horiz-adv-x="228" 
d="M51 546q10 3 22.5 9.5t23 16.5t19 21t11.5 23q-8 -3 -20 -3q-40 0 -61 24.5t-21 59.5q0 19 7 35.5t19 28.5t28.5 19t35.5 7q35 0 61.5 -25.5t26.5 -70.5q0 -29 -11.5 -58t-32 -54t-48.5 -42t-60 -21v30z" />
    <glyph glyph-name="quotesinglbase" unicode="&#x201a;" horiz-adv-x="228" 
d="M25 0zM51 -73q10 3 22.5 9.5t23 16.5t19 21.5t11.5 23.5q-8 -3 -20 -3q-40 0 -61 24.5t-21 58.5q0 19 7 35.5t19 28.5t28.5 19t35.5 7q35 0 61.5 -25t26.5 -70q0 -29 -11.5 -58t-32 -54t-48.5 -42.5t-60 -21.5v30z" />
    <glyph glyph-name="quotedblleft" unicode="&#x201c;" horiz-adv-x="456" 
d="M25 538zM177 780q-11 -3 -23 -9.5t-22.5 -16.5t-19 -21.5t-11.5 -23.5q7 3 20 3q40 0 61 -24.5t21 -58.5q0 -39 -26 -65t-64 -26q-35 0 -61.5 25.5t-26.5 70.5q0 28 11.5 57.5t32 54.5t48.5 42t60 22v-30zM405 780q-11 -3 -23 -9.5t-22.5 -16.5t-19 -21.5t-11.5 -23.5
q7 3 20 3q40 0 61 -24.5t21 -58.5q0 -39 -26 -65t-64 -26q-35 0 -61.5 25.5t-26.5 70.5q0 28 11.5 57.5t32 54.5t48.5 42t60 22v-30z" />
    <glyph glyph-name="quotedblright" unicode="&#x201d;" horiz-adv-x="456" 
d="M25 516zM51 546q10 3 22.5 9.5t23 16.5t19 21t11.5 23q-8 -3 -20 -3q-40 0 -61 24.5t-21 59.5q0 19 7 35.5t19 28.5t28.5 19t35.5 7q35 0 61.5 -25.5t26.5 -70.5q0 -29 -11.5 -58t-32 -54t-48.5 -42t-60 -21v30zM279 546q10 3 22.5 9.5t23 16.5t19 21t11.5 23
q-8 -3 -20 -3q-40 0 -61 24.5t-21 59.5q0 19 7 35.5t19 28.5t28.5 19t35.5 7q35 0 61.5 -25.5t26.5 -70.5q0 -29 -11.5 -58t-32 -54t-48.5 -42t-60 -21v30z" />
    <glyph glyph-name="quotedblbase" unicode="&#x201e;" horiz-adv-x="456" 
d="M25 0zM51 -73q10 3 22.5 9.5t23 16.5t19 21.5t11.5 23.5q-8 -3 -20 -3q-40 0 -61 24.5t-21 58.5q0 19 7 35.5t19 28.5t28.5 19t35.5 7q35 0 61.5 -25t26.5 -70q0 -29 -11.5 -58t-32 -54t-48.5 -42.5t-60 -21.5v30zM279 -73q10 3 22.5 9.5t23 16.5t19 21.5t11.5 23.5
q-8 -3 -20 -3q-40 0 -61 24.5t-21 58.5q0 19 7 35.5t19 28.5t28.5 19t35.5 7q35 0 61.5 -25t26.5 -70q0 -29 -11.5 -58t-32 -54t-48.5 -42.5t-60 -21.5v30z" />
    <glyph glyph-name="bullet" unicode="&#x2022;" horiz-adv-x="425" 
d="M44 382q0 35 13 66t36 54t54 36t66 13t65.5 -13t53.5 -36t36 -54t13 -66t-13 -65.5t-36 -53.5t-53.5 -36t-65.5 -13t-66 13t-54 36t-36 53.5t-13 65.5z" />
    <glyph glyph-name="ellipsis" unicode="&#x2026;" horiz-adv-x="684" 
d="M25 0zM25 79q0 37 26 63t63 26t63 -26t26 -63t-26 -63t-63 -26t-63 26t-26 63zM253 79q0 37 26 63t63 26t63 -26t26 -63t-26 -63t-63 -26t-63 26t-26 63zM481 79q0 37 26 63t63 26t63 -26t26 -63t-26 -63t-63 -26t-63 26t-26 63z" />
    <glyph glyph-name="guilsinglleft" unicode="&#x2039;" horiz-adv-x="177" 
d="M105 563h63l-96 -281l96 -282h-63l-97 282z" />
    <glyph glyph-name="guilsinglright" unicode="&#x203a;" horiz-adv-x="177" 
d="M168 282l-96 -282h-64l97 282l-97 281h64z" />
    <glyph glyph-name="fraction" unicode="&#x2044;" horiz-adv-x="195" 
d="M360 756h64l-588 -756h-64z" />
    <glyph glyph-name="zerosuperior" unicode="&#x2070;" horiz-adv-x="379" 
d="M41 329zM188 367q14 0 24.5 12t10.5 52v228q0 40 -10.5 52t-24.5 12t-24.5 -12t-10.5 -52v-228q0 -40 10.5 -52t24.5 -12zM188 329q-78 0 -112.5 24.5t-34.5 62.5v260q0 38 34.5 61.5t112.5 23.5q79 0 113 -23.5t34 -61.5v-260q0 -38 -34 -62.5t-113 -24.5z" />
    <glyph glyph-name="foursuperior" unicode="&#x2074;" horiz-adv-x="400" 
d="M18 335zM49 712q0 12 -14 12h-17v32h145v-227q15 6 36 18t35 24v185h145v-32h-17q-14 0 -14 -12v-330q0 -15 13 -15h17v-32h-175v32h17q14 0 14 15v150q-18 -14 -36.5 -25t-40.5 -18.5t-48 -12.5t-60 -8v244z" />
    <glyph glyph-name="fivesuperior" unicode="&#x2075;" horiz-adv-x="384" 
d="M18 329zM198 756q79 0 111 -24t32 -62v-28h-105v11q0 40 -11.5 52.5t-26.5 12.5h-25q-13 0 -13 -18v-117q40 -26 85 -42.5t95 -16.5v-108q0 -38 -33.5 -62.5t-112.5 -24.5q-39 0 -66 6.5t-43 18t-23 27.5t-7 35v33h104v-18q0 -40 10.5 -52t24.5 -12q15 0 25 12t10 52v74
q-20 14 -39.5 25t-41 19t-46 12t-54.5 4v144q0 15 -13 15h-17v32h180z" />
    <glyph glyph-name="sixsuperior" unicode="&#x2076;" horiz-adv-x="376" 
d="M41 329zM188 329q-78 0 -112.5 24.5t-34.5 62.5v260q0 38 34.5 61.5t113.5 23.5q39 0 65.5 -6t42.5 -17.5t23 -27t7 -34.5v-34h-104v17q0 40 -10.5 52t-24.5 12t-24.5 -12t-10.5 -52v-54q34 -31 76.5 -49t105.5 -18v-122q0 -38 -34 -62.5t-113 -24.5zM188 367
q14 0 24.5 12t10.5 52v90q-20 9 -38.5 21.5t-31.5 23.5v-135q0 -40 10.5 -52t24.5 -12z" />
    <glyph glyph-name="sevensuperior" unicode="&#x2077;" horiz-adv-x="323" 
d="M22 335zM165 335h-111l127 350q3 7 3 12q0 9 -11 9h-103q-12 0 -12 -12v-31h-36v93h278v-39z" />
    <glyph glyph-name="eightsuperior" unicode="&#x2078;" horiz-adv-x="379" 
d="M42 329zM189 329q-79 0 -113 24.5t-34 62.5v105q38 0 67.5 7.5t52.5 19.5q-23 11 -52.5 19t-67.5 8v101q0 38 34 61.5t113 23.5q78 0 112 -23.5t34 -61.5v-101q-38 0 -67.5 -8t-52.5 -19q23 -12 52.5 -19.5t67.5 -7.5v-105q0 -38 -34 -62.5t-112 -24.5zM189 529l-35 -22
v-76q0 -40 10 -52t25 -12q14 0 24 12t10 52v77zM189 723q-15 0 -25 -12t-10 -52v-71l35 -23l34 23v71q0 40 -10 52t-24 12z" />
    <glyph glyph-name="ninesuperior" unicode="&#x2079;" horiz-adv-x="376" 
d="M38 329zM185 761q79 0 113 -23.5t34 -61.5v-260q0 -38 -33.5 -62.5t-112.5 -24.5q-40 0 -66.5 6.5t-43 18t-23.5 27.5t-7 35v33h104v-18q0 -40 10.5 -52t24.5 -12t24.5 12t10.5 52v71q-34 31 -76 49t-106 18v107q0 38 34 61.5t113 23.5zM150 586q20 -9 38.5 -21.5
t31.5 -23.5v118q0 40 -10.5 52t-24.5 12t-24.5 -12t-10.5 -52v-73z" />
    <glyph glyph-name="zeroinferior" unicode="&#x2080;" horiz-adv-x="379" 
d="M188 32q14 0 24.5 12t10.5 52v228q0 40 -10.5 52t-24.5 12t-24.5 -12t-10.5 -52v-228q0 -40 10.5 -52t24.5 -12zM188 -6q-78 0 -112.5 24.5t-34.5 62.5v260q0 38 34.5 61.5t112.5 23.5q79 0 113 -23.5t34 -61.5v-260q0 -38 -34 -62.5t-113 -24.5z" />
    <glyph glyph-name="oneinferior" unicode="&#x2081;" horiz-adv-x="212" 
d="M18 0v32h16q14 0 14 15v330q0 12 -14 12h-16v32h144v-374q0 -15 14 -15h16v-32h-174z" />
    <glyph glyph-name="twoinferior" unicode="&#x2082;" horiz-adv-x="385" 
d="M341 114v-28q0 -38 -32 -62t-111 -24h-180v32h17q13 0 13 15v142q73 0 116 22q14 8 31.5 18.5t33.5 17.5v77q0 40 -10 52t-25 12q-14 0 -24.5 -12t-10.5 -52v-17h-104v34q0 19 7 34.5t23 27t43 17.5t66 6q79 0 112.5 -23.5t33.5 -61.5v-111q-17 0 -34 -2t-37.5 -8.5
t-46.5 -18t-62 -30.5v-115q0 -18 13 -18h25q15 0 26.5 12t11.5 52v12h105z" />
    <glyph glyph-name="threeinferior" unicode="&#x2083;" horiz-adv-x="364" 
d="M208 172l-42 23q-29 -20 -57.5 -34t-68.5 -18v44q29 2 52 8.5t43 17.5q-20 11 -43 17.5t-52 8.5v43q41 -2 69.5 -17.5t56.5 -33.5l42 23v70q0 40 -10.5 52t-24.5 12t-24.5 -12t-10.5 -52v-17h-104v34q0 19 7 34.5t23 27t42.5 17.5t66.5 6q79 0 113 -23.5t34 -61.5v-101
q-40 0 -70.5 -8t-55.5 -19q25 -12 55.5 -19.5t70.5 -7.5v-105q0 -38 -34 -62.5t-113 -24.5q-40 0 -66.5 6.5t-42.5 18t-23 27.5t-7 35v33h104v-18q0 -40 10.5 -52t24.5 -12t24.5 12t10.5 52v76z" />
    <glyph glyph-name="fourinferior" unicode="&#x2084;" horiz-adv-x="400" 
d="M49 377q0 12 -14 12h-17v32h145v-227q15 6 36 18t35 24v185h145v-32h-17q-14 0 -14 -12v-330q0 -15 13 -15h17v-32h-175v32h17q14 0 14 15v150q-18 -14 -36.5 -25t-40.5 -18.5t-48 -12.5t-60 -8v244z" />
    <glyph glyph-name="fiveinferior" unicode="&#x2085;" horiz-adv-x="384" 
d="M198 421q79 0 111 -24t32 -62v-28h-105v11q0 40 -11.5 52.5t-26.5 12.5h-25q-13 0 -13 -18v-117q40 -26 85 -42.5t95 -16.5v-108q0 -38 -33.5 -62.5t-112.5 -24.5q-39 0 -66 6.5t-43 18t-23 27.5t-7 35v33h104v-18q0 -40 10.5 -52t24.5 -12q15 0 25 12t10 52v74
q-20 14 -39.5 25t-41 19t-46 12t-54.5 4v144q0 15 -13 15h-17v32h180z" />
    <glyph glyph-name="sixinferior" unicode="&#x2086;" horiz-adv-x="376" 
d="M188 -6q-78 0 -112.5 24.5t-34.5 62.5v260q0 38 34.5 61.5t113.5 23.5q39 0 65.5 -6t42.5 -17.5t23 -27t7 -34.5v-34h-104v17q0 40 -10.5 52t-24.5 12t-24.5 -12t-10.5 -52v-54q34 -31 76.5 -49t105.5 -18v-122q0 -38 -34 -62.5t-113 -24.5zM188 32q14 0 24.5 12t10.5 52
v90q-20 9 -38.5 21.5t-31.5 23.5v-135q0 -40 10.5 -52t24.5 -12z" />
    <glyph glyph-name="seveninferior" unicode="&#x2087;" horiz-adv-x="323" 
d="M165 0h-111l127 350q3 7 3 12q0 9 -11 9h-103q-12 0 -12 -12v-31h-36v93h278v-39z" />
    <glyph glyph-name="eightinferior" unicode="&#x2088;" horiz-adv-x="379" 
d="M189 -6q-79 0 -113 24.5t-34 62.5v105q38 0 67.5 7.5t52.5 19.5q-23 11 -52.5 19t-67.5 8v101q0 38 34 61.5t113 23.5q78 0 112 -23.5t34 -61.5v-101q-38 0 -67.5 -8t-52.5 -19q23 -12 52.5 -19.5t67.5 -7.5v-105q0 -38 -34 -62.5t-112 -24.5zM189 194l-35 -22v-76
q0 -40 10 -52t25 -12q14 0 24 12t10 52v77zM189 388q-15 0 -25 -12t-10 -52v-71l35 -23l34 23v71q0 40 -10 52t-24 12z" />
    <glyph glyph-name="nineinferior" unicode="&#x2089;" horiz-adv-x="376" 
d="M185 426q79 0 113 -23.5t34 -61.5v-260q0 -38 -33.5 -62.5t-112.5 -24.5q-40 0 -66.5 6.5t-43 18t-23.5 27.5t-7 35v33h104v-18q0 -40 10.5 -52t24.5 -12t24.5 12t10.5 52v71q-34 31 -76 49t-106 18v107q0 38 34 61.5t113 23.5zM150 251q20 -9 38.5 -21.5t31.5 -23.5v118
q0 40 -10.5 52t-24.5 12t-24.5 -12t-10.5 -52v-73z" />
    <glyph glyph-name="Euro" unicode="&#x20ac;" horiz-adv-x="615" 
d="M75 491v127q0 33 14.5 60t46 46.5t81 30.5t119.5 11t117 -11t76 -30.5t41.5 -46.5t12.5 -60v-51h-171v21q0 41 -6 66t-16.5 39t-24.5 19t-29 5t-29 -5t-24 -19t-16 -39t-6 -66v-97h171v-53h-171v-111h171v-54h-171v-105q0 -41 6 -66t16 -39t24 -19t29 -5t29 5t24.5 19
t16.5 39t6 66v21h171v-51q0 -33 -12.5 -60t-41.5 -46.5t-76 -30.5t-117 -11t-119.5 11t-81 30.5t-46 46.5t-14.5 60v135h-58v54h58v111h-58v53h58z" />
    <glyph glyph-name="uni2117" unicode="&#x2117;" horiz-adv-x="635" 
d="M317 -10q-69 0 -118.5 11t-81 30.5t-46 46.5t-14.5 60v480q0 33 14.5 60t46 46.5t81 30.5t118.5 11q70 0 119.5 -11t81 -30.5t46 -46.5t14.5 -60v-480q0 -33 -14.5 -60t-46 -46.5t-81 -30.5t-119.5 -11zM317 31q118 0 169 30t51 77v480q0 47 -51 77t-169 30
q-117 0 -168 -30t-51 -77v-480q0 -47 51 -77t168 -30zM299 357q16 17 38 33t44 26v66q0 24 -3.5 38.5t-9 22.5t-13 11t-15.5 3h-22q-11 0 -15 -7t-4 -17v-176zM165 158v21h11q10 0 14.5 4.5t4.5 17.5v341q0 13 -4.5 17.5t-14.5 4.5h-11v21h175q77 0 110 -23.5t33 -64.5v-89
q-60 0 -103 -19.5t-81 -54.5v-133q0 -13 4.5 -17.5t14.5 -4.5h16v-21h-169z" />
    <glyph glyph-name="trademark" unicode="&#x2122;" horiz-adv-x="787" 
d="M569 361h-64l-51 228q-3 16 -9 16t-6 -17v-182q0 -10 4 -13t12 -3h9v-29h-106v29h9q8 0 12 3t4 13v304q0 16 -17 16h-9v30h148l49 -235q5 -20 11 -20q7 0 13 20l68 235h95v-30h-9q-17 0 -17 -12v-308q0 -10 4 -13t13 -3h9v-29h-115v29h8q16 0 16 20v184q-2 11 -5 11
q-6 0 -10 -16zM309 756v-86h-20v19q0 18 -16 18h-56v-297q0 -20 16 -20h12v-29h-139v29h9q17 0 17 20v297h-57q-14 0 -14 -15v-22h-22v86h270z" />
    <glyph glyph-name="minus" unicode="&#x2212;" horiz-adv-x="494" 
d="M40 409h414v-54h-414v54z" />
    <glyph glyph-name=".ttfautohint" horiz-adv-x="313" 
d="M0 0z" />
    </font>
</defs>
</svg>
